<?xml version="1.0" encoding="UTF-8"?><svg id="b" xmlns="http://www.w3.org/2000/svg" width="23" height="23" viewBox="0 0 23 23"><path d="M19.391,5.482h-2.809c0-2.802-2.279-5.082-5.082-5.082s-5.082,2.28-5.082,5.082h-2.809c-1.182,0-2.14.958-2.14,2.14v10.967c0,2.364,1.916,4.28,4.28,4.28h11.502c2.364,0,4.28-1.916,4.28-4.28V7.621c0-1.182-.958-2.14-2.14-2.14ZM11.5,2.539c1.622,0,2.942,1.32,2.943,2.942h-5.885c0-1.622,1.32-2.942,2.943-2.942ZM10.831,17.786v2.139h-6.15c-.432,0-.823-.261-.989-.66-.166-.4-.074-.86.232-1.166l3.943-3.942c.3-.304,1.164-1.365,1.164-2.199,0-.886-.508-1.394-1.394-1.394-1.097,0-1.407.643-1.456.771l-2.022-.701c.273-.821,1.314-2.209,3.478-2.209,2.081,0,3.533,1.452,3.533,3.533,0,1.868-1.607,3.53-1.791,3.713l-2.116,2.117h3.567ZM15.855,19.926h-3.687v-2.139h3.687c.768,0,1.394-.626,1.394-1.394s-.626-1.394-1.394-1.394h-2.738c-.36,0-.705-.153-.944-.422-.24-.268-.355-.627-.315-.985l.434-4.057c.145-.691.665-1.11,1.256-1.11h5.044v2.139h-4.263l-.242,2.295h1.767c1.949,0,3.533,1.585,3.533,3.534s-1.584,3.534-3.533,3.534Z"/></svg>