<?xml version="1.0" encoding="UTF-8"?><svg id="a" xmlns="http://www.w3.org/2000/svg" viewBox="0 0 23 23"><path d="m20.25,4.62c.34,0,.62.28.62.62v12.5c0,.34-.28.62-.62.62H2.75c-.34,0-.62-.28-.62-.62V5.25c0-.34.28-.62.62-.62h17.5ZM2.75,2.75C1.37,2.75.25,3.87.25,5.25v12.5c0,1.38,1.12,2.5,2.5,2.5h17.5c1.38,0,2.5-1.12,2.5-2.5V5.25c0-1.38-1.12-2.5-2.5-2.5H2.75Zm5.62,8.75c3.3-.08,3.3-4.92,0-5-3.3.08-3.3,4.92,0,5Zm-1.25,1.25c-1.73,0-3.12,1.4-3.12,3.12,0,.34.28.62.62.62h7.5c.34,0,.62-.28.62-.62,0-1.73-1.4-3.12-3.12-3.12h-2.5Zm7.81-5.62c-1.23.02-1.23,1.86,0,1.87,0,0,3.12,0,3.12,0,1.23-.02,1.23-1.86,0-1.87,0,0-3.12,0-3.12,0Zm0,3.75c-1.23.02-1.23,1.86,0,1.87,0,0,3.12,0,3.12,0,1.23-.02,1.23-1.86,0-1.87,0,0-3.12,0-3.12,0Z" style="stroke-width:0px;"/></svg>