<?xml version="1.0" encoding="UTF-8"?><svg id="a" xmlns="http://www.w3.org/2000/svg" viewBox="0 0 23 23"><path d="m21.64,1.2c-.5,0-.9.4-.9.9v4.61l-2.42-2.42c-1.79-1.82-4.28-2.94-7.03-2.94C7.17,1.35,3.64,3.88,2.16,7.48c-.17.41.02.88.4,1.1.47.27,1.07.06,1.28-.45,1.22-2.92,4.09-4.98,7.45-4.98,2.18,0,4.22.85,5.76,2.42l2.58,2.58h-4.94c-.5,0-.9.4-.9.9s.4.9.9.9h6.91c.52,0,.94-.42.94-.94V2.1c0-.5-.4-.9-.9-.9Z" style="stroke-width:0px;"/><path d="m1.36,20.53c.5,0,.9-.4.9-.9v-3.19l2.42,2.42c1.79,1.82,4.28,2.94,7.03,2.94,4.13,0,7.66-2.53,9.13-6.12.17-.41-.02-.88-.4-1.1-.47-.27-1.07-.06-1.28.45-1.22,2.92-4.09,4.98-7.45,4.98-2.18,0-4.22-.85-5.76-2.42l-2.58-2.58h3.47c.5,0,.9-.4.9-.9s-.4-.9-.9-.9H1.39c-.52,0-.94.42-.94.94v5.49c0,.5.4.9.9.9Z" style="stroke-width:0px;"/></svg>