<?xml version="1.0" encoding="UTF-8"?><svg id="a" xmlns="http://www.w3.org/2000/svg" viewBox="0 0 23 23"><path d="m15.11,10.57c-1.38,0-2.5,1.11-2.5,2.48.02,1.18,1.78,1.18,1.8,0,0-.89,1.39-.89,1.39,0,.02,1.18,1.78,1.18,1.8,0,0-1.37-1.12-2.48-2.5-2.48Z" style="stroke-width:0px;"/><path d="m8.58,13.05c.02,1.18,1.78,1.18,1.8,0,0-1.37-1.12-2.48-2.5-2.48s-2.5,1.11-2.5,2.48c0,.5.4.9.9.9s.9-.4.9-.9c0-.89,1.39-.89,1.39,0Z" style="stroke-width:0px;"/><path d="m12.95,15.65c-.69,1.11-2.46,1.11-3.15,0-.28-.41-.83-.53-1.25-.25-1.48,1.31,1.6,3.05,2.83,2.89,1.22.16,4.31-1.58,2.83-2.89-.41-.28-.97-.16-1.25.25Z" style="stroke-width:0px;"/><path d="m22.75,12.8c0-1.52-1.15-2.77-2.63-2.96-1.3-3.76-5.06-6.32-9.12-6.07-.98,0-1.83-.72-1.83-1.72-.02-1.18-1.78-1.18-1.8,0,0,.61.17,1.18.45,1.68-.86-.1-1.54-.81-1.54-1.68-.02-1.18-1.78-1.18-1.8,0,0,1.4.84,2.6,2.04,3.16-1.67,1.08-2.98,2.69-3.65,4.63-3.47.49-3.47,5.43,0,5.92,2.81,8.06,14.44,8.06,17.25,0,1.48-.2,2.63-1.44,2.63-2.96Zm-3.18,1.19c-.45-.03-.85.24-.98.66-1.99,7.2-12.26,7.12-14.21-.07-.13-.38-.54-.64-.94-.59-1.82.13-1.82-2.51,0-2.38.32.04.6-.1.79-.33.99-3.22,3.66-5.73,7.2-5.72,2.23.11,2.18,3.37-.06,3.4-.71,0-1.34-.42-1.61-1.07-.45-1.09-2.11-.42-1.67.68,1.7,4.02,7.8,1.99,6.66-2.24,1.85.91,3.28,2.56,3.83,4.62.07.19.18.35.33.49.19.14.43.19.66.17,1.82-.12,1.8,2.51,0,2.38Z" style="stroke-width:0px;"/></svg>