<?xml version="1.0" encoding="UTF-8"?><svg id="a" xmlns="http://www.w3.org/2000/svg" viewBox="0 0 23 23"><path d="m16.3,3.67h-.96v-.92c0-1.38-1.12-2.5-2.5-2.5h-2.69c-1.38,0-2.5,1.12-2.5,2.5v.92c-3.12-.33-5.94,1.75-5.96,5,0,0,0,11.58,0,11.58,0,1.38,1.12,2.5,2.5,2.5h14.61c1.38,0,2.5-1.12,2.5-2.5v-11.58c0-2.76-2.24-5-5-5Zm-6.85-.92c0-.39.31-.7.7-.7h2.69c.89.03.68,1.03.7,1.62h-4.09v-.92Zm6.63,13.29H6.91v-1.77c0-.88.72-1.6,1.6-1.6h5.98c.88,0,1.6.72,1.6,1.6v1.77Zm-9.18,1.8h9.18v3.11H6.91v-3.11Zm12.59,2.41c-.03.88-1.02.68-1.62.7v-6.68c0-1.88-1.53-3.4-3.4-3.4h-5.98c-1.88,0-3.4,1.53-3.4,3.4v6.68c-.59-.02-1.59.19-1.62-.7,0,0,0-11.58,0-11.58,0-1.76,1.44-3.2,3.2-3.2h9.61c1.76,0,3.2,1.44,3.2,3.2v11.58Z" style="stroke-width:0px;"/><rect x="10.4" y="7.08" width="2.19" height="2.19" transform="translate(-2.41 10.53) rotate(-45)" style="stroke-width:0px;"/></svg>