<?xml version="1.0" encoding="UTF-8"?><svg id="a" xmlns="http://www.w3.org/2000/svg" viewBox="0 0 23 23"><path d="m20.34,11.11h-10.28c-1.33,0-2.41,1.08-2.41,2.41v5.18c0,1.33,1.08,2.41,2.41,2.41h10.28c1.33,0,2.41-1.08,2.41-2.41v-5.18c0-1.33-1.08-2.41-2.41-2.41Zm.61,7.59c0,.34-.27.61-.61.61h-10.28c-.34,0-.61-.27-.61-.61v-5.18c0-.34.27-.61.61-.61h10.28c.34,0,.61.27.61.61v5.18Z" style="stroke-width:0px;"/><path d="m6,18.12h-3.33c-.34,0-.61-.27-.61-.61v-7.67c0-.34.27-.61.61-.61,3.23,0,9.55,0,12.82,0,.72-.02.43.85,1,.88,0,0,1,0,1,0,.24,0,.43-.21.41-.46-.12-1.22-1.12-2.23-2.41-2.22,0,0-2.74,0-2.74,0v-2.19c0-2.16-1.92-3.58-3.99-3.35-1.85,0-3.35,1.5-3.35,3.35v2.19h-2.74c-1.33,0-2.41,1.08-2.41,2.41v7.67c0,1.33,1.08,2.41,2.41,2.41h3.47c.72-.08.2-.95.27-1.41,0-.22-.18-.39-.4-.39Zm1.2-12.88c0-.85.69-1.55,1.55-1.55h.65c.85,0,1.55.69,1.55,1.55v2.19h-3.74v-2.19Z" style="stroke-width:0px;"/><path d="m18,14.23c-.56.01-.7.51-.65.98,0,1.01-.82,1.83-1.83,1.83h-.65c-1.01,0-1.83-.82-1.83-1.83.05-.47-.1-.97-.65-.98-.55.01-.7.51-.65.98.05,4.21,6.85,4.21,6.9,0,.05-.47-.09-.97-.65-.98Z" style="stroke-width:0px;"/></svg>