<?xml version="1.0" encoding="UTF-8"?><svg id="b" xmlns="http://www.w3.org/2000/svg" width="23" height="23" viewBox="0 0 23 23"><path d="M6.044,5.276c-.279,0-.505.226-.505.505v11.439c0,.279.226.505.505.505s.505-.226.505-.505V5.781c0-.279-.226-.505-.505-.505Z"/><path d="M11.531,5.276c-.279,0-.505.226-.505.505v11.439c0,.279.226.505.505.505s.505-.226.505-.505V5.781c0-.279-.226-.505-.505-.505Z"/><path d="M17.018,5.276c-.279,0-.505.226-.505.505v11.439c0,.279.226.505.505.505s.505-.226.505-.505V5.781c0-.279-.226-.505-.505-.505Z"/><path d="M3.301,5.276c-.391,0-.708.317-.708.708v11.032c0,.391.317.708.708.708s.708-.317.708-.708V5.984c0-.391-.317-.708-.708-.708Z"/><path d="M8.788,5.276c-.391,0-.708.317-.708.708v11.032c0,.391.317.708.708.708s.708-.317.708-.708V5.984c0-.391-.317-.708-.708-.708Z"/><path d="M14.275,5.276c-.391,0-.708.317-.708.708v11.032c0,.391.317.708.708.708s.708-.317.708-.708V5.984c0-.391-.317-.708-.708-.708Z"/><path d="M19.73,5.276c-.374,0-.677.303-.677.677v11.094c0,.374.303.677.677.677s.677-.303.677-.677V5.953c0-.374-.303-.677-.677-.677Z"/></svg>