<?xml version="1.0" encoding="UTF-8"?><svg id="b" xmlns="http://www.w3.org/2000/svg" width="23" height="23" viewBox="0 0 23 23"><path d="M20.455,3.142H2.545c-.989,0-1.791.802-1.791,1.791v13.134c0,.989.802,1.791,1.791,1.791h17.91c.989,0,1.791-.802,1.791-1.791V4.933c0-.989-.802-1.791-1.791-1.791ZM4.009,17.016c0,.391-.317.708-.708.708s-.708-.317-.708-.708V5.984c0-.391.317-.708.708-.708s.708.317.708.708v11.032ZM6.549,17.219c0,.279-.226.505-.505.505s-.505-.226-.505-.505V5.781c0-.279.226-.505.505-.505s.505.226.505.505v11.439ZM9.496,17.016c0,.391-.317.708-.708.708s-.708-.317-.708-.708V5.984c0-.391.317-.708.708-.708s.708.317.708.708v11.032ZM12.036,17.219c0,.279-.226.505-.505.505s-.505-.226-.505-.505V5.781c0-.279.226-.505.505-.505s.505.226.505.505v11.439ZM14.983,17.016c0,.391-.317.708-.708.708s-.708-.317-.708-.708V5.984c0-.391.317-.708.708-.708s.708.317.708.708v11.032ZM17.523,17.219c0,.279-.226.505-.505.505s-.505-.226-.505-.505V5.781c0-.279.226-.505.505-.505s.505.226.505.505v11.439ZM20.407,17.047c0,.374-.303.677-.677.677s-.677-.303-.677-.677V5.953c0-.374.303-.677.677-.677s.677.303.677.677v11.094Z"/></svg>