<?xml version="1.0" encoding="UTF-8"?><svg id="a" xmlns="http://www.w3.org/2000/svg" viewBox="0 0 23 23"><path d="M11.5,18.7c-.3,0-.5-.1-.7-.4-.8-1-1.9-2.3-2.3-2.4-.2,0-.7.6-1.1,1.1-.2.3-.5.5-.9.4-.3,0-.6-.3-.7-.6-.2-.5-.6-1.3-1-1.4-.5-.1-1.7.3-2.3.6-.3.1-.6.1-.9,0-.3-.2-.4-.4-.4-.7-.2-4.9,1.9-7.5,2.8-8.4.5-.5,1.1-.6,1.7-.4l2.5.8.7-2.3c0-.3.3-.6.7-.6.3,0,.6,0,.9.3.2.2.7.6,1.2.6s1-.4,1.2-.6c.2-.2.6-.3.9-.3.3,0,.6.3.7.6l.7,2.3,2.5-.8c.6-.2,1.3,0,1.7.4,0,0,0,0,0,0,.9.9,2.9,3.5,2.8,8.4,0,.3-.2.6-.4.7s-.6.2-.9,0c-.6-.3-1.8-.7-2.3-.6-.4,0-.8.9-1,1.4-.1.3-.4.6-.7.6-.3,0-.7-.1-.9-.4-.3-.5-.9-1.1-1.1-1.1-.4.1-1.5,1.4-2.3,2.4-.2.2-.4.4-.7.4ZM8.5,14.1c.2,0,.4,0,.6,0,.8.3,1.8,1.3,2.4,2.1.7-.8,1.7-1.8,2.4-2.1.8-.3,1.6.1,2.2.7.4-.6.9-1.1,1.7-1.3.7-.2,1.5,0,2.2.2-.2-3.3-1.5-5-2.2-5.7l-2.6.9c-.4.1-.9,0-1.3-.1s-.7-.6-.8-1l-.4-1.3c-.4.2-.8.3-1.3.3s-.9-.1-1.3-.3l-.4,1.3c-.1.4-.4.8-.8,1-.4.2-.8.2-1.3.1l-2.6-.9c-.7.7-2,2.4-2.2,5.7.7-.2,1.5-.4,2.2-.2.8.2,1.3.7,1.7,1.3.5-.4,1-.8,1.6-.8Z" style="stroke-width:0px;"/></svg>