<?xml version="1.0" encoding="UTF-8"?><svg id="a" xmlns="http://www.w3.org/2000/svg" viewBox="0 0 23 23"><path d="m4.24,5.55c-.81.18-1,1.41-.46,1.97,0,0,11.54,13.88,11.54,13.88,1.1,1.89,4.2,1.21,4.2-1.34L17.38,1.7c-.06-1.16-2.31-1.96-1.82-.02.06.2.01.45-.22.5-.58.13-.96.65-.89,1.21l1.04,8.91c.06.56.55.98,1.15.98.16,0,.3.12.31.28l.5,4.29c.02.17-.11.34-.29.35-.77.03-1.04.48-1.52.62-.08,0-.16-.05-.22-.11l-2.71-3.26c-.1-.12-.14-.36-.03-.47.41-.43.45-1.07.08-1.5l-5.73-6.89c-.34-.43-1.02-.51-1.49-.2-.55.3-.79-.94-1.3-.83Z" style="stroke-width:0px;"/></svg>