<?xml version="1.0" encoding="UTF-8"?><svg id="a" xmlns="http://www.w3.org/2000/svg" viewBox="0 0 23 23"><path d="m15.97,1.96h0,0m-1.3,1.13l-2.7,6.3c-.24.56-.18,1.19.15,1.7.33.51.9.81,1.5.81h3.85l-9.15,8.01,2.7-6.29c.24-.56.18-1.19-.15-1.7-.33-.51-.9-.81-1.5-.81h-3.85L14.67,3.09m1.04-2.84c-.33,0-.66.12-.93.35L3.54,10.44c-.98.8-.33,2.5.93,2.47,0,0,4.9,0,4.9,0l-3.38,7.88c-.6,1.34,1.12,2.6,2.22,1.61,0,0,11.25-9.84,11.25-9.84.97-.8.34-2.5-.93-2.46,0,0-4.9,0-4.9,0l3.38-7.89c.42-.89-.32-1.99-1.29-1.96h0Z" style="stroke-width:0px;"/></svg>