<?xml version="1.0" encoding="UTF-8"?><svg id="c" xmlns="http://www.w3.org/2000/svg" width="23.642" height="18.467" viewBox="0 0 23.642 18.467"><g id="d"><g id="e"><path id="f" d="M4.291,18.308v-1.214c.021-.406-.273-.741-.674-.766h-.093c-.273-.021-.54.113-.674.339-.134-.226-.381-.36-.653-.339-.226-.021-.453.093-.561.293v-.247h-.427v1.934h.427v-1.059c-.046-.247.134-.473.381-.519h.093c.273,0,.427.18.427.519v1.08h.427v-1.08c-.021-.247.134-.473.406-.519h.093c.293,0,.427.18.427.519v1.08l.401-.021ZM10.591,16.374h-.699v-.586h-.427v.586h-.381v.381h.406v.9c0,.453.18.72.674.72.18,0,.36-.046.519-.159l-.113-.36c-.113.067-.247.113-.381.113-.201,0-.273-.134-.273-.314v-.874h.699l-.026-.406ZM14.196,16.328c-.201,0-.406.113-.519.293v-.226h-.427v1.934h.427v-1.101c0-.314.134-.494.406-.494.093,0,.18.021.273.046l.134-.406c-.093-.046-.185-.046-.293-.046h0ZM8.75,16.529c-.247-.134-.519-.201-.787-.201-.494,0-.813.226-.813.633,0,.314.226.519.674.561l.201.021c.226.021.339.093.339.201,0,.159-.159.226-.453.226-.226,0-.453-.067-.653-.201l-.201.339c.247.18.54.273.833.247.561,0,.879-.273.879-.633s-.247-.519-.674-.586l-.201-.021c-.18-.021-.339-.067-.339-.18s.134-.226.36-.226.427.067.607.159l.226-.339ZM20.068,16.328c-.201,0-.406.113-.519.293v-.226h-.427v1.934h.427v-1.101c0-.314.134-.494.406-.494.093,0,.18.021.273.046l.134-.406c-.093-.046-.206-.046-.293-.046h0ZM14.622,17.341c-.021.54.406.993.946,1.013h.093c.247.021.494-.067.699-.226l-.201-.339c-.134.113-.314.18-.519.18-.339-.021-.607-.339-.561-.674.021-.314.273-.54.561-.561.18,0,.36.067.519.18l.201-.339c-.201-.159-.453-.247-.699-.226-.54-.021-1.013.381-1.034.921-.005.005-.005.026-.005.072h0ZM18.582,17.341v-.967h-.427v.226c-.134-.18-.381-.293-.607-.293-.561,0-1.013.453-1.013,1.013s.453,1.013,1.013,1.013c.247,0,.473-.093.607-.293v.226h.427v-.926ZM17.009,17.341c.021-.314.293-.561.633-.561.314.021.561.293.561.633-.021.314-.273.54-.586.561-.314,0-.586-.247-.586-.586q-.021-.026-.021-.046ZM11.923,16.328c-.561,0-1.013.473-1.013,1.034s.473,1.013,1.034,1.013c.293.021.586-.093.813-.273l-.201-.314c-.159.134-.36.201-.561.201-.293.021-.54-.18-.586-.473h1.44v-.159c-.005-.622-.386-1.029-.926-1.029h0ZM11.923,16.709c.273,0,.494.201.494.473h-1.013c0-.267.226-.494.519-.473h0ZM22.496,17.341v-1.754h-.406v1.013c-.134-.18-.381-.293-.607-.293-.561,0-1.013.453-1.013,1.013s.453,1.013,1.013,1.013c.247,0,.473-.093.607-.293v.226h.406v-.926ZM23.195,18.04c.021,0,.046,0,.067.021.021,0,.046.021.067.046.021.021.021.046.046.067.021.046.021.113,0,.159,0,.021-.021.046-.046.067-.021.021-.046.021-.067.046-.021,0-.046.021-.067.021-.067,0-.159-.046-.18-.113-.021-.046-.021-.113,0-.159,0-.021.021-.046.046-.067.021-.021.046-.021.067-.046.021-.041.046-.041.067-.041h0ZM23.195,18.375c.021,0,.046,0,.067-.021.021,0,.021-.021.046-.021.046-.067.046-.134,0-.201q-.021-.021-.046-.021c-.021,0-.046-.021-.067-.021s-.046,0-.067.021c-.021,0-.046.021-.046.021-.046.067-.046.134,0,.201q.021.021.046.021c.046.021.067.021.067.021h0ZM23.216,18.128c.021,0,.046,0,.046.021.021,0,.021.021.021.046s0,.021-.021.046c-.021,0-.021.021-.046.021l.067.067h-.046l-.046-.067h-.021v.067h-.046v-.201h.093ZM23.174,18.174v.046h.067v-.041h-.067v-.005ZM20.943,17.341c.021-.314.293-.561.633-.561.314.021.561.293.561.633-.021.314-.273.54-.586.561-.314,0-.586-.247-.586-.586-.021,0-.021-.026-.021-.046ZM6.677,17.341v-.967h-.427v.226c-.134-.18-.381-.293-.607-.293-.561,0-1.013.453-1.013,1.013s.453,1.013,1.013,1.013c.247,0,.473-.093.607-.293v.226h.427v-.926ZM5.104,17.341c.021-.314.293-.561.633-.561.314.021.561.293.561.633-.021.314-.273.54-.586.561-.314,0-.586-.247-.586-.561-.046-.026-.046-.051-.021-.072h0Z" fill="#231f20"/><g id="g"><path id="h" d="M9.017,7.329c0-2.252,1.034-4.366,2.792-5.76C8.637-.93,4.024-.365,1.55,2.808-.923,5.981-.383,10.594,2.789,13.068c2.654,2.093,6.392,2.093,9.046,0-1.784-1.373-2.818-3.492-2.818-5.739Z" fill="#eb001b"/><path id="i" d="M23.642,7.329c0,4.052-3.286,7.313-7.313,7.313-1.64,0-3.24-.54-4.525-1.574,3.173-2.474,3.733-7.086,1.239-10.259-.36-.453-.766-.879-1.239-1.239,3.173-2.499,7.786-1.959,10.259,1.239,1.039,1.28,1.579,2.875,1.579,4.52h0Z" fill="#f79e1b"/><path id="j" d="M22.948,11.849v-.226h.093v-.046h-.247v.046h.113v.226h.041ZM23.421,11.849v-.293h-.067l-.093.201-.093-.201h-.067v.293h.046v-.201l.093.18h.046l.093-.18v.226l.041-.026Z" fill="#f79e1b"/><path d="M13.044,2.808c-.359-.452-.765-.878-1.237-1.237-1.757,1.394-2.79,3.506-2.79,5.757s1.028,4.352,2.802,5.725c3.159-2.477,3.715-7.078,1.225-10.245Z" fill="#ff5f00"/></g></g></g></svg>