<?xml version="1.0" encoding="UTF-8"?><svg id="c" xmlns="http://www.w3.org/2000/svg" width="50.053" height="10.807" viewBox="0 0 50.053 10.807"><path d="M17.878,3.138c.418,0,.787.111,1.109.333s.565.521.732.897l.658-.188c-.214-.512-.545-.923-.991-1.235-.446-.311-.95-.466-1.508-.466-.768,0-1.421.273-1.959.819-.538.546-.807,1.208-.807,1.987s.268,1.433.803,1.978c.536.546,1.19.819,1.963.819.565,0,1.068-.156,1.512-.466s.773-.72.987-1.226l-.666-.18c-.167.376-.409.673-.725.89-.316.217-.686.325-1.109.325-.596,0-1.09-.208-1.485-.623-.394-.415-.591-.921-.591-1.516s.198-1.117.596-1.532c.397-.415.89-.62,1.481-.615h0Z" fill="#ff4800"/><rect x="21.146" y="2.567" width=".666" height="5.486" fill="#ff4800"/><path d="M26.11,4.357c-.394-.353-.855-.529-1.383-.529-.591,0-1.093.208-1.508.623-.415.415-.623.921-.623,1.516s.206,1.096.619,1.516c.413.42.917.631,1.512.631.402,0,.782-.103,1.14-.31.358-.206.62-.479.787-.819l-.604-.141c-.146.204-.337.365-.572.486s-.486.18-.752.18c-.387,0-.719-.12-.995-.36-.277-.24-.433-.554-.47-.941h3.558c.031-.156.029-.337-.008-.541-.073-.523-.307-.96-.701-1.312h0ZM23.262,5.686c.042-.356.2-.655.474-.897s.602-.365.984-.365.699.121.967.365c.269.243.427.542.474.897h-2.899,0Z" fill="#ff4800"/><path d="M30.624,4.2c-.358-.248-.798-.372-1.321-.372-.486,0-.9.112-1.242.337-.343.224-.524.536-.545.932l.65-.008c.047-.246.179-.424.396-.537.217-.112.468-.169.756-.169.345,0,.632.075.862.224.23.149.345.365.345.646v.306l-1.34.008c-.611,0-1.066.119-1.363.356-.298.238-.442.558-.431.96.005.407.158.714.459.921s.657.31,1.07.31c.298,0,.571-.064.819-.192s.426-.252.533-.372c.107-.12.192-.237.255-.353v.855h.635v-2.876c0-.402-.179-.727-.537-.976h0ZM30.048,7.108c-.319.295-.679.443-1.081.443-.24,0-.446-.056-.619-.169-.172-.112-.269-.273-.29-.482-.021-.23.068-.426.266-.588.198-.162.523-.246.972-.251h1.231c0,.402-.159.751-.478,1.046h0Z" fill="#ff4800"/><path d="M33.328,4.016c-.295.152-.508.384-.639.697v-.815h-.666v4.154h.666v-2.092c0-.517.166-.905.497-1.164.332-.259.732-.328,1.203-.208v-.705c-.413-.063-.767-.018-1.062.134v-.002Z" fill="#ff4800"/><path d="M37.266,4.98c-.596-.125-1.019-.256-1.27-.392-.251-.136-.376-.327-.376-.572,0-.266.129-.485.388-.655.259-.169.568-.255.929-.255s.732.072,1.086.215c.353.143.655.312.905.505v-.736c-.642-.392-1.306-.588-1.991-.588-.554,0-1.024.14-1.411.419-.387.279-.58.649-.58,1.109,0,.392.152.699.455.921.303.222.789.411,1.457.568.465.11.837.246,1.117.407.279.162.419.379.419.65,0,.235-.111.442-.333.619-.222.178-.534.266-.936.266-.376,0-.759-.086-1.148-.259-.389-.172-.725-.382-1.007-.627v.791c.69.497,1.408.745,2.155.745.549,0,1.011-.137,1.387-.411.376-.274.565-.649.565-1.125,0-.804-.604-1.338-1.811-1.598v.002Z" fill="#ff4800"/><path d="M42.959,4.2c-.358-.248-.798-.372-1.321-.372-.486,0-.9.112-1.242.337-.343.224-.524.536-.545.932l.65-.008c.047-.246.179-.424.396-.537.217-.112.468-.169.756-.169.345,0,.632.075.862.224.23.149.345.365.345.646v.306l-1.34.008c-.611,0-1.066.119-1.363.356-.298.238-.442.558-.431.96.005.407.158.714.459.921s.657.31,1.07.31c.298,0,.571-.064.819-.192s.426-.252.533-.372c.107-.12.192-.237.255-.353v.855h.635v-2.876c0-.402-.179-.727-.537-.976h0ZM42.383,7.108c-.319.295-.679.443-1.081.443-.24,0-.446-.056-.619-.169s-.269-.273-.29-.482c-.021-.23.068-.426.266-.588.198-.162.523-.246.972-.251h1.231c0,.402-.159.751-.478,1.046h0Z" fill="#ff4800"/><rect x="44.358" y="2.567" width=".666" height="5.486" fill="#ff4800"/><path d="M50.024,5.67c-.073-.523-.307-.96-.701-1.312s-.855-.529-1.383-.529c-.591,0-1.093.208-1.508.623-.415.415-.623.921-.623,1.516s.206,1.096.619,1.516.917.631,1.512.631c.402,0,.782-.103,1.14-.31.358-.206.62-.479.787-.819l-.604-.141c-.146.204-.337.365-.572.486s-.486.18-.752.18c-.387,0-.719-.12-.995-.36-.277-.24-.433-.554-.47-.941h3.558c.031-.156.029-.337-.008-.541h0ZM46.474,5.686c.042-.356.2-.655.474-.897s.602-.365.984-.365.699.121.967.365c.269.243.427.542.474.897h-2.899,0Z" fill="#ff4800"/><path d="M10.448,6.925c-.017-.321-.098-.654-.246-.977-.953-2.022-2.985-3.356-5.056-4.033-.301-.089-.612-.166-.929-.221.187-.146.378-.278.571-.392,1.252-.813,3.085-1.029,4.148.198.512.574.761,1.36.815,2.148.101-1.711-1.001-3.307-2.817-3.361-1.241-.01-2.405.51-3.366,1.328-.578-.037-1.157.018-1.702.227-.062.024-.118.053-.175.082.15-.176.314-.345.493-.505C3.211.486,4.631-.011,6.057.057c-1.412-.216-2.939.185-4.077,1.121C-.456,3.103-.678,6.888,1.5,9.11c1.036,1.078,2.522,1.724,4.019,1.696h.007c1.577-.017,3.144-.733,4.135-1.964.996-1.193,1.428-2.84,1.098-4.352.1.829-.018,1.666-.31,2.436h0ZM5.006,2.349c1.627.574,3.147,1.567,4.214,2.931.531.735,1.108,1.829.489,2.658-.187.237-.438.394-.715.499.015-.131.024-.262.022-.388,0-.376-.044-.747-.123-1.111.039-.076.079-.152.115-.228.114-.242.3-.735.3-.735-.105.225-.223.45-.352.671-.031.052-.063.103-.095.155-.201-.829-.584-1.612-1.074-2.306.257.669.623,1.789.717,2.844-.334.462-.719.891-1.147,1.264-.452-.037-.903-.127-1.35-.248-.633-.176-1.253-.419-1.85-.715.555.368,1.154.681,1.787.911.357.132.726.236,1.103.307-.4.307-.832.563-1.293.749-.512-.232-1.001-.567-1.448-.878.292.359.655.722,1.064,1.014-.383.117-.783.187-1.196.194-.011,0-.021.005-.031.006-.297-.007-.589-.065-.864-.167-.316-.157-.607-.341-.872-.548-.053-.052-.105-.105-.153-.161-1.577-2.071-.316-5.282,1.557-7.025.412.062.823.169,1.195.308h0ZM5.518,10.32c-.206-.004-.411-.021-.615-.048.301-.063.591-.156.871-.275.194.107.396.193.604.257-.285.045-.573.068-.861.066h0ZM7.525,9.815c-.442.131-.881.096-1.309-.034.43-.234.831-.527,1.195-.866.153.019.307.034.462.041.149.004.307.002.468-.007-.153.383-.411.69-.815.865ZM7.997,8.62c-.011-.002-.06,0-.071,0-.073.002-.146.002-.219,0,.303-.32.575-.671.814-1.041.017.351-.002.69-.068.996-.152.024-.305.037-.456.043ZM.764,3.537c.021.375.145.762.36,1.123-.269-.701-.291-1.241-.145-1.647.053-.109.109-.217.17-.324.389-.534,1.169-.732,2.019-.707C1.819,3.329.964,5.272,1.03,7.04c.007.206.027.414.063.62-.671-1.253-.802-2.761-.328-4.123ZM8.797,9.202c.044-.107.082-.217.112-.328.048-.011.098-.019.144-.033.078-.021.151-.046.222-.073-.15.155-.31.299-.478.434Z" fill="#ff4800"/></svg>