<?xml version="1.0" encoding="UTF-8"?><svg id="c" xmlns="http://www.w3.org/2000/svg" width="49.154" height="13.188" xmlns:xlink="http://www.w3.org/1999/xlink" viewBox="0 0 49.154 13.188"><defs><clipPath id="m"><path d="M5.204.637C3.023.637,1.133,1.533.368,1.813v1.271c0,3.53.014,5.966,2.068,8.019.79.789,2.715,2.085,2.715,2.085,0,0,1.94-1.296,2.73-2.085,2.057-2.057,2.05-4.217,2.05-7.548v-1.756c-.956-.297-2.673-1.161-4.726-1.161Z" fill="none"/></clipPath><linearGradient id="n" x1="-1393.668" y1="213.815" x2="-1393.668" y2="213.789" gradientTransform="translate(458195.74 5783.889) scale(328.766 -27.043)" gradientUnits="userSpaceOnUse"><stop offset="0" stop-color="#263238" stop-opacity=".349"/><stop offset=".42" stop-color="#263238" stop-opacity=".149"/><stop offset=".89" stop-color="#263238" stop-opacity=".02"/><stop offset="1" stop-color="#263238" stop-opacity="0"/></linearGradient><clipPath id="p"><path d="M3.023,8.405c.159.489.389.952.687,1.374.425.591,1.444,1.554,1.444,1.554,0,0,.995-.967,1.42-1.554.301-.418.528-.889.697-1.43.404-1.009-4.652-.758-4.248.057Z" fill="none"/></clipPath><clipPath id="r"><path d="M3.023,8.405c.159.489.389.952.687,1.374.425.591,1.444,1.554,1.444,1.554,0,0,.995-.967,1.42-1.554.301-.418.528-.889.697-1.43.404-1.009-4.652-.758-4.248.057Z" fill="none"/></clipPath><clipPath id="t"><path d="M3.023,8.405c.159.489.389.952.687,1.374.425.591,1.444,1.554,1.444,1.554,0,0,.995-.967,1.42-1.554.301-.418.528-.889.697-1.43.404-1.009-4.652-.758-4.248.057Z" fill="none"/></clipPath></defs><path id="d" d="M21.809,3.955c0,.92-.719,1.597-1.6,1.597s-1.6-.676-1.6-1.597.719-1.597,1.6-1.597,1.6.669,1.6,1.597ZM21.108,3.955c0-.574-.418-.967-.899-.967s-.899.389-.899.967c0,.57.418.967.899.967s.899-.4.899-.967h0Z" fill="#7b7979"/><path id="e" d="M25.264,3.955c0,.92-.719,1.597-1.6,1.597s-1.6-.676-1.6-1.597.719-1.597,1.6-1.597,1.6.669,1.6,1.597ZM24.563,3.955c0-.574-.418-.967-.899-.967s-.899.393-.899.967c0,.57.418.967.899.967s.899-.4.899-.967h0Z" fill="#7b7979"/><path id="f" d="M28.574,2.453v2.864c0,1.179-.694,1.66-1.515,1.66-.772,0-1.239-.517-1.416-.942l.609-.255c.11.258.375.566.804.566.528,0,.853-.326.853-.935v-.23h-.025c-.156.195-.46.361-.839.361-.797,0-1.529-.694-1.529-1.59s.729-1.6,1.529-1.6c.382,0,.683.17.839.358h.025v-.258h.666ZM27.958,3.958c0-.563-.375-.974-.853-.974-.485,0-.889.411-.889.974,0,.556.404.963.889.963.478,0,.853-.407.853-.963h0Z" fill="#7b7979"/><path id="g" d="M29.672.775v4.677h-.683V.775h.683Z" fill="#7b7979"/><path id="h" d="M32.334,4.479l.545.361c-.297.443-.797.712-1.331.708-.906,0-1.583-.701-1.583-1.597,0-.949.683-1.597,1.505-1.597.828,0,1.232.659,1.367,1.016l.074.181-2.135.885c.163.319.418.485.772.485.358,0,.605-.177.786-.443ZM30.66,3.905l1.427-.591c-.078-.198-.315-.34-.591-.34-.358,0-.853.315-.836.931Z" fill="#7b7979"/><path id="i" d="M16.02,3.537v-.676h2.28c.025.135.035.273.035.407,0,.506-.138,1.136-.588,1.583-.435.453-.991.694-1.728.694-1.367,0-2.514-1.112-2.514-2.478s1.147-2.478,2.514-2.478c.754,0,1.292.297,1.699.683l-.478.478c-.326-.315-.765-.489-1.221-.485-.998,0-1.777.804-1.777,1.802s.779,1.802,1.777,1.802c.648,0,1.016-.258,1.25-.496.191-.191.319-.464.368-.839l-1.618.004Z" fill="#7b7979"/><path id="j" d="M15.245,11.51c-.566,0-.991-.127-1.275-.382-.28-.255-.428-.581-.443-.981h.513c.028.301.152.524.375.666.223.145.492.216.807.216.297,0,.538-.06.722-.184s.273-.29.273-.499c0-.223-.096-.382-.283-.485s-.513-.202-.974-.297c-.46-.099-.793-.234-.991-.407-.202-.173-.301-.407-.301-.694,0-.326.131-.595.393-.804s.609-.315,1.041-.315c.453,0,.821.106,1.101.315.28.212.425.51.443.892h-.52c-.053-.489-.386-.733-1.002-.733-.297,0-.528.057-.69.166-.163.113-.244.262-.244.446,0,.17.067.294.198.379s.375.166.733.244c.29.06.574.138.853.234.205.074.393.198.542.358.149.163.227.379.227.651,0,.347-.138.634-.414.864s-.641.35-1.083.35ZM19.256,10.674v-.644h-.354c-.751,0-1.126.205-1.126.612-.007.135.057.262.166.343.11.081.258.12.446.12.17,0,.34-.039.496-.117.149-.071.276-.177.372-.315ZM19.256,11.142c-.266.244-.605.368-1.02.368-.29,0-.528-.078-.715-.234-.184-.149-.287-.372-.28-.605,0-.683.588-1.023,1.763-1.023h.251c.004-.152-.007-.304-.032-.457-.025-.099-.092-.184-.184-.234-.099-.064-.262-.092-.481-.092-.46,0-.701.166-.715.496h-.517c.039-.598.457-.899,1.26-.899.375,0,.666.074.874.223s.315.439.315.874v1.887h-.517l-.004-.304ZM21.15,8.932v2.51h-.517v-2.51h-.428v-.407h.428v-.258c0-.616.273-.924.818-.924.131-.004.258.007.386.032v.45c-.103-.018-.209-.028-.315-.028-.127,0-.22.035-.283.106-.06.071-.092.191-.092.368v.251h.552v.407h-.549v.004ZM23.345,11.51c-.428,0-.772-.135-1.034-.404s-.389-.644-.389-1.122.127-.85.379-1.119c.251-.269.581-.407.988-.407.418,0,.747.135.998.4.248.266.372.641.372,1.126v.124h-2.195c.021.336.113.588.28.751.159.163.379.251.605.244.173.004.343-.046.492-.138.142-.081.227-.234.23-.393h.535c-.039.301-.177.531-.407.694-.237.163-.52.244-.853.244ZM24.11,9.701c-.042-.28-.138-.489-.283-.63-.145-.138-.34-.212-.538-.209-.198-.004-.389.071-.535.209-.149.138-.244.347-.283.63h1.639ZM29.813,10.271c0,.379-.127.666-.386.867s-.63.301-1.119.301h-1.508v-4.025h1.434c.428,0,.765.092,1.013.276.244.184.368.435.368.754,0,.389-.195.676-.581.864.262.067.457.188.584.365.131.17.198.382.195.598ZM27.335,9.099h.896c.294,0,.513-.046.651-.142s.209-.251.209-.471c0-.198-.067-.347-.202-.446s-.372-.149-.708-.149h-.846v1.207ZM27.335,10.964h.97c.637,0,.956-.23.956-.694,0-.241-.074-.414-.223-.528-.149-.11-.414-.166-.804-.166h-.903l.004,1.388h0ZM32.005,9c-.103-.025-.209-.035-.315-.032-.266,0-.489.138-.68.414v2.06h-.52v-2.917h.52v.407c.22-.315.471-.474.758-.474.078,0,.159.007.237.021v.52ZM33.545,8.458c.418,0,.747.135.998.4.248.266.372.641.372,1.126s-.124.86-.372,1.126-.581.4-.998.4c-.414,0-.747-.135-.995-.4s-.372-.641-.372-1.126.124-.86.372-1.126c.251-.266.581-.4.995-.4h0ZM33.545,11.103c.234.007.457-.099.602-.283.152-.188.23-.467.23-.836,0-.372-.078-.651-.23-.839-.145-.184-.368-.287-.602-.283-.234-.007-.457.099-.602.283-.152.188-.23.467-.23.839s.078.648.23.836c.145.188.368.29.602.283h0ZM39.149,8.525l-.878,2.917h-.496l-.634-2.145-.63,2.145h-.496l-.878-2.917h.574l.535,2.223.659-2.223h.474l.659,2.223.535-2.223h.577ZM40.604,11.51c-.797,0-1.214-.315-1.25-.942h.52c.004.354.244.535.726.535.216,0,.379-.046.492-.135.106-.078.17-.202.17-.333s-.057-.227-.166-.28-.336-.124-.68-.209-.595-.184-.754-.29-.237-.294-.237-.559c0-.241.099-.443.294-.602.198-.159.46-.237.79-.237.765,0,1.154.273,1.172.818h-.517c-.018-.276-.223-.411-.62-.411-.152-.007-.301.028-.432.099-.11.057-.173.166-.173.287,0,.113.042.195.131.248.089.05.308.117.662.205.354.085.616.184.786.297.17.113.258.308.258.588.004.258-.113.503-.319.662-.212.173-.496.258-.853.258h0ZM42.895,11.442h-.52v-2.917h.52v2.917ZM42.895,7.973h-.52v-.559h.52v.559ZM44.18,8.897c.258-.29.549-.435.871-.435.659,0,.988.358.988,1.076v1.908h-.52v-1.887c0-.237-.042-.411-.127-.513s-.227-.156-.418-.156c-.266,0-.528.156-.793.467v2.089h-.52v-2.917h.52v.368ZM49.154,11.216c0,.938-.425,1.409-1.271,1.409-.368,0-.655-.081-.867-.241-.205-.149-.326-.389-.319-.644h.535c0,.319.216.478.644.478.241,0,.428-.067.559-.198.131-.135.198-.393.198-.782v-.145c-.23.28-.51.418-.832.418-.382,0-.676-.135-.885-.407s-.315-.637-.315-1.098c0-.478.117-.853.35-1.133.234-.276.528-.418.882-.418.315,0,.581.096.8.29v-.227h.517l.004,2.698ZM48.637,10.603v-1.384c-.223-.237-.478-.354-.768-.354-.223,0-.4.096-.531.287-.135.191-.198.478-.198.857,0,.358.064.63.188.818.113.177.312.283.52.28.29-.004.556-.17.789-.503h0Z" fill="#707070"/><path id="k" d="M.368,1.813v1.271c0,1.161,0,2.206.074,3.165.149,1.929.605,3.48,1.983,4.854.79.79,2.723,2.085,2.723,2.085V1.813C3.14,1.813,1.133,1.533.368,1.813Z" fill="#66bb6a"/><path id="l" d="M9.931,1.799c-4.762-.011-2.772,0-4.779,0v11.389s1.94-1.296,2.73-2.085c2.057-2.057,2.05-4.217,2.05-7.548v-1.756Z" fill="#388e3c"/><g clip-path="url(#m)"><rect id="o" y="1.813" width="10.345" height=".85" fill="url(#n)"/></g><g clip-path="url(#p)"><path id="q" d="M5.194,9.987c.86,0,1.554.697,1.554,1.554h0c0,.86-3.108.86-3.108,0-.004-.86.694-1.554,1.554-1.554h0Z" fill="#fafafa"/></g><g clip-path="url(#r)"><path id="s" d="M2.524,11.566c0-1.473,1.193-2.666,2.666-2.666.627,0,1.232.22,1.71.623.584.481-4.376,3.516-4.376,2.043ZM5.194,9.424c-1.186,0-2.145.959-2.145,2.145s4.291,1.186,4.291,0c-.004-1.186-.963-2.145-2.145-2.145Z" fill="#fafafa"/></g><g clip-path="url(#t)"><path id="u" d="M1.384,11.566c-.007-2.103,1.692-3.813,3.799-3.82,2.103-.007,3.813,1.696,3.82,3.799v.021c-.004,2.103-7.619,2.103-7.619,0ZM5.194,8.306c-1.802,0-3.261,1.459-3.261,3.261h0c0,1.802,6.521,1.802,6.521,0-.004-1.799-1.462-3.257-3.261-3.261h0Z" fill="#fafafa"/></g><path id="v" d="M9.931,1.816v-.974c0-.35-.485-.843-.917-.843H1.207C.775,0,.368.492.368.843v.974h9.563Z" fill="#e0e0e0"/><circle id="w" cx="1.547" cy=".959" r=".28" fill="#fff"/><circle id="x" cx="2.577" cy=".959" r=".28" fill="#fff"/><circle id="y" cx="5.119" cy="5.279" r="1.575" fill="#fafafa"/></svg>