<?xml version="1.0" encoding="UTF-8"?><svg id="c" xmlns="http://www.w3.org/2000/svg" width="23.264" height="23.264" viewBox="0 0 23.264 23.264"><path d="M.886,18.199c0,.989.802,1.791,1.791,1.791h17.91c.989,0,1.791-.802,1.791-1.791v-.041h-2.302l-1.19-1.31-1.19,1.31h-7.601v-6.112h-2.455l3.048-6.892h2.933l1.048,2.358v-2.358h3.627l.631,1.776.634-1.776h2.817v-.09c0-.989-.802-1.791-1.791-1.791H2.677c-.989,0-1.791.802-1.791,1.791v13.134ZM17.318,17.389l1.575-1.728,1.567,1.728h1.918l-2.537-2.69,2.537-2.69h-1.888l-1.567,1.742-1.548-1.742h-1.918l2.519,2.705-2.515,2.672v-1.235h-3.097v-.828h3.019v-1.205h-3.019v-.836h3.097v-1.235h-4.552v5.343h6.41ZM20.911,14.703l1.466,1.563v-3.108l-1.466,1.545ZM19.557,11.27l1.377-3.754v3.754h1.444v-5.347h-2.246l-1.201,3.332-1.19-3.332h-2.284v5.339l-2.358-5.339h-1.91l-2.328,5.347h1.604l.444-1.071h2.459l.448,1.071h3.086v-3.742l1.373,3.742h1.284ZM11.408,8.998l.728-1.75.724,1.75h-1.451Z"/></svg>