<?xml version="1.0" encoding="UTF-8"?><svg id="c" xmlns="http://www.w3.org/2000/svg" width="50.673" height="8.731" viewBox="0 0 50.673 8.731"><path d="M3.322,2.913c.038-.277.008-.487-.089-.624-.098-.138-.26-.207-.486-.207h-.076l-.22,1.663c.267-.006.47-.074.607-.208.14-.134.228-.339.264-.623ZM4.882,3.828c-.233.286-.557.517-.97.689l.97,3.089h-2.06l-.524-2.697-.356,2.697H0L.919.635h2.235c.757,0,1.326.192,1.712.578.383.385.533.909.446,1.571-.055.406-.198.756-.43,1.044ZM7.943,4.546c.036-.276.02-.484-.049-.624-.069-.138-.193-.206-.366-.206-.137,0-.257.068-.36.203-.101.135-.192.344-.27.627h1.045ZM9.131,3.188c.309.405.409,1.013.303,1.826-.014.095-.022.168-.031.219-.008.048-.018.093-.031.134h-2.582l-.009.067c-.048.359-.041.617.019.774.062.157.184.236.368.236.137,0,.252-.047.348-.136.097-.089.177-.227.238-.413h1.486c-.145.574-.425,1.025-.843,1.354-.416.329-.92.493-1.502.493-.688,0-1.188-.221-1.501-.664-.314-.445-.416-1.077-.308-1.896.11-.824.38-1.465.816-1.918.434-.456.99-.683,1.663-.683.734,0,1.255.202,1.565.606ZM12.246,7.529c-.136.073-.282.127-.434.162-.153.036-.324.052-.51.052-.63,0-1.094-.228-1.398-.689-.302-.459-.4-1.09-.296-1.892.104-.784.374-1.412.809-1.881.434-.469.964-.699,1.583-.699.171,0,.33.017.472.046.144.035.279.081.4.149l-.197,1.494c-.055-.036-.114-.063-.175-.081-.062-.018-.129-.025-.202-.025-.183,0-.344.088-.476.266-.132.178-.219.421-.26.73-.041.31-.021.545.06.702.079.158.221.238.421.238.057,0,.12-.009.187-.027.067-.017.139-.04.216-.072l-.2,1.526ZM12.671,7.606l1.002-7.606h1.767l-1.002,7.606h-1.768ZM17.952,5.162c.046-.344.044-.606-.009-.784-.05-.182-.148-.271-.291-.271-.14,0-.259.089-.355.267-.096.179-.169.442-.214.789-.046.348-.045.608.004.784.048.174.144.262.286.262.146,0,.266-.089.364-.27.1-.181.171-.439.214-.777ZM18.313,2.717h1.767l-.644,4.888h-1.766l.071-.538c-.206.235-.409.404-.611.514-.199.108-.41.161-.629.161-.485,0-.836-.225-1.051-.679-.216-.452-.27-1.086-.164-1.902.109-.822.329-1.456.66-1.905.33-.452.743-.676,1.236-.676.222,0,.418.053.591.16.169.107.328.275.471.506l.07-.53ZM19.963,7.606l.644-4.888h1.698l-.095.726c.202-.28.424-.487.665-.623.241-.132.512-.199.811-.199.279,0,.501.067.668.204.164.135.27.341.316.618.173-.28.376-.487.606-.623.23-.132.496-.199.797-.199.373,0,.641.11.808.333.166.222.222.55.165.976l-.484,3.675h-1.769l.375-2.846c.022-.152.007-.265-.036-.339-.044-.074-.123-.108-.233-.108-.102,0-.188.04-.256.126-.067.084-.112.201-.133.35l-.371,2.817h-1.757l.373-2.846c.022-.152.009-.265-.034-.339-.045-.074-.124-.108-.235-.108-.106,0-.193.04-.265.126-.069.084-.113.201-.133.35l-.37,2.817h-1.759ZM30.07,4.546c.036-.276.02-.484-.051-.624-.068-.138-.189-.206-.364-.206-.137,0-.257.068-.359.203-.103.135-.194.344-.272.627h1.046ZM31.258,3.188c.308.405.409,1.013.303,1.826-.012.095-.022.168-.03.219-.007.048-.02.093-.031.134h-2.582l-.009.067c-.047.359-.041.617.019.774.062.157.184.236.369.236.137,0,.251-.047.347-.136.096-.089.177-.227.238-.413h1.487c-.145.574-.427,1.025-.845,1.354-.417.329-.917.493-1.502.493-.687,0-1.188-.221-1.501-.664-.315-.445-.416-1.077-.308-1.896.11-.824.379-1.465.817-1.918.432-.456.989-.683,1.663-.683.733,0,1.255.202,1.565.606Z" fill="#a4c929" fill-rule="evenodd"/><path d="M34.168,5.173h.772l-.051-2.584-.722,2.584ZM36.242.635l.605,6.97h-1.894l-.013-1.025h-1.148l-.284,1.025h-1.895l2.441-6.97h2.188ZM40.487,4.079c.096-.733.115-1.229.054-1.494-.059-.264-.204-.395-.442-.395s-.422.132-.553.401c-.131.267-.242.763-.338,1.488-.096.722-.114,1.217-.053,1.484.062.266.209.401.448.401.236,0,.418-.132.546-.395.128-.262.243-.759.339-1.49ZM42.113,1.446c.373.631.482,1.525.33,2.68-.089.665-.242,1.243-.459,1.731-.216.491-.504.905-.86,1.241l.742.887-1.653.745-.619-.999c-.022,0-.055.003-.102.006-.045.002-.08.004-.103.004-.836,0-1.442-.314-1.814-.945-.375-.628-.488-1.519-.337-2.672.153-1.152.497-2.045,1.039-2.676.539-.634,1.223-.951,2.047-.951s1.421.317,1.79.947ZM42.691,5.113l.59-4.478h1.944l-.614,4.663c-.027.205-.011.355.05.452.06.096.165.145.318.145.154,0,.276-.049.361-.145.087-.097.141-.247.168-.452l.614-4.663h1.953l-.59,4.478c-.119.909-.4,1.576-.842,1.997-.443.424-1.076.632-1.909.632-.826,0-1.403-.209-1.731-.632-.327-.421-.432-1.088-.313-1.997ZM47.813,7.606l.916-6.97h1.945l-.918,6.97h-1.942Z" fill="#02793e" fill-rule="evenodd"/></svg>