<?xml version="1.0" encoding="UTF-8"?><svg id="c" xmlns="http://www.w3.org/2000/svg" width="23.264" height="23.264" viewBox="0 0 23.264 23.264"><path d="M9.83,5.061c-3.616,0-6.56,2.933-6.56,6.56s2.944,6.56,6.56,6.56,6.56-2.944,6.56-6.56-2.933-6.56-6.56-6.56ZM8.341,15.494c-1.556-.593-2.664-2.104-2.664-3.873s1.108-3.28,2.664-3.884v7.757ZM11.318,15.505v-7.768c1.556.604,2.664,2.116,2.664,3.884s-1.108,3.28-2.664,3.884h0ZM20.587,3.274H2.677c-.989,0-1.791.802-1.791,1.791v13.134c0,.989.802,1.791,1.791,1.791h17.91c.989,0,1.791-.802,1.791-1.791V5.065c0-.989-.802-1.791-1.791-1.791ZM13.188,18.796h-3.369c-3.963,0-7.231-3.19-7.231-7.097,0-4.276,3.269-7.231,7.231-7.231h3.369c3.918,0,7.489,2.955,7.489,7.231,0,3.907-3.571,7.097-7.489,7.097Z"/></svg>