<?xml version="1.0" encoding="UTF-8"?><svg id="c" xmlns="http://www.w3.org/2000/svg" width="23.264" height="23.264" viewBox="0 0 23.264 23.264"><path d="M14.822,5.113c-1.015,0-2.011.306-2.854.862,2.69,2.213,2.731,6.399,0,8.601.843.56,1.847.862,2.854.862,2.851.004,5.168-2.31,5.168-5.164s-2.317-5.16-5.168-5.16Z"/><path d="M8.442,15.441c1.015,0,2.011-.306,2.854-.862-2.72-2.213-2.701-6.388,0-8.6-.843-.56-1.84-.862-2.854-.862-2.851-.004-5.168,2.313-5.168,5.157s2.317,5.168,5.168,5.168Z"/><path d="M11.632,14.333c2.63-2.052,2.619-6.052,0-8.115-2.619,2.063-2.631,6.067,0,8.115Z"/><path d="M18.882,16.833c-.306-.407-1.116-.19-1.116.519,0,.724.84.918,1.116.519v.172h.295v-1.929h-.295v.72ZM18.486,17.788c-.254,0-.418-.194-.418-.437s.164-.437.418-.437c.246,0,.418.194.418.437,0,.254-.172.437-.418.437Z"/><path d="M16.109,16.833c-.31-.41-1.116-.179-1.116.519,0,.716.836.922,1.116.519v.172h.306v-1.373h-.306v.164ZM15.714,17.788c-.254,0-.407-.194-.407-.437s.153-.437.407-.437.418.194.418.437c0,.254-.164.437-.418.437Z"/><path d="M14.699,17.038l.142-.243c-.433-.34-1.22-.153-1.22.56,0,.739.836.888,1.22.56l-.142-.243c-.343.243-.772.097-.772-.321,0-.425.433-.563.772-.313Z"/><path d="M19.613,17.93c.011-.011.011-.019.011-.03,0-.011,0-.019-.011-.03-.011,0-.019-.011-.041-.011h-.06v.131h.03v-.052h.011l.041.052h.03l-.041-.049h0c.019,0,.019-.011.03-.011Z"/><path d="M12.964,16.833v-.164h-.306v1.369h.306v-.772c0-.433.354-.377.478-.313l.09-.284c-.172-.075-.433-.067-.567.164Z"/><path d="M19.665,17.829c-.011-.011-.03-.019-.041-.03-.019,0-.041-.011-.06-.011-.011,0-.03.011-.052.011-.019.011-.03.019-.041.03-.019.011-.03.03-.03.041-.011.019-.011.041-.011.06,0,.011,0,.03.011.052,0,.011.011.03.03.041.011.011.019.019.041.03.019.011.041.011.052.011.019,0,.041,0,.06-.011.011-.011.03-.019.041-.03.011-.011.019-.03.03-.041.011-.022.011-.041.011-.052,0-.019,0-.041-.011-.06-.011-.011-.019-.03-.03-.041ZM19.665,17.971c-.011.011-.011.019-.019.03-.011.011-.019.019-.041.019-.011.011-.019.011-.041.011-.011,0-.019,0-.041-.011-.011,0-.019-.011-.03-.019-.011-.011-.019-.019-.019-.03-.011-.019-.011-.03-.011-.041,0-.019,0-.03.011-.041,0-.019.011-.03.019-.041.011-.011.019-.011.03-.019.019-.011.03-.011.041-.011.019,0,.03,0,.041.011.019.011.03.011.041.019.011.007.007.022.019.041,0,.011.011.019.011.041,0,.011-.011.019-.011.041Z"/><path d="M17.106,16.833v-.164h-.295v1.369h.295v-.772c0-.41.336-.384.478-.313l.09-.284c-.09-.045-.41-.108-.567.164Z"/><path d="M5.774,16.632c-.172,0-.354.052-.478.243-.09-.153-.242-.243-.455-.243-.142,0-.284.052-.396.202v-.164h-.306v1.369h.306c0-.705-.093-1.127.336-1.127.381,0,.306.381.306,1.127h.295c0-.683-.093-1.127.336-1.127.381,0,.306.373.306,1.127h.306v-.858h-.007c0-.325-.213-.537-.549-.549Z"/><path d="M8.654,17.057c0-.213.444-.179.69-.041l.123-.243c-.351-.228-1.127-.224-1.127.306,0,.534.854.31.854.56,0,.235-.504.216-.772.03l-.131.235c.418.284,1.216.224,1.216-.28,0-.56-.854-.306-.854-.567Z"/><path d="M7.703,16.833c-.101-.123-.243-.202-.437-.202-.384,0-.679.306-.679.72,0,.418.295.72.679.72.194,0,.336-.071.437-.202v.172h.295v-1.373h-.295v.164ZM7.307,17.788c-.265,0-.418-.194-.418-.437s.153-.437.418-.437c.243,0,.403.194.407.437,0,.254-.164.437-.407.437Z"/><path d="M10.292,17.565v-.619h.489v-.276h-.489v-.418h-.306v.418h-.284v.272h.284v.623c0,.657.646.537.843.407l-.082-.254c-.142.078-.455.164-.455-.153Z"/><path d="M11.703,16.628c-.396,0-.679.295-.679.72,0,.765.843.892,1.261.53l-.142-.224c-.291.239-.731.216-.817-.183h1.026c0-.604-.276-.843-.649-.843ZM11.337,17.229c.03-.194.153-.325.354-.325.194,0,.325.112.358.325h-.713Z"/><polygon points="19.714 13.408 19.654 13.277 19.602 13.277 19.602 13.479 19.632 13.479 19.632 13.326 19.691 13.456 19.732 13.456 19.785 13.326 19.785 13.479 19.826 13.479 19.826 13.277 19.773 13.277 19.714 13.408"/><polygon points="19.49 13.483 19.49 13.311 19.561 13.311 19.561 13.281 19.389 13.281 19.389 13.311 19.46 13.311 19.46 13.483 19.49 13.483"/></svg>