<?xml version="1.0" encoding="UTF-8"?><svg id="c" xmlns="http://www.w3.org/2000/svg" width="23.264" height="23.264" viewBox="0 0 23.264 23.264"><path d="M11.198,12.847c.177-.177.481-.177.658,0l2.52,2.52c.465.465,1.083.72,1.738.72h.494l-3.178,3.178c-.992.966-2.602.966-3.594,0l-3.191-3.188h.304c.655,0,1.273-.255,1.738-.72l2.51-2.51ZM11.856,10.438c-.209.18-.478.183-.658,0l-2.51-2.51c-.465-.494-1.083-.72-1.738-.72h-.304l3.188-3.188c.995-.995,2.605-.995,3.597,0l3.181,3.178h-.497c-.655,0-1.273.255-1.738.72l-2.52,2.52ZM6.949,7.944c.452,0,.867.183,1.214.504l2.51,2.51c.236.206.543.353.854.353.308,0,.615-.147.851-.353l2.52-2.52c.321-.317.763-.501,1.214-.501h1.234l1.908,1.908c.992.992.992,2.602,0,3.594l-1.908,1.908h-1.234c-.452,0-.894-.183-1.214-.504l-2.52-2.52c-.455-.455-1.25-.455-1.705.003l-2.51,2.507c-.347.321-.763.504-1.214.504h-1.041l-1.898-1.898c-.995-.992-.995-2.602,0-3.594l1.898-1.902h1.041Z"/></svg>