<?xml version="1.0" encoding="UTF-8"?><svg id="c" xmlns="http://www.w3.org/2000/svg" width="23.264" height="23.264" viewBox="0 0 23.264 23.264"><path d="M15.998,10.378c-.52,0-.732.473-.764.804h1.462c0-.3-.128-.804-.698-.804Z"/><path d="M11.698,10.525c-.883,0-.742,1.167-.735,1.778-.003.131.006.263.009.391h.62c.623,0,.904-.397.904-.814s-.031-1.355-.798-1.355Z"/><path d="M20.587,3.274H2.677c-.989,0-1.791.802-1.791,1.791v13.134c0,.989.802,1.791,1.791,1.791h17.91c.989,0,1.791-.802,1.791-1.791V5.065c0-.989-.802-1.791-1.791-1.791ZM8.361,7.925c.351,0,.635.285.635.635s-.285.635-.635.635-.635-.285-.635-.635.285-.635.635-.635ZM7.106,13.621h-1.236v-2.291h-2.041v2.291h-1.242v-5.477h1.242v2.106h2.041v-2.106h1.236v5.477ZM11.591,13.668h-.601c.006.507.006,1.017.006,1.527h-1.271c0-.488.003-1.002.006-1.527-1.374-.006-2.006-.876-2.006-1.784v-2.241h1.271v2.241c0,.416.232.814.742.814.003-1.008,0-2.047-.034-3.055h1.061c.022.194.044.388.063.582.501-1.001,2.081-.782,2.613.066.548.873.735,3.377-1.85,3.377ZM17.803,12.028v.003h-2.557c.041.51.545.754,1.12.754.422,0,.767-.056,1.099-.163l.163.836c-.407.163-.904.244-1.44.244-1.349,0-2.122-.782-2.122-2.025,0-1.008.626-2.122,2.006-2.122,1.283,0,1.771,1.002,1.771,1.984,0,.213-.025.397-.041.488ZM20.676,10.735c-.088-.016-.194-.031-.332-.031-.454,0-.764.244-.845.626-.016.081-.025.178-.025.275v2.015h-1.236v-2.666c0-.585-.016-.967-.031-1.308h1.064l.041.732h.031c.203-.576.692-.82,1.073-.82.113,0,.169,0,.26.016v1.161Z"/></svg>