<?xml version="1.0" encoding="UTF-8"?><svg id="c" xmlns="http://www.w3.org/2000/svg" width="26.838" height="10.786" viewBox="0 0 26.838 10.786"><polygon points="0 .325 0 8.451 1.843 8.451 1.843 5.052 4.871 5.052 4.871 8.451 6.705 8.451 6.705 .325 4.871 .325 4.871 3.45 1.843 3.45 1.843 .325 0 .325" fill="#f37421"/><path d="M22.575,6.087c.023-.135.06-.409.06-.724,0-1.458-.724-2.944-2.628-2.944-2.048,0-2.976,1.653-2.976,3.148,0,1.843,1.147,3.004,3.148,3.004.794,0,1.532-.121,2.136-.362l-.241-1.24c-.492.158-1.003.241-1.63.241-.854,0-1.602-.362-1.662-1.119h3.793v-.005ZM18.763,4.834c.046-.492.362-1.193,1.133-1.193.845,0,1.035.748,1.035,1.193h-2.168Z" fill="#f37421"/><path d="M23.221,8.451h1.834v-2.99c0-.144.014-.288.037-.409.121-.566.58-.929,1.254-.929.204,0,.362.023.492.046v-1.723c-.135-.023-.218-.023-.385-.023-.566,0-1.291.362-1.593,1.217h-.046l-.06-1.087h-1.579c.023.506.046,1.073.046,1.941v3.956h0Z" fill="#f37421"/><path d="M8.567,0c.52,0,.943.423.943.943s-.423.943-.943.943-.943-.423-.943-.943.423-.943.943-.943h0Z" fill="#ffe700" fill-rule="evenodd"/><path d="M12.439,7.076h.919c.924,0,1.342-.59,1.342-1.207s-.046-2.011-1.184-2.011c-1.309,0-1.1,1.732-1.091,2.637-.005.195.009.39.014.58h0ZM7.624,2.549h1.885v3.325c0,.618.344,1.207,1.1,1.207.005-1.495,0-3.037-.051-4.532h1.574c.033.288.065.576.093.864.743-1.486,3.088-1.161,3.877.098.813,1.295,1.091,5.01-2.744,5.01h-.891c.009.752.009,1.509.009,2.266h-1.885c0-.724.005-1.486.009-2.266-2.038-.009-2.976-1.3-2.976-2.647v-3.325h0Z" fill="#f37421" fill-rule="evenodd"/></svg>