<?xml version="1.0" encoding="UTF-8"?><svg id="c" xmlns="http://www.w3.org/2000/svg" width="29.419" height="12.808" viewBox="0 0 29.419 12.808"><path d="M8.075,0h-3.049c-1.345.065-2.448.605-2.765,1.727-.168.582-.256,1.224-.386,1.829-.661,3.076-1.243,6.237-1.876,9.253h23.737c1.834,0,3.095-.386,3.435-1.843.158-.675.312-1.443.461-2.187.591-2.9,1.182-5.799,1.787-8.778H8.075Z" fill="#b3131b"/><path d="M7.833,4.552c.126-.088.293-.489.102-.656-.061-.051-.158-.07-.298-.047-.13.023-.205.065-.251.135-.079.112-.154.442-.028.563.121.126.396.061.475.005ZM6.023,3.896c-.093.591-.195,1.173-.298,1.755-.661.009-1.34.033-1.978-.014.121-.568.209-1.173.326-1.741h-.712c-.256,1.452-.489,2.923-.773,4.342h.731c.116-.731.223-1.466.372-2.155.624-.014,1.368-.042,1.964.014-.121.721-.27,1.415-.386,2.141h.731c.233-1.471.479-2.932.773-4.342h-.749ZM16.327,5.148c-.568-.228-1.015.158-1.219.521.047-.163.065-.349.102-.521h-.563c-.14,1.07-.34,2.076-.535,3.095h.642c.088-.605.13-1.415.326-1.992.158-.461.577-.852,1.173-.638.009-.177.061-.303.074-.465ZM16.685,7.512c-.061-.154-.074-.405-.061-.596.033-.428.191-.954.433-1.191.335-.326.991-.275,1.517-.088.014-.177.051-.335.074-.507-.861-.14-1.68-.051-2.113.4-.424.447-.703,1.466-.507,2.113.228.754,1.261.796,2.099.507.037-.154.056-.321.088-.475-.456.237-1.326.363-1.531-.163ZM23.872,5.162c-.563-.284-1.038.191-1.219.475.051-.144.056-.34.102-.489h-.563c-.154,1.061-.335,2.094-.549,3.095h.652c.005-.41.084-.712.149-1.117.135-.861.34-1.801,1.34-1.517.033-.144.047-.312.088-.447h0ZM7.181,5.148c-.019.005-.014.023-.014.047-.14,1.052-.33,2.057-.535,3.049h.638c.154-1.061.33-2.099.549-3.095h-.638ZM12.804,5.087c-.461.037-.852.168-1.131.461-.34.358-.614,1.15-.535,1.876.116,1.029,1.396.991,2.425.745.019-.182.061-.335.088-.507-.424.158-1.159.377-1.592.102-.33-.209-.33-.735-.223-1.191.689-.023,1.406-.019,2.099,0,.042-.326.168-.675.061-.996-.149-.419-.666-.531-1.191-.489ZM13.414,6.218h-1.503c.047-.344.358-.726.847-.745.461-.019.791.172.656.745h0ZM10.379,5.148c-.54-.205-1.201.037-1.489.27,0,.009-.005.009-.014.014.005-.005.009-.009.014-.014v-.005c.005-.098.042-.168.047-.27h-.549c-.228,1.527-.503,3.011-.787,4.477h.638c.093-.572.154-1.173.284-1.713.144.563,1.098.456,1.503.237.828-.442,1.466-2.578.354-2.997h0ZM9.872,7.661c-.344.363-1.182.358-1.247-.251-.028-.265.07-.545.121-.819.051-.279.084-.545.135-.787.335-.41,1.326-.461,1.429.223.084.591-.154,1.336-.437,1.634ZM26.25,3.807c-.056.479-.13.945-.223,1.382-1.568-.498-2.532.656-2.513,2.08.005.275.051.549.223.745.298.335,1.15.414,1.578.135.084-.056.168-.154.223-.223.042-.051.107-.186.121-.149-.023.149-.056.289-.061.461h.582c.112-1.606.456-2.974.712-4.431h-.642ZM24.821,7.898c-.433.009-.647-.256-.656-.698-.019-.773.321-1.634,1.01-1.713.321-.037.554.037.787.121-.209.87-.13,2.271-1.14,2.29ZM19.306,5.148c-.033.177-.079.335-.121.507.377-.093,1.555-.386,1.666.121.037.168-.028.344-.074.475-1.061-.102-1.927.074-2.155.833-.154.507.019,1.005.344,1.145.628.27,1.387-.037,1.652-.461-.028.144-.051.293-.047.475h.549c.005-.526.084-.954.163-1.429.07-.405.2-.805.177-1.159-.047-.819-1.401-.531-2.155-.507h0ZM20.344,7.647c-.33.321-1.257.414-1.159-.358.079-.642.777-.777,1.531-.684-.056.349-.121.796-.372,1.043h0Z" fill="#fff"/></svg>