<?xml version="1.0" encoding="UTF-8"?><svg id="c" xmlns="http://www.w3.org/2000/svg" width="19.855" height="15.292" xmlns:xlink="http://www.w3.org/1999/xlink" viewBox="0 0 19.855 15.292"><defs><linearGradient id="d" x1="13.647" y1="8.496" x2="18.451" y2="8.496" gradientUnits="userSpaceOnUse"><stop offset="0" stop-color="#007940"/><stop offset=".228" stop-color="#00873f"/><stop offset=".743" stop-color="#40a737"/><stop offset="1" stop-color="#5cb531"/></linearGradient><linearGradient id="e" x1="13.647" y1="7.652" x2="18.451" y2="7.652" xlink:href="#d"/><linearGradient id="f" y1="6.724" x2="18.451" y2="6.724" xlink:href="#d"/><linearGradient id="g" x1="-75.8" y1="-100.798" x2="-70.877" y2="-100.798" gradientTransform="translate(86.376 -105.752) scale(1.125 -1.125)" gradientUnits="userSpaceOnUse"><stop offset="0" stop-color="#1f286f"/><stop offset=".475" stop-color="#004e94"/><stop offset=".826" stop-color="#0066b1"/><stop offset="1" stop-color="#006fbc"/></linearGradient><linearGradient id="h" x1="-70.399" y1="-100.809" x2="-65.618" y2="-100.809" gradientTransform="translate(86.376 -105.752) scale(1.125 -1.125)" gradientUnits="userSpaceOnUse"><stop offset="0" stop-color="#6c2c2f"/><stop offset=".174" stop-color="#882730"/><stop offset=".573" stop-color="#be1833"/><stop offset=".858" stop-color="#dc0436"/><stop offset="1" stop-color="#e60039"/></linearGradient></defs><path d="M19.855,12.209c0,1.699-1.384,3.083-3.083,3.083H0V3.083C0,1.384,1.384,0,3.083,0h16.773v12.209Z" fill="#fff"/><path d="M14.394,9.078h1.274c.036,0,.121-.012.158-.012.243-.049.449-.267.449-.57,0-.291-.206-.51-.449-.57-.036-.012-.109-.012-.158-.012h-1.274v1.165Z" fill="url(#d)"/><path d="M15.523,1.032c-1.214,0-2.209.983-2.209,2.209v2.294h3.119c.073,0,.158,0,.218.012.704.036,1.226.401,1.226,1.032,0,.498-.352.922-1.007,1.007v.024c.716.049,1.262.449,1.262,1.068,0,.668-.607,1.104-1.408,1.104h-3.422v4.49h3.24c1.214,0,2.209-.983,2.209-2.209V1.032h-3.228Z" fill="url(#e)"/><path d="M16.117,6.724c0-.291-.206-.485-.449-.522-.024,0-.085-.012-.121-.012h-1.153v1.068h1.153c.036,0,.109,0,.121-.012.243-.036.449-.231.449-.522Z" fill="url(#f)"/><path d="M3.313,1.032c-1.214,0-2.209.983-2.209,2.209v5.449c.619.303,1.262.498,1.905.498.765,0,1.177-.461,1.177-1.092v-2.573h1.893v2.561c0,.995-.619,1.808-2.719,1.808-1.274,0-2.27-.279-2.27-.279v4.648h3.24c1.214,0,2.209-.983,2.209-2.209V1.032h-3.228Z" fill="url(#g)"/><path d="M9.418,1.032c-1.214,0-2.209.983-2.209,2.209v2.888c.558-.473,1.529-.777,3.095-.704.837.036,1.736.267,1.736.267v.935c-.449-.231-.983-.437-1.675-.485-1.189-.085-1.905.498-1.905,1.517,0,1.032.716,1.614,1.905,1.517.692-.049,1.226-.267,1.675-.485v.935s-.886.231-1.736.267c-1.566.073-2.537-.231-3.095-.704v5.097h3.24c1.214,0,2.209-.983,2.209-2.209V1.032h-3.24Z" fill="url(#h)"/></svg>