<?xml version="1.0" encoding="UTF-8"?><svg id="c" xmlns="http://www.w3.org/2000/svg" width="23.981" height="18.652" viewBox="0 0 23.981 18.652"><path d="M0,16.653c0,1.103.895,1.998,1.998,1.998h19.984c1.103,0,1.998-.895,1.998-1.998v-.046h-2.569l-1.328-1.461-1.328,1.461h-8.481v-6.82h-2.739l3.401-7.69h3.272l1.17,2.631v-2.631h4.047l.704,1.982.708-1.982h3.143v-.1c0-1.103-.895-1.998-1.998-1.998H1.998C.895,0,0,.895,0,1.998v14.655ZM18.335,15.75l1.757-1.928,1.749,1.928h2.14l-2.831-3.002,2.831-3.002h-2.107l-1.749,1.944-1.728-1.944h-2.14l2.81,3.018-2.806,2.981v-1.378h-3.456v-.924h3.368v-1.345h-3.368v-.933h3.456v-1.378h-5.079v5.962h7.153ZM22.345,12.752l1.636,1.744v-3.468l-1.636,1.724ZM20.833,8.922l1.536-4.188v4.188h1.611V2.956h-2.506l-1.341,3.718-1.328-3.718h-2.548v5.958l-2.631-5.958h-2.132l-2.598,5.966h1.79l.495-1.195h2.744l.5,1.195h3.443v-4.176l1.532,4.176h1.432ZM11.741,6.387l.812-1.953.808,1.953h-1.62Z" fill="#006fcf"/></svg>