<?xml version="1.0" encoding="UTF-8"?><svg id="c" xmlns="http://www.w3.org/2000/svg" width="23.264" height="23.264" viewBox="0 0 23.264 23.264"><path d="M18.904,17.352c0,.254-.172.437-.418.437-.254,0-.418-.194-.418-.437s.164-.437.418-.437c.246,0,.418.194.418.437ZM7.307,16.915c-.265,0-.418.194-.418.437s.153.437.418.437c.243,0,.407-.183.407-.437-.004-.243-.164-.437-.407-.437ZM11.692,16.904c-.201,0-.325.131-.354.325h.713c-.034-.213-.164-.325-.358-.325ZM15.714,16.915c-.254,0-.407.194-.407.437s.153.437.407.437.418-.183.418-.437c0-.243-.164-.437-.418-.437ZM19.665,17.889c0,.011.011.019.011.041,0,.011-.011.019-.011.041-.011.011-.011.019-.019.03-.011.011-.019.019-.041.019-.011.011-.019.011-.041.011-.011,0-.019,0-.041-.011-.011,0-.019-.011-.03-.019-.011-.011-.019-.019-.019-.03-.011-.019-.011-.03-.011-.041,0-.019,0-.03.011-.041,0-.019.011-.03.019-.041.011-.011.019-.011.03-.019.019-.011.03-.011.041-.011.019,0,.03,0,.041.011.019.011.03.011.041.019s.007.022.019.041ZM19.583,17.941c.019,0,.019-.011.03-.011.011-.011.011-.019.011-.03s0-.019-.011-.03c-.011,0-.019-.011-.041-.011h-.06v.131h.03v-.052h.011l.041.052h.03l-.041-.049h0ZM22.378,5.065v13.134c0,.989-.802,1.791-1.791,1.791H2.677c-.989,0-1.791-.802-1.791-1.791V5.065c0-.989.802-1.791,1.791-1.791h17.91c.989,0,1.791.802,1.791,1.791ZM3.274,10.274c0,2.854,2.317,5.168,5.168,5.168,1.015,0,2.011-.306,2.854-.862-2.72-2.213-2.701-6.388,0-8.601-.843-.56-1.84-.862-2.854-.862-2.851-.004-5.168,2.313-5.168,5.157ZM11.632,14.333c2.631-2.052,2.619-6.052,0-8.115-2.619,2.063-2.631,6.067,0,8.115ZM6.322,17.18c0-.325-.213-.537-.548-.548-.172,0-.354.052-.478.243-.09-.153-.243-.243-.455-.243-.142,0-.284.052-.396.201v-.164h-.306v1.369h.306c0-.705-.093-1.127.336-1.127.381,0,.306.381.306,1.127h.295c0-.683-.093-1.127.336-1.127.381,0,.306.373.306,1.127h.306v-.858h-.007ZM7.998,16.669h-.295v.164c-.101-.123-.243-.201-.437-.201-.384,0-.679.306-.679.72,0,.418.295.72.679.72.194,0,.336-.071.437-.201v.172h.295v-1.373ZM9.509,17.624c0-.56-.854-.306-.854-.567,0-.213.444-.179.69-.041l.123-.243c-.351-.228-1.127-.224-1.127.306,0,.534.854.31.854.56,0,.235-.504.216-.772.03l-.131.235c.418.284,1.216.224,1.216-.28h0ZM10.83,17.971l-.082-.254c-.142.078-.455.164-.455-.153v-.619h.489v-.276h-.489v-.418h-.306v.418h-.284v.272h.284v.623c0,.657.646.537.843.407h0ZM11.326,17.471h1.026c0-.604-.276-.843-.649-.843-.396,0-.679.295-.679.72,0,.765.843.892,1.261.53l-.142-.224c-.291.239-.731.216-.817-.183ZM13.531,16.669c-.172-.075-.433-.067-.567.164v-.164h-.306v1.369h.306v-.772c0-.433.354-.377.478-.313l.09-.284h0ZM13.927,17.352c0-.425.433-.563.772-.313l.142-.243c-.433-.34-1.22-.153-1.22.56,0,.739.836.888,1.22.56l-.142-.243c-.343.243-.772.097-.772-.321ZM16.415,16.669h-.306v.164c-.31-.41-1.116-.179-1.116.519,0,.716.836.922,1.116.519v.172h.306v-1.373ZM17.673,16.669c-.09-.045-.41-.108-.567.164v-.164h-.295v1.369h.295v-.772c0-.41.336-.384.478-.313l.09-.284h0ZM19.176,16.113h-.295v.72c-.306-.407-1.116-.19-1.116.519,0,.724.84.918,1.116.519v.172h.295v-1.929h0ZM19.46,13.311v.172h.03v-.172h.071v-.03h-.172v.03h.071ZM19.706,17.93c0-.019,0-.041-.011-.06-.011-.011-.019-.03-.03-.041-.011-.011-.03-.019-.041-.03-.019,0-.041-.011-.06-.011-.011,0-.03.011-.052.011-.019.011-.03.019-.041.03-.019.011-.03.03-.03.041-.011.019-.011.041-.011.06,0,.011,0,.03.011.052,0,.011.011.03.03.041.011.011.019.019.041.03.019.011.041.011.052.011.019,0,.041,0,.06-.011.011-.011.03-.019.041-.03.011-.011.019-.03.03-.041.011-.022.011-.041.011-.052ZM19.826,13.277h-.052l-.06.131-.06-.131h-.052v.201h.03v-.153l.06.131h.041l.052-.131v.153h.041v-.201ZM19.99,10.274c0-2.843-2.317-5.16-5.168-5.16-1.015,0-2.011.306-2.854.862,2.69,2.213,2.731,6.399,0,8.601.843.56,1.847.862,2.854.862,2.851.004,5.168-2.31,5.168-5.164Z"/></svg>