<?xml version="1.0" encoding="UTF-8"?><svg id="c" xmlns="http://www.w3.org/2000/svg" width="43.598" height="9.958" viewBox="0 0 43.598 9.958"><g id="d"><g id="e"><path id="f" d="M20.634,2.22c.526,0,.998.107,1.418.32.419.214.75.523.991.929.242.406.362.894.362,1.463v.171c0,.57-.121,1.057-.362,1.463-.242.406-.572.716-.991.929-.419.214-.892.32-1.418.32s-.999-.107-1.418-.32c-.419-.214-.75-.523-.991-.929-.242-.406-.362-.894-.362-1.463v-.171c0-.57.121-1.057.362-1.463.242-.406.572-.716.991-.929.419-.214.892-.32,1.418-.32ZM33.797,2.22c.526,0,.998.107,1.418.32.419.214.75.523.991.929.242.406.362.894.362,1.463v.171c0,.57-.121,1.057-.362,1.463-.242.406-.572.716-.991.929-.419.214-.892.32-1.418.32s-.999-.107-1.418-.32c-.419-.214-.75-.523-.991-.929-.242-.406-.362-.894-.362-1.463v-.171c0-.57.121-1.057.362-1.463.242-.406.572-.716.991-.929.419-.214.892-.32,1.418-.32ZM15.103,2.285c.412,0,.773.094,1.082.283.309.189.549.449.72.78.171.331.256.717.256,1.159v3.162h-1.343v-3.055c0-.399-.098-.698-.293-.897-.196-.199-.474-.299-.837-.299-.412,0-.732.137-.96.411-.228.274-.341.657-.341,1.148v2.692h-1.343V2.37h1.322v.694h.192c.085-.185.245-.361.48-.529.235-.167.59-.251,1.066-.251ZM29.343.725v1.645h1.45v1.111h-1.45v2.756c0,.214.099.32.299.32h1.023v1.111h-1.493c-.348,0-.631-.108-.848-.326-.217-.217-.325-.507-.325-.871v-2.991h-1.376c-.388.009-.622.155-.842.336-.22.182-.33.461-.33.839v3.012h-1.343V2.37h1.322v.598h.192c.078-.214.216-.357.397-.457.181-.1.385-.141.627-.141h1.355V.725h1.343ZM40.33,2.285c.412,0,.773.094,1.082.283.309.189.549.449.72.78.171.331.256.717.256,1.159v3.162h-1.343v-3.055c0-.399-.098-.698-.293-.897-.196-.199-.474-.299-.837-.299-.412,0-.732.137-.96.411-.228.274-.341.657-.341,1.148v2.692h-1.343V2.37h1.322v.694h.192c.085-.185.245-.361.48-.529.235-.167.59-.251,1.066-.251ZM20.634,3.417c-.412,0-.753.134-1.023.401-.27.267-.405.65-.405,1.148v.107c0,.499.135.881.405,1.148.27.267.611.401,1.023.401s.753-.134,1.023-.401c.27-.267.405-.65.405-1.148v-.107c0-.498-.133-.881-.4-1.148-.267-.267-.61-.401-1.029-.401ZM33.797,3.417c-.412,0-.753.134-1.023.401-.27.267-.405.65-.405,1.148v.107c0,.499.135.881.405,1.148.27.267.611.401,1.023.401s.753-.134,1.023-.401c.27-.267.405-.65.405-1.148v-.107c0-.498-.133-.881-.4-1.148-.267-.267-.61-.401-1.029-.401ZM43.118,2.367l.116.509h.028l.116-.509h.221v.614h-.116v-.509h-.028l-.116.509h-.182l-.116-.509h-.028v.509h-.116v-.614h.221ZM42.814,2.367v.105h-.204v.509h-.116v-.509h-.204v-.105h.525Z" fill="#242424" fill-rule="evenodd"/><path id="g" d="M9.939,4.979c0,2.745-2.229,4.979-4.969,4.979S0,7.724,0,4.979,2.229,0,4.97,0c.757,0,1.476.17,2.119.475l-.825,1.065c-.402-.152-.838-.236-1.293-.236-1.932,0-3.52,1.505-3.658,3.406-.003.038-.005.077-.006.116-.002.05-.003.101-.003.152,0,2.026,1.645,3.674,3.667,3.674s3.667-1.648,3.667-3.674c0-.271-.029-.535-.085-.789l.958-1.236c.276.619.43,1.304.43,2.025" fill="#ffe01a" fill-rule="evenodd"/><path id="h" d="M8.926,1.969l-.837,1.08-2.938,3.792-2.397-2.147.868-.973,1.357,1.215,2.224-2.87.798-1.03c.348.269.659.583.926.934" fill="#242424" fill-rule="evenodd"/></g></g></svg>