<?xml version="1.0" encoding="UTF-8"?><svg id="c" xmlns="http://www.w3.org/2000/svg" width="23.264" height="23.264" viewBox="0 0 23.264 23.264"><polygon points="11.431 9.27 12.732 9.27 12.083 7.702 11.431 9.27"/><path d="M19.637,3.274H3.627c-1.375,0-2.494,1.118-2.494,2.494v11.729c0,1.374,1.119,2.493,2.494,2.493h16.01c1.374,0,2.493-1.119,2.493-2.493V5.768c0-1.375-1.119-2.494-2.493-2.494ZM21.265,15.786l-1.314-1.401,1.314-1.385v2.786ZM18.99,14.381l2.274,2.412h-1.719l-1.405-1.549-1.411,1.549h-5.746v-4.79h4.081v1.107h-2.776v.749h2.706v1.08h-2.706v.742h2.776v1.107l2.254-2.395-2.258-2.425h1.719l1.388,1.562,1.405-1.562h1.692l-2.274,2.412ZM21.265,11.307h-1.294v-3.365l-1.234,3.365h-1.151l-1.231-3.355v3.355h-2.766l-.401-.96h-2.204l-.398.96h-1.438l2.087-4.793h1.713l2.114,4.786v-4.786h2.047l1.067,2.987,1.077-2.987h2.014v4.793ZM21.265,5.825h-2.525l-.569,1.592-.565-1.592h-3.251v2.114l-.94-2.114h-2.629l-2.733,6.178h2.201v5.479h6.813l1.067-1.174,1.067,1.174h2.064v.037c0,.886-.719,1.605-1.605,1.605H3.605c-.886,0-1.605-.719-1.605-1.605V5.745c0-.886.719-1.605,1.605-1.605h16.055c.886,0,1.605.719,1.605,1.605v.08Z"/></svg>