<?xml version="1.0" encoding="UTF-8"?><svg id="c" xmlns="http://www.w3.org/2000/svg" width="33.643" height="11.924" viewBox="0 0 33.643 11.924"><path d="M13.844,11.134v-6.838c0-1.258,1.02-2.278,2.278-2.278l2.019.003c1.255.003,2.27,1.02,2.27,2.275v1.456c0,1.258-1.02,2.278-2.278,2.278h-2.853M20.976,2.016h.876c.516,0,.935.419.935.935v5.108" fill="none" stroke="#939598" stroke-linecap="round" stroke-linejoin="round" stroke-width=".421"/><path d="M22.599,1.225l-.397-.397c-.099-.099-.099-.258,0-.357l.397-.397c.099-.099.259-.099.357,0l.397.397c.099.099.099.258,0,.357l-.397.397c-.099.099-.258.099-.357,0h0Z" fill="#32bcad"/><path d="M24.467,2.012h.869c.447,0,.875.177,1.191.493l2.032,2.032c.263.263.69.263.953,0l2.024-2.024c.316-.316.744-.493,1.191-.493h.706M24.467,8.015h.869c.447,0,.875-.177,1.191-.493l2.032-2.032c.263-.263.69-.263.953,0l2.024,2.024c.316.316.744.493,1.191.493h.706" fill="none" stroke="#939598" stroke-linecap="round" stroke-linejoin="round" stroke-width=".421"/><path d="M8.665,9.313c-.436,0-.846-.17-1.154-.478l-1.667-1.667c-.117-.117-.321-.117-.438,0l-1.673,1.673c-.308.308-.718.478-1.154.478h-.328l2.111,2.111c.659.659,1.728.659,2.387,0l2.117-2.117h-.201Z" fill="#32bcad"/><path d="M2.58,3.418c.436,0,.846.17,1.154.478l1.673,1.673c.12.12.317.121.438,0l1.667-1.667c.308-.308.718-.478,1.154-.478h.201l-2.117-2.117c-.659-.659-1.728-.659-2.387,0l-2.111,2.111h.328Z" fill="#32bcad"/><path d="M10.617,5.175l-1.279-1.279c-.028.011-.059.018-.091.018h-.582c-.301,0-.595.122-.807.335l-1.667,1.667c-.156.156-.361.234-.566.234s-.41-.078-.566-.234l-1.673-1.673c-.212-.213-.507-.335-.807-.335h-.715c-.03,0-.059-.007-.086-.017l-1.284,1.284c-.659.659-.659,1.728,0,2.387l1.284,1.284c.027-.01.055-.017.086-.017h.715c.301,0,.595-.122.807-.335l1.673-1.673c.302-.302.829-.302,1.131,0l1.667,1.666c.212.213.507.335.807.335h.582c.032,0,.063.007.091.018l1.279-1.279c.659-.659.659-1.728,0-2.387h0Z" fill="#32bcad"/><path d="M15.58,10.553c-.094,0-.204.023-.313.048v.417c.075.027.161.041.244.041.209,0,.308-.07.308-.254,0-.173-.081-.251-.239-.251h0ZM15.197,11.327v-.824h.057l.006.036c.097-.023.23-.053.326-.053.078,0,.152.012.214.062.072.059.094.153.094.256,0,.108-.036.209-.134.265-.068.038-.16.054-.242.054-.085,0-.166-.013-.251-.038v.242h-.07Z" fill="#939598"/><path d="M16.419,10.55c-.209,0-.302.066-.302.25,0,.178.092.258.302.258.208,0,.301-.065.301-.248,0-.178-.092-.259-.301-.259h0ZM16.687,11.058c-.069.05-.162.064-.269.064-.109,0-.202-.016-.27-.064-.076-.054-.107-.142-.107-.253,0-.11.031-.199.107-.254.068-.049.161-.064.27-.064.108,0,.199.015.269.064.078.055.108.145.108.253,0,.111-.031.201-.108.254h0ZM16.687,11.058h0Z" fill="#939598"/><polygon points="17.677 11.106 17.444 10.605 17.439 10.605 17.21 11.106 17.146 11.106 16.898 10.503 16.976 10.503 17.182 11.009 17.187 11.009 17.412 10.503 17.476 10.503 17.707 11.009 17.711 11.009 17.913 10.503 17.988 10.503 17.74 11.106 17.677 11.106 17.677 11.106" fill="#939598"/><path d="M18.439,10.549c-.193,0-.259.086-.271.21h.542c-.006-.137-.076-.21-.271-.21h0ZM18.437,11.122c-.116,0-.191-.017-.251-.067-.07-.061-.094-.149-.094-.251,0-.097.032-.199.112-.258.067-.047.149-.061.235-.061.078,0,.167.008.241.059.087.058.104.161.104.278h-.619c.002.124.043.234.277.234.111,0,.215-.018.312-.035v.063c-.1.018-.211.037-.318.037h0Z" fill="#939598"/><path d="M18.986,11.106v-.603h.057l.006.036c.128-.032.188-.053.3-.053h.008v.067h-.017c-.094,0-.152.013-.284.048v.505h-.071Z" fill="#939598"/><path d="M19.767,10.549c-.193,0-.259.086-.271.21h.542c-.006-.137-.076-.21-.271-.21h0ZM19.765,11.122c-.116,0-.191-.017-.251-.067-.07-.061-.094-.149-.094-.251,0-.097.032-.199.112-.258.067-.047.149-.061.235-.061.078,0,.167.008.241.059.087.058.104.161.104.278h-.619c.002.124.043.234.277.234.111,0,.215-.018.312-.035v.063c-.1.018-.211.037-.318.037h0Z" fill="#939598"/><path d="M20.884,10.591c-.075-.028-.161-.041-.244-.041-.209,0-.308.071-.308.254,0,.174.081.251.239.251.094,0,.204-.023.313-.047v-.418h0ZM20.897,11.106l-.006-.036c-.097.023-.23.053-.326.053-.078,0-.152-.011-.214-.062-.072-.059-.094-.153-.094-.255,0-.107.036-.209.134-.264.068-.039.16-.055.244-.055s.165.014.25.038v-.276h.07v.858h-.057Z" fill="#939598"/><path d="M21.988,10.553c-.094,0-.204.023-.313.048v.416c.076.029.161.042.244.042.209,0,.308-.07.308-.254,0-.173-.081-.251-.239-.251h0ZM22.168,11.069c-.068.038-.16.054-.242.054-.09,0-.179-.016-.27-.045l-.004.029h-.048v-.857h.071v.288c.097-.021.227-.05.319-.05.078,0,.152.012.214.062.072.059.094.153.094.256,0,.108-.036.209-.134.265h0Z" fill="#939598"/><path d="M22.395,11.337v-.066c.035.004.067.006.09.006.087,0,.14-.025.189-.124l.023-.048-.315-.603h.081l.27.521h.005l.257-.521h.08s-.339.677-.339.677c-.062.123-.129.164-.252.164-.027,0-.057-.002-.087-.006h0Z" fill="#939598"/><path d="M24.045,10.762h-.234v.211h.235c.161,0,.222-.018.222-.106,0-.094-.084-.105-.223-.105h0ZM24.002,10.419h-.191v.215h.192c.159,0,.222-.019.222-.109,0-.095-.08-.106-.223-.106h0ZM24.365,11.048c-.086.055-.19.057-.38.057h-.357v-.818h.349c.164,0,.264.002.348.053.06.036.084.091.084.162,0,.086-.036.143-.129.182v.005c.105.024.173.078.173.194,0,.079-.029.13-.087.166h0Z" fill="#939598"/><path d="M25.167,10.853c-.07-.006-.142-.01-.217-.01-.123,0-.166.025-.166.081,0,.053.036.081.13.081.079,0,.173-.018.253-.036v-.117h0ZM25.202,11.106l-.005-.036c-.103.025-.222.053-.327.053-.064,0-.134-.008-.183-.044-.045-.032-.067-.085-.067-.146,0-.068.03-.131.101-.164.063-.03.148-.032.226-.032.063,0,.148.004.219.008v-.011c0-.094-.062-.125-.232-.125-.066,0-.146.003-.222.011v-.122c.085-.007.18-.012.259-.012.105,0,.214.008.281.056.069.049.082.117.082.207v.357h-.133Z" fill="#939598"/><path d="M26.122,11.106v-.333c0-.11-.056-.149-.156-.149-.074,0-.167.019-.246.038v.444s-.168,0-.168,0v-.603h.137l.006.038c.106-.027.225-.055.323-.055.074,0,.149.011.207.062.048.043.066.103.066.189v.369h-.167Z" fill="#939598"/><path d="M26.765,11.122c-.078,0-.162-.011-.225-.063-.074-.06-.096-.154-.096-.256,0-.095.031-.199.123-.258.075-.049.168-.06.265-.06.069,0,.137.005.213.012v.129c-.061-.006-.134-.011-.192-.011-.16,0-.235.05-.235.189,0,.13.056.186.188.186.076,0,.166-.014.253-.031v.124c-.094.019-.197.038-.294.038h0Z" fill="#939598"/><path d="M27.557,10.612c-.16,0-.231.05-.231.188s.069.196.231.196c.159,0,.228-.049.228-.186s-.068-.197-.228-.197h0ZM27.846,11.059c-.074.05-.171.063-.289.063-.121,0-.217-.014-.29-.063-.084-.055-.114-.146-.114-.254s.03-.201.114-.256c.073-.049.17-.063.29-.063.119,0,.215.014.289.063.084.055.112.147.112.254,0,.109-.03.201-.112.256h0ZM27.846,11.059h0Z" fill="#939598"/><path d="M28.93,11.122c-.101,0-.211-.017-.294-.085-.098-.081-.128-.207-.128-.342,0-.121.038-.264.166-.348.099-.064.222-.078.346-.078.091,0,.184.006.286.014v.147c-.087-.007-.195-.013-.278-.013-.233,0-.332.088-.332.277,0,.192.092.278.264.278.112,0,.238-.023.364-.049v.146c-.127.025-.259.051-.394.051h0Z" fill="#939598"/><path d="M29.819,10.593c-.14,0-.194.05-.204.142h.406c-.005-.098-.062-.142-.202-.142h0ZM29.794,11.122c-.099,0-.189-.012-.256-.067-.072-.06-.097-.149-.097-.252,0-.092.03-.195.114-.254.074-.053.168-.063.264-.063.086,0,.188.01.262.061.097.068.105.173.106.297h-.573c.004.092.053.152.222.152.105,0,.222-.016.321-.031v.118c-.116.019-.242.039-.363.039h0Z" fill="#939598"/><path d="M30.936,11.106v-.333c0-.11-.056-.149-.156-.149-.074,0-.167.019-.246.038v.444s-.168,0-.168,0v-.603h.137l.006.038c.106-.027.225-.055.323-.055.074,0,.149.011.207.062.048.043.066.103.066.189v.369h-.167Z" fill="#939598"/><path d="M31.583,11.122c-.081,0-.155-.023-.196-.086-.03-.043-.044-.101-.044-.183v-.226h-.122v-.125h.122l.018-.183h.149v.183h.238v.125h-.238v.194c0,.047.004.086.017.115.018.041.057.056.11.056.039,0,.087-.006.121-.012v.121c-.055.011-.118.022-.174.022h0Z" fill="#939598"/><path d="M31.912,11.106v-.603h.137l.006.038c.111-.031.193-.055.299-.055.005,0,.012,0,.021.001v.143c-.019-.001-.042-.001-.058-.001-.082,0-.145.01-.237.031v.445h-.168Z" fill="#939598"/><path d="M32.987,10.853c-.07-.006-.142-.01-.217-.01-.123,0-.166.025-.166.081,0,.053.036.081.13.081.079,0,.173-.018.253-.036v-.117h0ZM33.023,11.106l-.005-.036c-.103.025-.222.053-.327.053-.064,0-.134-.008-.183-.044-.045-.032-.067-.085-.067-.146,0-.068.03-.131.101-.164.063-.03.148-.032.226-.032.063,0,.148.004.219.008v-.011c0-.094-.062-.125-.232-.125-.066,0-.146.003-.222.011v-.122c.085-.007.18-.012.259-.012.105,0,.214.008.281.056.069.049.082.117.082.207v.357h-.133Z" fill="#939598"/><polygon points="33.372 10.248 33.541 10.248 33.541 11.106 33.372 11.106 33.372 10.248 33.372 10.248" fill="#939598"/></svg>