<?xml version="1.0" encoding="UTF-8"?><svg id="c" xmlns="http://www.w3.org/2000/svg" width="33.223" height="10.291" viewBox="0 0 33.223 10.291"><path d="M0,4.214h2.454C2.894,1.879,4.925,0,7.515,0c2.945,0,5.01,2.099,5.01,5.264,0,.338-.034.609-.068.846h-7.921c.372,1.439,1.557,2.285,2.979,2.285,1.219,0,2.132-.474,2.86-1.303l1.456,1.337c-.965,1.1-2.403,1.862-4.316,1.862-2.589,0-4.62-1.845-5.061-4.18H0v-1.896ZM10.426,4.214c-.102-.592-.372-1.134-.762-1.523-.508-.508-1.253-.829-2.149-.829s-1.625.305-2.166.846c-.372.372-.677.88-.829,1.506h5.906ZM13.997.068h2.132v8.124h3.859v2.031h-3.825c-1.405,0-2.166-.762-2.166-2.166V.068ZM20.395,5.145C20.395,2.387,22.646,0,25.624,0,28.265,0,30.329,1.862,30.769,4.215h2.454v1.896h-2.454c-.457,2.335-2.522,4.18-5.145,4.18-2.996,0-5.23-2.37-5.23-5.145ZM25.624,8.293c1.777,0,3.097-1.354,3.097-3.131,0-1.76-1.354-3.165-3.097-3.165-1.777,0-3.097,1.354-3.097,3.148,0,1.744,1.354,3.148,3.097,3.148Z" fill="#003933"/></svg>