<?xml version="1.0" encoding="UTF-8"?><svg id="c" xmlns="http://www.w3.org/2000/svg" width="20.537" height="17.644" xmlns:xlink="http://www.w3.org/1999/xlink" viewBox="0 0 20.537 17.644"><defs><mask id="d" x="0" y="0" width="20.537" height="17.644" maskUnits="userSpaceOnUse"><g id="e"><path id="f" d="M0,0h20.537v17.643H0V0Z" fill="#fff" fill-rule="evenodd"/></g></mask><mask id="g" x="0" y="0" width="18.183" height="17.644" maskUnits="userSpaceOnUse"><g id="h"><path id="i" d="M0,0h18.183v17.643H0V0Z" fill="#fff" fill-rule="evenodd"/></g></mask></defs><g mask="url(#d)"><path d="M8.953,17.644c-4.911.022-8.953-3.931-8.953-8.745C0,3.638,4.042,0,8.953,0h2.302c4.853,0,9.282,3.636,9.282,8.899,0,4.811-4.429,8.745-9.282,8.745h-2.302Z" fill="#004c97" fill-rule="evenodd"/></g><g mask="url(#g)"><path d="M8.953,17.644c-4.911.022-8.953-3.931-8.953-8.745C0,3.638,4.042,0,8.953,0h.129c4.852,0,9.101,3.636,9.101,8.899,0,4.811-4.248,8.745-9.101,8.745h-.129Z" fill="#004c97" fill-rule="evenodd"/></g><path d="M8.973.73c-4.488.001-8.124,3.616-8.124,8.077s3.636,8.074,8.124,8.074c4.488,0,8.125-3.615,8.127-8.074-.001-4.461-3.639-8.076-8.127-8.077" fill="#fefefe" fill-rule="evenodd"/><path d="M7.128,13.582V4.029c-1.931.739-3.301,2.597-3.306,4.777.005,2.179,1.375,4.038,3.306,4.775M14.124,8.806c-.004-2.181-1.375-4.041-3.309-4.778v9.556c1.933-.738,3.305-2.596,3.308-4.778" fill="#004c97" fill-rule="evenodd"/></svg>