<?xml version="1.0" encoding="UTF-8"?><svg id="c" xmlns="http://www.w3.org/2000/svg" width="48.489" height="8.859" viewBox="0 0 48.489 8.859"><path d="M37.384,3.399c-.116-.235-.281-.429-.495-.582-.215-.153-.473-.267-.776-.342-.128-.032-.385-.055-.651-.07-.457-.026-.842.337-.842.794v.473c.08-.005.159-.013.241-.013.327,0,.577.043.751.128.174.085.26.226.26.424v.072l-1.338.143c-.586.061-1.018.218-1.297.47-.279.252-.419.613-.419,1.083,0,.279.056.524.169.735.112.211.272.385.48.521.208.136.456.239.746.307.289.068.615.102.975.102.803,0,1.427-.133,1.869-.398.136-.082.254-.179.352-.291.099-.112.148-.257.148-.434v-2.288c0-.32-.058-.598-.174-.833ZM35.883,6.239s-.001.005-.004.007c-.068.04-.171.071-.308.095-.14.024-.267.036-.383.036-.252,0-.431-.042-.536-.128-.106-.085-.158-.196-.158-.332s.061-.238.184-.306c.123-.068.279-.109.47-.123l.727-.061s.008.003.008.008v.804Z" fill="#001142"/><path d="M19.798,7.251c.057.043.13.072.218.087.144.025.319.033.515.025.092-.004.185-.016.275-.031.059-.01.111-.018.158-.026.004,0,.006-.004.006-.007v-3.989c0-.144-.017-.258-.051-.339-.031-.074-.073-.13-.127-.17-.057-.043-.13-.072-.218-.087-.145-.025-.319-.033-.515-.025-.092.004-.184.016-.275.031-.059.01-.111.018-.158.026-.004,0-.006.004-.006.007v3.989c0,.144.017.258.051.339.031.074.073.13.127.171Z" fill="#001142"/><path d="M18.56,3.736c-.107-.239-.26-.447-.453-.619-.196-.174-.433-.313-.705-.413-.274-.101-.583-.152-.919-.152-.298,0-.594.047-.881.139-.28.09-.532.232-.75.422-.216.188-.394.434-.528.731-.134.297-.203.66-.203,1.08,0,.428.069.804.204,1.119.134.312.32.575.553.779.235.206.514.364.831.467.323.106.679.159,1.059.159.228,0,.476-.02.738-.059.25-.037.476-.11.674-.215.223-.117.327-.28.327-.514,0-.101-.028-.195-.084-.288-.038-.062-.08-.114-.127-.157-.151.077-.331.146-.539.206-.265.076-.549.115-.845.115-.328,0-.624-.063-.881-.188-.279-.135-.467-.343-.558-.618l-.072-.217.227-.034,2.523-.378c.191-.028.338-.09.437-.184.09-.085.134-.214.134-.391,0-.284-.054-.55-.162-.789ZM17.311,4.429l-1.747.286-.238.039.015-.241c.008-.126.034-.252.077-.374.046-.128.115-.246.206-.349.092-.105.212-.191.356-.257.144-.066.314-.099.504-.099.305,0,.545.089.712.264.157.165.249.338.276.513l.028.188-.187.031Z" fill="#001142"/><path d="M12.387,2.717v-.193h1.401c.139,0,.243-.037.319-.112.073-.073.112-.222.112-.431,0-.117-.016-.231-.048-.339-.018-.062-.038-.117-.059-.164h-2.349c-.242,0-.425.065-.558.199-.134.134-.199.317-.199.558v4.443c0,.153.016.275.049.361.028.075.067.13.119.169.058.044.134.075.223.093.106.021.233.032.376.032.147,0,.299-.01.451-.029.076-.01.136-.019.184-.027v-2.191h.185c.367,0,.664-.297.664-.664v-.353s-.003-.008-.008-.008h-.862v-1.347Z" fill="#001142"/><path d="M20.295.407c-.234,0-.415.068-.552.208-.138.141-.205.311-.205.519s.067.378.205.519c.137.14.318.208.552.208s.415-.068.552-.208c.138-.141.205-.311.205-.519s-.067-.378-.205-.519c-.137-.14-.318-.208-.552-.208Z" fill="#001142"/><path d="M24.131,3.636c.149-.028.303-.05.458-.064.113-.01.225-.017.334-.02.02-.049.037-.102.052-.159.011-.04.017-.084.019-.126.012-.249-.053-.417-.198-.513-.158-.104-.383-.157-.67-.157-.187,0-.376.015-.563.044-.187.029-.371.07-.547.122-.176.052-.341.113-.492.18-.144.064-.265.136-.361.214-.089.072-.154.151-.201.24-.043.084-.065.19-.065.315v3.064c0,.144.017.258.051.339.031.074.073.13.127.171.057.042.13.072.218.087.108.019.233.028.371.028.147,0,.291-.01.428-.029.063-.009.114-.017.156-.024v-3.452l.112-.052c.099-.046.22-.086.357-.12.127-.031.266-.061.413-.089Z" fill="#001142"/><path d="M23.981,5.978c0,.246.049.463.146.645.098.184.234.331.416.45.188.123.418.218.684.28.274.064.587.097.931.097.764,0,1.36-.125,1.77-.371.118-.071.221-.156.307-.253.067-.077.1-.177.1-.307v-2.288c0-.289-.052-.54-.154-.747-.103-.208-.245-.375-.435-.511-.194-.138-.433-.243-.711-.312-.1-.025-.327-.048-.623-.065-.012,0-.023,0-.035,0-.329,0-.596.267-.596.595v.277c.016,0,.032,0,.048,0,.36,0,.633.048.836.147.241.118.368.325.368.597v.245l-.172.018-1.338.143c-.542.057-.942.198-1.189.421-.239.216-.355.523-.355.94ZM25.553,5.442c.147-.081.332-.131.55-.146l.733-.061.209-.017v1.136l-.094.056c-.09.054-.213.094-.378.122-.149.026-.289.038-.416.038-.3,0-.515-.056-.657-.17-.15-.121-.23-.288-.23-.482,0-.205.101-.373.283-.475Z" fill="#001142"/><path d="M38.397.833s.002-.006.005-.007c.068-.02.176-.042.322-.065.15-.024.303-.036.46-.036.15,0,.284.01.403.031.119.02.22.061.301.123.082.061.143.145.184.25.041.106.061.243.061.414v.99c0,.005.005.009.01.007.166-.066.325-.112.475-.139.153-.027.322-.041.506-.041.327,0,.637.058.929.174.293.116.552.284.776.506.225.221.402.495.531.822.129.327.194.705.194,1.134,0,.443-.066.829-.199,1.159-.133.33-.318.604-.557.822-.239.218-.53.383-.873.495-.344.112-.724.169-1.139.169-.45,0-.831-.053-1.144-.158-.313-.105-.579-.237-.797-.393-.3-.211-.45-.483-.45-.817V.833ZM40.787,6.272c.313,0,.557-.107.73-.322.174-.215.261-.533.261-.955,0-.429-.089-.749-.266-.96-.177-.211-.415-.317-.715-.317-.136,0-.254.014-.352.041-.097.027-.203.067-.317.12-.003.001-.005.004-.005.007v2.217s.001.005.004.007c.074.047.163.085.267.115.106.031.236.046.393.046Z" fill="#001142"/><path d="M48.489,5.996c0,.518-.194.923-.582,1.216-.388.293-.96.439-1.716.439-.286,0-.552-.02-.797-.061-.245-.041-.454-.104-.628-.189-.174-.085-.31-.192-.409-.322-.099-.129-.148-.282-.148-.46,0-.163.034-.301.102-.414.067-.111.147-.203.241-.278.002-.002.006-.002.008,0,.196.108.421.204.675.289.255.085.55.128.884.128.211,0,.373-.031.485-.092.112-.061.169-.143.169-.245,0-.095-.041-.17-.122-.225-.082-.054-.218-.099-.409-.133l-.307-.061c-.592-.116-1.033-.298-1.323-.546-.289-.248-.434-.604-.434-1.067,0-.252.055-.48.163-.684.109-.204.262-.375.46-.511.197-.136.434-.242.71-.317.276-.075.58-.112.914-.112.252,0,.488.019.71.056.221.038.414.094.577.169.163.075.293.172.388.291.095.119.143.261.143.424,0,.157-.029.291-.087.403-.057.111-.129.203-.216.277-.002.002-.006.003-.009,0-.055-.033-.135-.068-.241-.105-.109-.037-.228-.071-.358-.102-.129-.031-.261-.056-.393-.077-.133-.02-.254-.031-.362-.031-.225,0-.398.026-.521.077s-.184.131-.184.24c0,.075.034.136.102.184.068.048.197.092.388.133l.317.071c.654.15,1.118.356,1.394.618.276.262.414.601.414,1.016Z" fill="#001142"/><path d="M31.826,6.067h-.961s-.008-.003-.008-.008V2.033c0-.177-.021-.32-.061-.429-.041-.109-.102-.194-.184-.255-.082-.061-.182-.104-.301-.128-.119-.024-.257-.036-.414-.036-.15,0-.306.012-.47.036-.159.023-.277.042-.352.055-.004,0-.006.004-.006.007v5.275c0,.293.085.525.255.695.17.17.402.255.695.255h1.336c.385,0,.696-.312.696-.696v-.736s-.222-.008-.226-.008Z" fill="#001142"/><path d="M6.215,0h-3.571C1.184,0,0,1.184,0,2.644v1.786c0,.043.001.086.003.127.068,2.373,2.066,4.303,4.454,4.303,2.427,0,4.402-1.987,4.402-4.429v-1.786c0-1.46-1.184-2.644-2.644-2.644ZM4.138,6.323c.519-.449.853-1.108.867-1.843.014-.704.515-1.326,1.215-1.394.805-.079,1.487.554,1.487,1.344,0,1.807-1.458,3.277-3.25,3.277-.408,0-.804-.073-1.174-.212-.325-.123-.315-.597.015-.705.273-.089.569-.233.839-.467ZM3.853,4.442c-.007.761-.646,1.373-1.416,1.336-.729-.035-1.285-.673-1.285-1.403v-1.732c0-.824.668-1.492,1.492-1.492h3.578c.1,0,.198.01.292.029.445.09.379.747-.075.746-.027,0-.054,0-.082,0-1.387-.004-2.49,1.128-2.503,2.516Z" fill="#001142"/></svg>