<?xml version="1.0" encoding="UTF-8"?><svg id="c" xmlns="http://www.w3.org/2000/svg" width="23.264" height="23.264" viewBox="0 0 23.264 23.264"><path d="M19.16,9.623l-5.518-5.519c-.535-.535-1.249-.83-2.01-.83s-1.474.295-2.009.83l-5.519,5.518c-.535.535-.83,1.249-.83,2.009s.295,1.474.83,2.009l5.519,5.519c.535.535,1.249.83,2.009.83s1.474-.295,2.009-.83l5.519-5.518c1.108-1.108,1.108-2.911,0-4.019ZM7.681,15.75c.567,0,1.122-.23,1.522-.631l2.215-2.215c.058-.058.134-.09.213-.09.079,0,.155.032.213.09l2.215,2.215c.407.407.948.631,1.523.631h.005l-2.679,2.678c-.342.342-.796.531-1.277.531s-.935-.189-1.277-.531l-2.678-2.678h.004ZM11.632,11.783c-.358,0-.694.138-.945.389l-2.215,2.215c-.211.212-.491.328-.791.328h-1.039l-1.806-1.806c-.343-.343-.531-.796-.531-1.277s.189-.935.531-1.277l1.805-1.805h1.04c.299,0,.58.116.79.327l2.215,2.216c.251.251.587.389.945.389s.694-.138.945-.389l2.215-2.215c.212-.211.493-.328.791-.328h1.039l1.806,1.806c.343.343.531.796.531,1.277s-.189.935-.531,1.277l-1.805,1.805h-1.04c-.299,0-.58-.116-.791-.328l-2.215-2.215c-.251-.251-.586-.389-.944-.389ZM15.582,7.514c-.575,0-1.116.224-1.523.63l-2.215,2.216c-.058.058-.134.09-.213.09s-.155-.032-.213-.09l-2.215-2.215c-.401-.401-.956-.631-1.522-.631h-.005l2.679-2.678c.343-.343.796-.531,1.277-.531s.935.189,1.278.531l2.677,2.678h-.004Z"/></svg>