<?xml version="1.0" encoding="UTF-8"?><svg id="c" xmlns="http://www.w3.org/2000/svg" width="27.433" height="8.859" xmlns:xlink="http://www.w3.org/1999/xlink" viewBox="0 0 27.433 8.859"><defs><linearGradient id="e" x1="7968.644" y1="7973.175" x2="7996.075" y2="7973.175" gradientTransform="translate(-991.777 -987.912) scale(.124)" gradientUnits="userSpaceOnUse"><stop offset="0" stop-color="#161b62"/><stop offset="1" stop-color="#00279b"/></linearGradient></defs><g id="d"><path id="f" d="M13.584.158l-1.832,8.567h-2.217L11.368.158h2.216ZM22.91,5.69l1.167-3.215.671,3.215h-1.838ZM25.385,8.725h2.048L25.645.158h-1.893c-.426,0-.785.247-.943.628l-3.325,7.939h2.327l.463-1.28h2.844l.268,1.28ZM19.598,5.93c.011-2.264-3.127-2.389-3.106-3.396.006-.31.3-.638.939-.721.318-.041,1.191-.072,2.187.383l.388-1.817c-.531-.192-1.22-.379-2.073-.379-2.19,0-3.733,1.164-3.745,2.833-.014,1.233,1.1,1.922,1.942,2.331.863.42,1.152.688,1.149,1.065-.006.574-.689.828-1.327.837-1.114.02-1.762-.3-2.276-.539l-.403,1.876c.517.237,1.473.443,2.465.455,2.33.002,3.854-1.15,3.86-2.929M10.417.158l-3.591,8.567h-2.343L2.715,1.888c-.108-.422-.202-.575-.528-.755C1.656.845.775.574,0,.405l.055-.247h3.771c.481,0,.913.32,1.023.873l.933,4.958L8.086.157h2.331" fill="url(#e)"/></g></svg>