<?xml version="1.0" encoding="UTF-8"?><svg id="c" xmlns="http://www.w3.org/2000/svg" width="23.264" height="23.264" viewBox="0 0 23.264 23.264"><polygon points="5.87 10.25 3.83 10.25 3.83 8.144 2.587 8.144 2.587 13.621 3.83 13.621 3.83 11.33 5.87 11.33 5.87 13.621 7.106 13.621 7.106 8.144 5.87 8.144 5.87 10.25"/><circle cx="8.361" cy="8.56" r=".635"/><path d="M20.417,9.558c-.382,0-.87.244-1.073.82h-.031l-.041-.732h-1.064c.016.341.031.723.031,1.308v2.666h1.236v-2.015c0-.097.009-.194.025-.275.081-.382.391-.626.845-.626.138,0,.244.016.332.031v-1.161c-.091-.016-.147-.016-.26-.016Z"/><path d="M10.828,10.225c-.019-.194-.041-.388-.063-.582h-1.061c.034,1.008.038,2.047.034,3.055-.51,0-.742-.397-.742-.814v-2.241h-1.271v2.241c0,.908.632,1.778,2.006,1.784-.003.526-.006,1.039-.006,1.527h1.271c0-.51,0-1.02-.006-1.527h.601c2.585,0,2.397-2.504,1.85-3.377-.532-.848-2.112-1.067-2.613-.066ZM11.591,12.694h-.62c-.003-.128-.013-.26-.009-.391-.006-.61-.147-1.778.735-1.778.767,0,.798.939.798,1.355s-.282.814-.904.814Z"/><path d="M16.073,9.555c-1.38,0-2.006,1.114-2.006,2.122,0,1.242.773,2.025,2.122,2.025.535,0,1.033-.081,1.44-.244l-.163-.836c-.332.106-.676.163-1.099.163-.576,0-1.08-.244-1.12-.754h2.557v-.003c.016-.091.041-.275.041-.488,0-.983-.488-1.984-1.771-1.984ZM15.234,11.183c.031-.332.244-.804.764-.804.57,0,.698.504.698.804h-1.462Z"/></svg>