<?xml version="1.0" encoding="UTF-8"?><svg id="c" xmlns="http://www.w3.org/2000/svg" width="23.264" height="23.264" viewBox="0 0 23.264 23.264"><path d="M8.18,11.636c0,2.877,4.037,2.746,6.157,2.209v-1.056c-1.776.922-4.011.821-4.011-1.157s2.231-2.075,4.011-1.164v-1.045c-2.366-.597-6.157-.556-6.157,2.213Z"/><path d="M5.55,9.255c0,2.504.399,4.093-1.336,4.093-.728,0-1.448-.213-2.134-.552v1.045c1.119.31,2.537.31,2.537.31,3.653,0,3.06-1.78,3.06-4.895h-2.127Z"/><path d="M19.766,11.576v-.03c.728-.101,1.131-.578,1.131-1.127,0-.709-.586-1.119-1.381-1.157,0,0,.235-.011-4.489-.011v4.757h4.578c.907.004,1.578-.481,1.578-1.239,0-.69-.616-1.138-1.418-1.194ZM16.986,9.99c1.537,0,1.437.007,1.437.007.272.049.496.272.496.597,0,.328-.224.541-.496.59-.045.015-.123.011-1.437.011v-1.205ZM18.583,13.218c-.104.026-.119.019-1.597.019v-1.306c1.474,0,1.492-.007,1.597.019.28.056.504.31.504.634,0,.336-.224.578-.504.634Z"/></svg>