<?xml version="1.0" encoding="UTF-8"?><svg id="a" xmlns="http://www.w3.org/2000/svg" viewBox="0 0 23 23"><path d="m22.26,3.63c-.25-.33-.63-.52-1.05-.52H5.23c-.37-.81-1.17-1.35-2.09-1.35h-1.77c-.5,0-.9.4-.9.9s.4.9.9.9h1.77c.24,0,.44.16.49.39l2.35,10.54c.24,1.06,1.17,1.79,2.25,1.79h11.12c.5,0,.9-.4.9-.9s-.4-.9-.9-.9h-11.12c-.23,0-.44-.17-.49-.39l-.35-1.58h11.36c.91,0,1.71-.61,1.96-1.48l1.77-6.25c.11-.4.03-.82-.22-1.15Zm-3.29,6.91c-.03.1-.12.17-.23.17H6.98l-1.3-5.8h14.89l-1.6,5.63Z" style="stroke-width:0px;"/><path d="m7.51,17.73c-.97,0-1.75.79-1.75,1.75s.79,1.75,1.75,1.75,1.75-.79,1.75-1.75-.79-1.75-1.75-1.75Z" style="stroke-width:0px;"/><circle cx="18.5" cy="19.49" r="1.75" style="stroke-width:0px;"/></svg>