<?xml version="1.0" encoding="UTF-8"?><svg id="a" xmlns="http://www.w3.org/2000/svg" viewBox="0 0 23 23"><path d="m22.61,11.28c-.01-.06-.01-.12-.04-.18l-.37-8.52c-.18-1.31-1.21-1.83-2.22-1.24,0,0-2.29,1.32-2.29,1.32-.64-1.32-2.28-1.84-3.52-1.1,0,0-3.24,1.87-3.24,1.87-2.48-2.65-6.88-.11-5.82,3.36l-3.6,2.08c-1.2.69-1.61,2.22-.92,3.42l4.82,8.35c.69,1.21,2.24,1.6,3.42.92.48-.28,8.37-4.83,9.11-5.26l-.99.57,4.55-2.63c1.05-.61,1.49-1.86,1.12-2.96Zm-2.19-8.11l.2,4.56-2.02-3.51,1.83-1.05Zm-12.84,1.18c.55-.32,1.2-.28,1.7.03l-2.52,1.46c-.02-.59.27-1.17.82-1.49Zm13.34,7.91c-.03.1-.11.3-.33.43l-12.67,7.31c-.32.19-.77.08-.96-.26,0,0-4.82-8.35-4.82-8.35-.19-.41-.1-.7.26-.96,0,0,12.67-7.31,12.67-7.31.11-.06.23-.09.35-.09.25,0,.48.13.61.35l4.82,8.35c.13.22.1.43.07.53Z" style="stroke-width:0px;"/></svg>