<?xml version="1.0" encoding="UTF-8"?><svg id="a" xmlns="http://www.w3.org/2000/svg" viewBox="0 0 23 23"><path d="m11.5.25c.51,0,.92.41.92.92,0,.13.1.23.23.23h.86c.51,0,.92.41.92.92v1.58c10.07,3.82,8.18,18.51-2.93,18.85C.4,22.4-1.49,7.72,8.57,3.9c0,0,0-1.58,0-1.58,0-.51.41-.92.92-.92h.86c.13,0,.23-.1.23-.23,0-.51.41-.92.92-.92m-5.89,8.51h11.79c.19,0,.3-.23.18-.37-2.92-3.91-9.23-3.91-12.15,0-.12.14,0,.38.18.37m-1.42,6.32c.06,0,.12-.02.16-.07l1.79-1.79s1.76,1.85,1.79,1.69c.01.16,1.75-1.69,1.79-1.69.04.01,1.75,1.84,1.79,1.69.02.16,1.75-1.68,1.79-1.69.04,0,1.76,1.85,1.79,1.69.01.16,1.75-1.69,1.79-1.69l1.79,1.79c.06.06.15.08.23.06.39-.3.31-1.42.36-1.9,0-.82-.13-1.63-.39-2.42-.03-.09-.12-.16-.22-.16H4.37c-.1,0-.19.06-.22.16-.26.79-.39,1.6-.39,2.42,0,.56.07,1.15.2,1.73.02.1.12.18.22.18m10.89,2.52c-.19-.13-1.62-1.74-1.79-1.69-.02-.16-1.75,1.68-1.79,1.69-.04,0-1.76-1.85-1.79-1.69-.16-.05-1.61,1.57-1.79,1.69-.16-.11-1.64-1.76-1.79-1.69-.15-.06-1.05,1.01-1.17,1.07-.08.08-.09.19-.03.28,1.43,2.28,3.88,3.65,6.56,3.65s5.13-1.36,6.56-3.65c.06-.09.04-.21-.03-.28-.11-.06-1.03-1.14-1.17-1.07-.16-.05-1.61,1.56-1.79,1.69" style="stroke-width:0px;"/></svg>