<?xml version="1.0" encoding="UTF-8"?><svg id="a" xmlns="http://www.w3.org/2000/svg" viewBox="0 0 23 23"><path d="m11.5,1.19C5.8,1.19,1.19,5.8,1.19,11.5s4.62,10.31,10.31,10.31,10.31-4.62,10.31-10.31S17.2,1.19,11.5,1.19Zm0,15.47c-.71,0-1.29-.58-1.29-1.29s.58-1.29,1.29-1.29,1.29.58,1.29,1.29-.58,1.29-1.29,1.29Zm2.27-5.56l-1.3.75c0,.52-.44.95-.97.95s-.97-.43-.97-.97v-.54c0-.35.19-.66.49-.84l1.78-1.02c.19-.11.31-.31.31-.53,0-.34-.27-.61-.61-.61h-2.35c-.14,0-.26.08-.3.21l-.02.05c-.18.5-.73.77-1.23.59-.5-.18-.77-.73-.59-1.23l.02-.05h0c.32-.9,1.17-1.51,2.13-1.51h2.35c1.41,0,2.54,1.14,2.54,2.54,0,.91-.49,1.75-1.28,2.21Z" style="stroke-width:0px;"/></svg>