<?xml version="1.0" encoding="UTF-8"?><svg id="a" xmlns="http://www.w3.org/2000/svg" viewBox="0 0 23 23"><path d="m19.88,11.5c0-4.63-3.75-8.38-8.38-8.38S3.12,6.87,3.12,11.5s3.75,8.38,8.38,8.38,8.38-3.75,8.38-8.38Zm-18.69,0C1.19,5.8,5.8,1.19,11.5,1.19s10.31,4.62,10.31,10.31-4.62,10.31-10.31,10.31S1.19,17.2,1.19,11.5Zm6.84-3.65c.32-.9,1.17-1.5,2.13-1.5h2.35c1.41,0,2.54,1.14,2.54,2.54,0,.91-.49,1.75-1.28,2.21l-1.3.75c0,.52-.44.95-.97.95s-.97-.43-.97-.97v-.54c0-.35.19-.66.49-.84l1.78-1.02c.19-.11.31-.31.31-.53,0-.34-.27-.61-.61-.61h-2.35c-.14,0-.26.08-.3.21l-.02.05c-.18.5-.73.77-1.23.59s-.77-.73-.59-1.23l.02-.05h0Zm2.18,7.52c0-.71.58-1.29,1.29-1.29s1.29.58,1.29,1.29-.58,1.29-1.29,1.29-1.29-.58-1.29-1.29Z" style="stroke-width:0px;"/></svg>