<?xml version="1.0" encoding="UTF-8"?><svg id="a" xmlns="http://www.w3.org/2000/svg" viewBox="0 0 23 23"><path d="m14.29,14.67s-4.35,0-4.35,0c-1.23.02-1.23,1.86,0,1.88,0,0,4.35,0,4.35,0,1.23-.02,1.23-1.86,0-1.88Z" style="stroke-width:0px;"/><path d="m20.25,2.75H2.75C1.37,2.75.25,3.87.25,5.25v12.5c0,1.38,1.12,2.5,2.5,2.5h17.5c1.38,0,2.5-1.12,2.5-2.5V5.25c0-1.38-1.12-2.5-2.5-2.5ZM2.75,4.62h17.5c.34,0,.62.28.62.62v1.25H2.12v-1.25c0-.34.28-.62.62-.62Zm17.5,13.75H2.75c-.34,0-.62-.28-.62-.62v-7.5h18.75v7.5c0,.34-.28.62-.62.62Z" style="stroke-width:0px;"/><path d="m6.78,14.67s-1.86,0-1.86,0c-1.23.02-1.23,1.86,0,1.88,0,0,1.86,0,1.86,0,1.23-.02,1.23-1.86,0-1.88Z" style="stroke-width:0px;"/></svg>