<?xml version="1.0" encoding="UTF-8"?><svg id="a" xmlns="http://www.w3.org/2000/svg" viewBox="0 0 23 23"><path d="m21.32,8.14c-.34-.31-.52-.76-.5-1.21.05-1.27-.44-2.51-1.34-3.41-.9-.9-2.14-1.38-3.41-1.34-.46.01-.9-.17-1.22-.5-1.72-1.93-4.99-1.93-6.71,0-.31.34-.75.52-1.21.5-2.58-.15-4.89,2.16-4.75,4.75.02.46-.17.9-.5,1.21-1.93,1.72-1.93,4.99,0,6.71.34.31.52.76.5,1.21-.09,1.87,1.09,3.7,2.83,4.4.98.56,2.32,0,3.13.85,1.72,1.93,4.99,1.93,6.71,0,.31-.34.75-.52,1.21-.5,1.27.05,2.51-.44,3.41-1.34.9-.9,1.39-2.14,1.34-3.41-.02-.46.17-.9.5-1.21,1.93-1.72,1.93-4.99,0-6.71Zm-1.2,5.42c-.71.66-1.1,1.6-1.06,2.57.09,1.59-1.33,3.01-2.92,2.92-.97-.03-1.91.35-2.57,1.07-.54.58-1.27.9-2.06.9-.79,0-1.52-.32-2.06-.9-.66-.71-1.6-1.1-2.57-1.06-1.59.09-3.01-1.33-2.92-2.92.04-.97-.35-1.91-1.06-2.57-1.19-1.06-1.19-3.07,0-4.13.71-.66,1.1-1.6,1.06-2.57-.03-.79.26-1.53.82-2.09.56-.56,1.3-.85,2.09-.82.97.03,1.91-.35,2.57-1.07,1.06-1.19,3.07-1.19,4.13,0,.66.71,1.6,1.1,2.57,1.06.79-.03,1.54.27,2.09.82.56.56.85,1.3.82,2.09-.04.97.35,1.91,1.06,2.57,1.19,1.06,1.19,3.07,0,4.13Z" style="stroke-width:0px;"/><path d="m16.2,6.79c-.34-.34-.9-.34-1.25,0L6.8,14.96c-.34.34-.34.9,0,1.25s.9.34,1.25,0l8.14-8.18c.34-.34.34-.9,0-1.25Z" style="stroke-width:0px;"/><path d="m9.75,8.2c-.04-2.19-3.3-2.19-3.33,0,.04,2.19,3.3,2.19,3.33,0Z" style="stroke-width:0px;"/><path d="m14.92,13.14c-2.19.04-2.19,3.3,0,3.33,2.19-.04,2.19-3.3,0-3.33Z" style="stroke-width:0px;"/></svg>