<?xml version="1.0" encoding="UTF-8"?><svg id="a" xmlns="http://www.w3.org/2000/svg" viewBox="0 0 23 23"><path d="M15.9,6.6c.2-.2.9.5,1,.6.4.3.9.2,1.2,0l1.8-1.8c.3-.3.4-.9,0-1.3,0,0-1.2-1.3-2-2.2C16.7.2,11.4.2,11.5.3c.2,0-5.5,0-6.6,1.7-.8.9-2,2.2-2,2.2-.3.4-.3.9,0,1.3l1.8,1.8c.3.3.8.3,1.2,0,0,0,.8-.7.9-.6,0,0,0,0,.1,0,.5.6.6.8.6.8.1.2.3.6-.1,1.4-.7,1.3-2.9,5.4-3.3,9.2-.1,1.6-.2,3.2.7,3.6,2.2,1.4,4.1,1.4,6.9,0,3-1.5,5.2-.1,5.3,0,1.7.7,1.7-1.5,1.6-3.6-.4-3.7-2.5-7.8-3.3-9.2-.4-.7-.3-1.2-.1-1.4,0,0,.1-.2.6-.8ZM17,19.6c-1.2-.4-3.4-.8-5.9.5-3.1,1.5-3.7.9-5.1.1,0-.2,0-.7,0-1.3,1.9.9,3.5.6,5.9-.5,2.5-1.2,4.5-.5,5.1-.2,0,.5,0,1,0,1.4ZM14.5,5.5c-.5.6-.7.9-.7,1-.3.6-.7,1.7.1,3.1,1.3,2.5,2.2,4.6,2.7,6.5-1.3-.4-3.2-.5-5.5.6-2.9,1.4-3.7.9-4.9.3.4-2,1.4-4.5,2.9-7.4.8-1.5.4-2.5.1-3.1,0-.1-.2-.4-.7-1-.7-.9-2.1-1-2.9-.2l-.7-.6c.7-.7,1.3-1.8,2.4-2.1,2.3-.6,4.2-.5,4.3-.5,0,0,1.9,0,4.4.6.9.3,1.5,1.4,2.2,2l-.7.6c-.8-.8-2.3-.7-2.9.2Z" style="stroke-width:0px;"/></svg>