<?xml version="1.0" encoding="UTF-8"?><svg id="b" xmlns="http://www.w3.org/2000/svg" width="23" height="23" viewBox="0 0 23 23"><path d="M21.708,20.292l-5.54-5.544c1.143-1.448,1.832-3.271,1.832-5.254C18,4.806,14.186.993,9.5.993S1,4.806,1,9.493s3.813,8.5,8.5,8.5c1.983,0,3.806-.688,5.254-1.832l5.54,5.544c.195.195.451.293.707.293s.512-.098.707-.293c.391-.39.391-1.023,0-1.414ZM3,9.493c0-3.584,2.916-6.5,6.5-6.5s6.5,2.916,6.5,6.5-2.916,6.5-6.5,6.5-6.5-2.916-6.5-6.5Z"/><path d="M13,8.5h-2.5v-2.5c0-.553-.447-1-1-1s-1,.447-1,1v2.5h-2.5c-.553,0-1,.447-1,1s.447,1,1,1h2.5v2.5c0,.553.447,1,1,1s1-.447,1-1v-2.5h2.5c.553,0,1-.447,1-1s-.447-1-1-1Z"/></svg>