<?xml version="1.0" encoding="UTF-8"?><svg id="c" xmlns="http://www.w3.org/2000/svg" width="23.264" height="23.264" viewBox="0 0 23.264 23.264"><path d="M14.568,4.349h-5.872c-2.401,0-4.347,1.946-4.347,4.347v2.936c0,.071.002.142.005.208.111,3.901,3.396,7.075,7.323,7.075,3.991,0,7.238-3.267,7.238-7.283v-2.936c0-2.401-1.946-4.347-4.347-4.347ZM11.152,14.745c.854-.738,1.402-1.821,1.426-3.031.023-1.157.847-2.179,1.998-2.293,1.324-.13,2.444.911,2.444,2.21,0,2.971-2.397,5.389-5.343,5.389-.671,0-1.322-.12-1.93-.349-.534-.202-.518-.982.025-1.158.449-.146.935-.384,1.379-.768ZM10.685,11.653c-.012,1.25-1.062,2.257-2.328,2.197-1.199-.057-2.113-1.106-2.113-2.306v-2.848c0-1.355,1.098-2.453,2.453-2.453h5.882c.164,0,.325.017.48.048.732.148.624,1.228-.123,1.226-.044,0-.089,0-.135,0-2.281-.006-4.095,1.855-4.116,4.136Z"/></svg>