<?xml version="1.0" encoding="UTF-8"?><svg id="a" xmlns="http://www.w3.org/2000/svg" viewBox="0 0 23 23"><path d="m6.26,8.99c.02-.08.06-.14.12-.18-.34-.25-.79.01-.88.45-.18,1.07,1.19,1,1.12,0-.18.16-.41-.04-.36-.27Z" style="fill-rule:evenodd; stroke-width:0px;"/><path d="m5.42,8.22c.06-.1.13-.2.22-.29.02-.02.05-.05.07-.07h0s.07-.07.11-.09h0s0,0,0,0c.03-.02.05-.04.08-.06h0s.02-.01.03-.02c.03-.02.06-.04.09-.05h0s.1-.05.15-.07c.02,0,.04-.02.06-.02h0s.04-.01.07-.02c0,0,.02,0,.03,0h0c.07-.02.15-.03.23-.03h0c.07,0,.13,0,.2.01h0s.02,0,.03,0h0c.29.05.54.22.71.45h0s.01.02.02.03h0s.03.04.04.06h0s.04.06.05.09h0s.01.02.02.03h0s.02.04.03.06h0c.08.16.12.34.14.52h0c.01.11.01.23,0,.34h0s0,.05,0,.08h0s0,.03,0,.04h0s0,.03,0,.04h0s0,.03,0,.04h0s0,.03,0,.04h0s-.01.05-.02.08c0,.01,0,.03-.01.04,0,0,0,.02,0,.02,1.1-2.49-1.36-4.25-2.33-1.21,0-.01.01-.02.02-.04Z" style="fill-rule:evenodd; stroke-width:0px;"/><path d="m11.5,1.76C6.11,1.76,1.73,6.13,1.73,11.53c.51,12.96,19.02,12.95,19.53,0,0-5.39-4.37-9.77-9.77-9.77Zm6.82,15.42c-7.36,6.87-16.83,1.31-15.2-7.38.87-3.98,4.33-6.72,8.22-6.84.05,0,.07.06.03.09-1.54,1.07-2.43,2.71-2.84,4.7-.53,2.63,1.48,3.61,4.65,3.87.05,0,.06.08.01.1l-3.86,1.94c.19.33.51.6.68.92-2.67,0-4.07-1.48-6.03-3.11,2.72,4.82,6.28,6.53,13.79,5.29.37-.07.74-.31,1.09-.36-.07.28-.37.53-.53.78Zm-8.96-1.43l-2.68-1.14c-.81-.61-1.57-1.44-2.23-2.39,1.32,1.34,2.97,2.15,4.76,2.74l.16.79Zm8.69-5.04s-.03.04-.02.07l.52,1.43c.02.05-.04.1-.09.07,0,0-1.26-.85-1.26-.85-.02-.01-.05-.01-.07,0l-1.2.94s-.11,0-.09-.06l.42-1.46s0-.05-.02-.07l-1.26-.85s-.02-.11.03-.11c0,0,1.52-.05,1.52-.05.03,0,.05-.02.05-.04l.42-1.46c.01-.05.09-.06.11,0l.52,1.43s.03.04.06.04l1.52-.06c.05,0,.08.07.04.1l-1.2.94Z" style="fill-rule:evenodd; stroke-width:0px;"/></svg>