<?xml version="1.0" encoding="UTF-8"?><svg id="c" xmlns="http://www.w3.org/2000/svg" width="23.264" height="23.264" viewBox="0 0 23.264 23.264"><path d="M14.576,9.422c-1.152.113-1.975,1.135-1.998,2.293-.024,1.209-.572,2.292-1.426,3.031-.444.384-.93.622-1.379.768-.543.177-.56.957-.025,1.158.608.229,1.259.349,1.93.349,2.946,0,5.343-2.417,5.343-5.389,0-1.298-1.12-2.34-2.444-2.21Z"/><path d="M10.685,11.653c.022-2.281,1.835-4.143,4.116-4.136.046,0,.091,0,.135,0,.747.002.855-1.077.123-1.226-.156-.032-.316-.048-.48-.048h-5.882c-1.355,0-2.453,1.098-2.453,2.453v2.848c0,1.2.914,2.249,2.113,2.306,1.266.06,2.317-.946,2.328-2.197Z"/><path d="M20.353.886H2.911C1.792.886.886,1.792.886,2.911v17.442c0,1.118.907,2.025,2.025,2.025h17.442c1.118,0,2.025-.907,2.025-2.025V2.911c0-1.118-.907-2.025-2.025-2.025ZM18.915,11.632c0,4.016-3.247,7.283-7.238,7.283-3.927,0-7.212-3.174-7.323-7.075-.003-.066-.005-.137-.005-.208v-2.936c0-2.401,1.946-4.347,4.347-4.347h5.872c2.401,0,4.347,1.946,4.347,4.347v2.936Z"/></svg>