<?xml version="1.0" encoding="UTF-8"?><svg id="a" xmlns="http://www.w3.org/2000/svg" viewBox="0 0 23 23"><path d="m3,11.45c2.24,1.88,3.76,3.42,6.81,3.57.02,0,.04-.01.05-.03-.2-.36-.57-.67-.78-1.05l4.39-2.21c.05-.02.04-.1-.01-.11-3.6-.3-5.9-1.41-5.29-4.41.46-2.27,1.47-4.14,3.23-5.35.05-.03.02-.11-.03-.1-4.43.14-8.37,3.26-9.35,7.78C.17,19.44,10.94,25.77,19.32,17.95c.19-.28.53-.57.61-.89-.4.06-.82.33-1.24.41-8.54,1.42-12.6-.52-15.69-6.01Zm2.98-2.24c-.09.41-.44.69-.79.61-.35-.08-.55-.47-.46-.88.09-.41.44-.69.79-.61.08.02.15.05.21.1-.06.05-.11.12-.13.21-.04.17.05.33.19.37.08.02.15,0,.21-.06,0,.09,0,.18-.02.27Zm.61-3.22c.79.22,1.17,1.39.86,2.62-.05.2-.12.38-.19.56v-.02s0,0,0,0h0s0-.01,0-.01c0-.01,0-.02,0-.03h0s0,0,0,0c0-.03.01-.06.02-.09h0s0-.03,0-.04h0s0-.03,0-.04h0s0-.03,0-.04h0s0-.03,0-.04h0s0-.03,0-.04c0-.01,0-.03,0-.04h0s0-.03,0-.04,0-.03,0-.04c0-.01,0-.03,0-.04,0-.01,0-.03,0-.04s0-.03,0-.04c0-.01,0-.03,0-.04,0-.01,0-.03,0-.04,0-.01,0-.03,0-.04,0-.01,0-.03,0-.04h0s0-.03,0-.04c0-.01,0-.03,0-.04,0-.01,0-.03,0-.04,0-.01,0-.03,0-.04,0-.01,0-.03,0-.04,0-.01,0-.03,0-.04,0-.01,0-.03-.01-.04,0-.01,0-.03-.01-.04,0-.01,0-.03-.01-.04,0-.01,0-.03-.01-.04,0-.01,0-.03-.01-.04,0-.01,0-.03-.01-.04,0-.01,0-.02-.01-.04,0-.01-.01-.02-.02-.04,0-.01-.01-.02-.02-.04h0s-.01-.02-.02-.04c0-.01-.01-.02-.02-.04h0s-.01-.02-.02-.03h0s-.01-.02-.02-.03c0-.01-.01-.02-.02-.03,0-.01-.01-.02-.02-.03h0s-.01-.02-.02-.03c0-.01-.01-.02-.02-.03h0s-.02-.02-.02-.03h0s-.02-.02-.02-.03c0,0-.02-.02-.02-.03,0,0-.02-.02-.03-.03s-.02-.02-.03-.03c0,0-.02-.02-.03-.03s-.02-.02-.03-.03c-.03-.03-.06-.05-.08-.07,0,0-.02-.02-.03-.02-.15-.11-.32-.2-.51-.24-.01,0-.02,0-.04,0h0s-.02,0-.03,0h0s-.07-.01-.11-.01h0s-.02,0-.03,0h0s-.05,0-.07,0h0s-.02,0-.03,0h0s-.02,0-.03,0h0s-.05,0-.07,0h0s-.02,0-.03,0h0s-.05,0-.07.02h0s-.02,0-.03,0h0s-.02,0-.03,0h0s-.02,0-.03.01h0s-.02,0-.03.01h0s-.02,0-.03.01h0s-.02.01-.03.01h0s-.02.01-.03.02h0s-.02.01-.03.01h0s-.02.01-.02.02h0s-.02.01-.03.02h0s0,0,0,0c0,0-.02.01-.03.02h0s-.01.01-.02.02h0s-.02.02-.02.02h0s-.02.02-.03.02h0s-.02.01-.02.02h0s-.01.02-.02.02h0s-.02.02-.03.03h0s0,0,0,0c0,0-.02.01-.03.02h0s-.01.02-.02.02h0s-.02.02-.02.03h0s-.02.02-.03.03h0s-.01.02-.02.03h0s-.01.02-.02.03h0s-.02.02-.02.03h0s-.02.02-.03.03h0s-.01.02-.02.03h0s-.01.02-.02.03h0s-.02.03-.02.04h0s-.01.02-.02.03h0s-.01.02-.02.03h0s-.01.03-.02.03h0s-.01.03-.02.04h0s-.01.02-.02.03h0s-.01.03-.02.03h0s-.01.03-.02.04c.31-1.22,1.2-2.02,1.98-1.8Z" style="stroke-width:0px;"/><path d="m6.06,15.03l3.06,1.29-.18-.9c-2.03-.67-3.91-1.59-5.41-3.11.75,1.08,1.62,2.02,2.54,2.72Z" style="stroke-width:0px;"/><path d="m20.33,9.4l-1.73.06s-.06-.02-.07-.04l-.59-1.63c-.02-.06-.11-.06-.13,0l-.47,1.67s-.03.05-.06.05l-1.73.06s-.05.02-.06.05c0,.03,0,.06.03.07l1.44.97s.04.05.03.07l-.48,1.67s0,.06.03.07c.02.02.06.02.08,0l1.36-1.07s.05-.02.08,0l1.43.97s.06.02.08,0c.02-.02.03-.05.02-.08l-.6-1.63s0-.06.02-.08l1.37-1.06c.05-.04.02-.12-.04-.12Z" style="stroke-width:0px;"/></svg>