<?xml version="1.0" encoding="UTF-8"?><svg id="a" xmlns="http://www.w3.org/2000/svg" viewBox="0 0 23 23"><path d="m22.61,11.5l-2.44-6.9s-.03-.05-.04-.08c-.35-1.38-1.92-2.03-3.15-1.44L1.99,8.38c-1.36.34-2.14,1.83-1.54,3.12,0,.02,0,.05.02.07l2.44,6.9c.46,1.31,1.92,1.98,3.19,1.52,0,0,14.99-5.3,14.99-5.3,1.3-.46,1.98-1.89,1.52-3.19Zm-10.67-1.33c-.48-.63-1.59-.24-1.57.56l-4.85,1.72c-1.31.49-2.85-.22-3.35-1.52-.1-.35.08-.72.43-.85l14.99-5.3c.33-.11.69,0,.86.37.42,1.36-.3,2.82-1.65,3.3l-4.86,1.72Zm8.54,2.83l-14.99,5.3c-.08.03-.16.04-.23.04-.25,0-.55-.14-.66-.47l-1.3-3.68c.91.28,1.89.27,2.81-.05,0,0,4.79-1.69,4.79-1.69l.18.52c.17.47.69.71,1.15.55.47-.17.71-.68.55-1.15l-.18-.52,4.8-1.7c.95-.33,1.69-.96,2.21-1.74l1.3,3.69c.13.36-.06.76-.43.89Z" style="stroke-width:0px;"/></svg>