<?xml version="1.0" encoding="UTF-8"?><svg id="a" xmlns="http://www.w3.org/2000/svg" viewBox="0 0 23 23"><path d="m10.71,3.67c.21.5.52.95.91,1.32l3.72,3.55c1.78,1.7,2.8,4.09,2.8,6.55,0,3.23-2.63,5.86-5.86,5.86h-.78c-3.66,0-6.64-2.98-6.64-6.64v-.17c0-.96.21-1.89.62-2.73v1.49c0,2.54,2.07,4.61,4.61,4.61s4.61-2.07,4.61-4.61v-.17c0-1.26-.51-2.49-1.4-3.38l-1.7-1.7c-.71-.71-1.12-1.7-1.12-2.71,0-.44.08-.87.22-1.28m-3.85,5.88h0,0M11.27.25c-.29,0-.58.14-.75.38l-.7.94c-.73.97-1.12,2.16-1.12,3.38,0,1.49.59,2.93,1.65,3.99l1.7,1.7c.56.56.87,1.32.87,2.11v.17c0,1.55-1.26,2.81-2.81,2.81s-2.81-1.26-2.81-2.81v-3.93c0-.55-.44-.99-.99-.99-.26,0-.52.11-.7.29l-.15.15c-1.52,1.52-2.37,3.57-2.37,5.72v.17c0,4.66,3.78,8.44,8.44,8.44h.78c4.23,0,7.66-3.43,7.66-7.66,0-2.97-1.21-5.81-3.36-7.85l-3.72-3.55c-.42-.4-.65-.95-.65-1.52v-.98c0-.51-.42-.94-.94-.94h0Z" style="stroke-width:0px;"/></svg>