<?xml version="1.0" encoding="UTF-8"?><svg id="a" xmlns="http://www.w3.org/2000/svg" viewBox="0 0 23 23"><path d="m9.81,1.56l.7-.94c.18-.24.46-.38.75-.38.51,0,.94.42.94.94v.98c0,.58.24,1.13.65,1.52l3.72,3.55c2.14,2.05,3.36,4.89,3.36,7.85,0,4.23-3.43,7.66-7.66,7.66h-.78c-4.66,0-8.44-3.78-8.44-8.44v-.17c0-2.14.85-4.2,2.37-5.72l.15-.15c.18-.18.44-.29.7-.29.55,0,.99.44.99.99v3.93c0,1.55,1.26,2.81,2.81,2.81s2.81-1.26,2.81-2.81v-.17c0-.79-.32-1.55-.87-2.11l-1.7-1.7c-1.05-1.05-1.65-2.49-1.65-3.99,0-1.22.4-2.41,1.13-3.38Z" style="stroke-width:0px;"/></svg>