<?xml version="1.0" encoding="UTF-8"?><svg id="c" xmlns="http://www.w3.org/2000/svg" viewBox="0 0 23 23"><path d="M22,7.7h0c0-.2,0-.2,0-.2-.2-1.1-.7-2-1.6-2.6-.9-.6-1.8-1-3-1h-.1c-2.6,0-4.6,2.1-4.6,4.7,0,.8.1,1.6.3,2.5.1.5.3,1,.4,1.6v.4c-1.9-.2-3.8-.2-5.6,0-1.9.2-3.5.6-5,1.2-1.2.5-1.9,1.8-1.6,3.1.2.9.9,1.6,1.4,2,.9.8,2,1.3,3.5,1.7,1.2.3,2.5.4,4.1.4h.4c2,0,3.5-.2,4.9-.7,1.4-.4,2.4-1,3.3-1.8,1.8-1.8,2-4.6.4-6.5-.2-.2-.4-.5-.6-.7-.1-.1-.2-.3-.3-.4-.5-.5-.7-1-.7-1.6,0-.4.2-.6.5-.8.2-.1.5-.1.6,0,.3.2.4.5.4.8,0,.2,0,.5.1.8.1.6.7,1.1,1.3,1.1s.2,0,.2,0c.7-.1,1.2-.8,1.1-1.5,0-.6,0-1.1.2-1.7v-.8ZM16.6,8.8c-.3.7-.3,1.5.1,2.2.2.4.5.7.7,1l.2.2c.1.2.3.3.4.5,0,.1.2.2.3.3,1.2,1.4,1,3.6-.3,4.9-.7.7-1.6,1.2-2.9,1.5-1.4.4-2.9.6-4.8.6s-.3,0-.4,0c-1.8,0-3.2-.2-4.4-.7-.9-.3-1.7-.7-2.2-1.2-.4-.4-.8-.8-.9-1.3,0-.4,0-.8.3-1.2.3-.3.7-.5,1.1-.5s.2,0,.3,0c.2,0,.4,0,.6.1h.2c.5.2,1.1.3,1.7.4,1.3.2,2.7.3,4.2.1.8,0,1.7-.2,2.5-.3.5,0,1-.4,1.3-.8.3-.5.4-1,.3-1.5-.1-.5-.2-.9-.3-1.4-.1-.5-.2-.9-.3-1.4-.2-.9-.2-1.6-.2-2.2.2-1.6,1.6-3,3.3-3,1.1,0,2,.3,2.7.9.6.6.9,1.3.9,2.2-.4-.1-.7,0-1,.2-.5-.6-1-.9-1.7-.8-.7,0-1.3.5-1.6,1.2ZM13,14.3c-.5,0-1.1.2-1.7.3-1.2.1-2.4.2-3.7,0-.5,0-.9,0-1.4-.2,2.1-.4,4.3-.5,7-.2,0,0-.1,0-.2,0ZM20.5,9.2h0c0,0,.2.1.2.2,0,0,0,.2,0,.2h0c0,.1,0,.3,0,.3,0,.1,0,.2,0,.4,0,.2,0,.3-.2.3,0,0,0,0,0,0-.1,0-.2,0-.2-.2h0c0-.3,0-.5,0-.7,0-.2.2-.3.3-.5Z" style="stroke-width:0px;"/><path d="M19.8,8c.3,0,.6-.3.6-.6,0-.1,0-.2,0-.4,0-.3-.3-.6-.6-.6-.3,0-.6.3-.6.6,0,0,0,0,0,.1h0c0,.1,0,.2,0,.2,0,.4.3.6.6.6Z" style="stroke-width:0px;"/><path d="M6.6,13c1.5,0,2.9-.6,4-1.7,1.1-1.1,1.7-2.5,1.6-4,0-3.1-2.5-5.6-5.7-5.6-3.1,0-5.6,2.5-5.6,5.6,0,3.1,2.5,5.7,5.6,5.7ZM8,3.3c-.4,0-.7,0-1.1.2-.5-.2-1-.4-1.5-.5.1,0,.2,0,.4,0,.8-.1,1.5,0,2.2.2,0,0,0,.2,0,.2ZM7.1,9.6c.5-1,.8-2.1,1.1-3.4,0,0,0,0,.1,0h0c.1.3.3.6.4.8.6,1,.9,2,1.1,3.2,0,0,0,.1,0,.1,0,0,0,0,0,0-1.2,1.1-2.5,1.6-4.1,1.3.5-.6.9-1.3,1.3-2.1ZM2.3,7.8h0c.6-.8,1.3-1.3,2.3-1.7.6-.2,1.2-.4,1.9-.5.1.2.3.4.5.5,0,0,0,.2,0,.3,0,.4-.2.9-.4,1.4-.3,1-.7,1.9-1.2,2.6-.2.3-.5.7-.8,1-1.3-.7-2.1-1.8-2.4-3.3,0,0,0-.1,0-.2ZM5.5,4.5c-1.3.3-2.3.8-3.1,1.5,0,0,0,0,0,0,0-.1,0-.2.1-.4.3-.7.7-1.2,1.2-1.7,0,0,.2,0,.2,0,.8,0,1.5.1,2.2.4-.2,0-.4,0-.6.1ZM8.2,5.2c-.1.1-.3.2-.4.2-.3,0-.6-.3-.6-.6,0-.3.3-.6.6-.6.3,0,.6.3.6.6,0,.2,0,.3-.2.4ZM9.2,4.3c0,0,0-.2-.1-.2h0c0-.2,0-.3.1-.4.4.3.7.6,1,.9-.3-.1-.6-.2-1-.2ZM10.3,5.9c.2,0,.3.2.5.4h.1c.2,1,.1,1.8-.2,2.7-.3-1.2-.9-2.4-1.6-3.4.4,0,.8.2,1.1.4Z" style="stroke-width:0px;"/></svg>