<?xml version="1.0" encoding="UTF-8"?><svg id="c" xmlns="http://www.w3.org/2000/svg" viewBox="0 0 23 23"><path d="M18.9,15.8l-3.7-.2c-.2,0-.4,0-.6.2s-.3.3-.3.5l-.9,3.6c-.6.1-1.2.2-1.8.2s-1.2,0-1.8-.2l-.9-3.6c0-.2-.2-.4-.3-.5s-.4-.2-.6-.2l-3.7.2c-.6-1-1-2.2-1.1-3.5l3.1-2c.2-.1.3-.3.4-.5s0-.4,0-.6l-1.4-3.4c.8-.9,1.8-1.7,3-2.2l2.8,2.4c.2.1.4.2.6.2s.4,0,.6-.2l2.8-2.4c1.1.5,2.2,1.2,3,2.2l-1.4,3.4c0,.2,0,.4,0,.6s.2.4.4.5l3.1,2c-.1,1.3-.5,2.4-1.1,3.5h0ZM11.5,22c5.8,0,10.5-4.7,10.5-10.5S17.3,1,11.5,1,1,5.7,1,11.5s4.7,10.5,10.5,10.5ZM12.1,8.6c-.3-.2-.8-.2-1.2,0l-2,1.4c-.3.2-.5.7-.4,1.1l.7,2.3c.1.4.5.7.9.7h2.4c.4,0,.8-.3.9-.7l.7-2.3c.1-.4,0-.8-.4-1.1l-2-1.4h0Z" style="stroke-width:0px;"/></svg>