<?xml version="1.0" encoding="UTF-8"?><svg id="a" xmlns="http://www.w3.org/2000/svg" viewBox="0 0 23 23"><path d="m11.5,7.42c-4.13,0-7.48,3.35-7.48,7.48.38,9.91,14.57,9.91,14.95,0,0-4.13-3.35-7.48-7.48-7.48Zm4.49,10.75c-2.23,3.2-7.32,3.07-9.36-.27-2.18-3.26-.16-7.93,3.68-8.61.38-.09.59.48.24.66-3.54,4.25-.11,10.04,4.95,7.74.31-.24.74.18.5.49Zm.81-4.3l-.97.6c-.13,0-.1,1.17-.13,1.26,0,.13-.16.19-.25.11l-.87-.73c-.05-.12-1.15.27-1.24.27-.12.03-.23-.09-.18-.21l.43-1.05c.1-.09-.61-1.01-.64-1.09-.07-.11.01-.25.14-.24l1.14.08c.12.07.77-.9.84-.95.08-.1.24-.06.27.06l.27,1.11c-.03.13,1.09.45,1.16.51.12.04.13.21.03.27Z" style="stroke-width:0px;"/><path d="m6.53,7.6c-.43-.65-3.08-4.63-3.45-5.17h2.98c.39.66,2.07,3.44,2.49,4.15.59-.21,1.2-.36,1.83-.44L7.48,1.28c-.24-.41-.69-.66-1.16-.66H1.67c-.81-.02-1.34.96-.87,1.62l4.35,6.51c.42-.43.89-.82,1.39-1.16Z" style="stroke-width:0px;"/><path d="m21.33.63h-4.64c-.48,0-.92.25-1.16.66l-2.91,4.85c.64.08,1.25.23,1.83.44.43-.71,2.1-3.49,2.49-4.15h2.98c-.35.53-3.03,4.55-3.45,5.17.5.34.97.73,1.39,1.16,0,0,4.35-6.51,4.35-6.51.47-.66-.06-1.64-.87-1.62Z" style="stroke-width:0px;"/></svg>