<?xml version="1.0" encoding="UTF-8"?><svg id="a" xmlns="http://www.w3.org/2000/svg" viewBox="0 0 23 23"><path d="M6.5,7.6c-.4-.7-3.1-4.6-3.4-5.2h3c.4.7,2.1,3.4,2.5,4.1.6-.2,1.2-.4,1.8-.4L7.5,1.3c-.2-.4-.7-.7-1.2-.7H1.7c-.8,0-1.3,1-.9,1.6l4.3,6.5c.4-.4.9-.8,1.4-1.2Z" style="stroke-width:0px;"/><path d="M21.3.6h-4.6c-.5,0-.9.3-1.2.7l-2.9,4.8c.6,0,1.2.2,1.8.4.4-.7,2.1-3.5,2.5-4.1h3c-.4.5-3,4.5-3.4,5.2.5.3,1,.7,1.4,1.2,0,0,4.3-6.5,4.3-6.5.5-.7,0-1.6-.9-1.6Z" style="stroke-width:0px;"/><path d="M11.5,7.4c-4.1,0-7.5,3.3-7.5,7.5.4,9.9,14.6,9.9,15,0,0-4.1-3.3-7.5-7.5-7.5ZM11.4,18.2v1.2h-4.9v-1.2c.9-.6,3.6-2.6,3.6-3.8s-.3-.9-1.1-.9h-2.5v-1c.9-.2,1.7-.2,2.9-.2s2.1,1,2.1,2.2-2,3.2-2.6,3.7h2.6ZM9.4,11.8h-.7c0-1.5,1.2-2.8,2.8-2.8s2.8,1.2,2.8,2.8h-.7c0-1.2-.9-2.1-2.1-2.1s-2.1.9-2.1,2.1ZM16.7,17.7c0,1.3-1,1.7-1.8,1.7-1.2,0-1.7,0-3-.2v-1.1h2.7c.6,0,.7-.4.7-.7v-.6c0-.3,0-.7-.6-.7h-.9c-.3,0-.6.2-.6.6h-1.3l.2-4.3h4.3v1.2h-3v1.6c.1-.2.4-.2.6-.2.4,0,.9,0,1.1,0,1.1,0,1.6.8,1.6,1.7v1Z" style="stroke-width:0px;"/></svg>