<?xml version="1.0" encoding="UTF-8"?><svg id="a" xmlns="http://www.w3.org/2000/svg" viewBox="0 0 23 23"><path d="m11.5,1.94C6.16,1.94,1.82,6.28,1.82,11.61v6.76c0,1.18.73,2.22,1.81,2.7-.01-2.4,0-6.77,0-9.45,0-4.34,3.53-7.87,7.87-7.87s7.87,3.53,7.87,7.87c0,2.41,0,7.05,0,9.45,1.08-.47,1.82-1.52,1.81-2.7v-6.76c0-5.34-4.34-9.68-9.68-9.68Z" style="stroke-width:0px;"/><path d="m5.7,13.16h-.96v7.91h.96c.94,0,1.69-.76,1.69-1.7v-4.52c0-.94-.76-1.7-1.69-1.7Z" style="stroke-width:0px;"/><path d="m15.61,14.85v4.52c0,.94.76,1.7,1.69,1.7h.96v-7.91h-.96c-.94,0-1.69.76-1.69,1.7Z" style="stroke-width:0px;"/></svg>