<?xml version="1.0" encoding="UTF-8"?><svg id="a" xmlns="http://www.w3.org/2000/svg" viewBox="0 0 23 23"><path d="m16.31,1.89c-1.33,0-2.63.41-3.71,1.18-.18.12-.34.25-.51.4-.21.18-.41.37-.59.58-.33-.37-.7-.7-1.1-.98-1.08-.76-2.38-1.17-3.7-1.17-.4,0-.81.04-1.21.12C2.45,2.59.25,5.24.25,8.34v.15c0,1.84.76,3.6,2.11,4.85l7.7,7.15.11.1c.36.34.83.52,1.33.52s.97-.19,1.33-.52l.11-.1,7.7-7.15c1.35-1.25,2.11-3.01,2.11-4.85v-.15c0-3.09-2.2-5.75-5.24-6.33-.4-.08-.8-.11-1.2-.11h0Z" style="stroke-width:0px;"/></svg>