<?xml version="1.0" encoding="UTF-8"?><svg id="c" xmlns="http://www.w3.org/2000/svg" viewBox="0 0 23 23"><path d="M22.5,11.5c0,.7-.6,1.2-1.2,1.2h-1.2v6.1c0,.1,0,.2,0,.3v.6c0,.8-.7,1.5-1.5,1.5h-.6s0,0-.1,0c0,0-.1,0-.2,0h-1.2s-.9,0-.9,0c-.8,0-1.5-.7-1.5-1.5v-3.4c0-.7-.5-1.2-1.2-1.2h-2.5c-.7,0-1.2.5-1.2,1.2v3.4c0,.8-.7,1.5-1.5,1.5h-2.1c0,0-.1,0-.2,0,0,0,0,0-.1,0h-.6c-.8,0-1.5-.7-1.5-1.5v-4.3s0,0,0-.1v-2.7h-1.2c-.7,0-1.2-.5-1.2-1.2s.1-.7.4-.9L10.7,2c.3-.3.6-.3.8-.3s.6,0,.8.3l9.8,8.6c.3.3.5.6.4.9Z" style="stroke-width:0px;"/></svg>