<?xml version="1.0" encoding="UTF-8"?><svg id="c" xmlns="http://www.w3.org/2000/svg" width="23" height="23" viewBox="0 0 23 23"><path d="M21.932,9.952L12.836,1.957c-.354-.295-.824-.458-1.323-.458-.215,0-.872,0-1.373.506L.985,9.987c-.405.405-.619.921-.619,1.49,0,1.145.895,2.041,2.037,2.041h.237l-.003,5.657c0,1.28,1.042,2.322,2.322,2.322h2.844c1.28,0,2.321-1.042,2.321-2.322v-3.128c0-.133.104-.236.238-.236h2.275c.133,0,.237.104.237.236v3.128c0,1.28,1.042,2.322,2.321,2.322l2.844.004c1.28,0,2.322-1.042,2.322-2.323l-.006-5.656h.237c1.107,0,2.011-.891,2.037-1.994.048-.584-.199-1.143-.696-1.576ZM20.829,11.48c0,.139-.125.241-.237.241h-1.138c-.239,0-.468.096-.637.265s-.264.397-.263.637l.007,6.557c0,.288-.234.521-.521.521l-2.844-.004c-.288,0-.522-.233-.522-.521v-3.128c0-1.123-.914-2.037-2.037-2.037h-2.275c-1.124,0-2.038.914-2.038,2.037v3.128c0,.288-.234.521-.521.521h-2.844c-.288,0-.522-.233-.522-.521l.004-6.559c0-.497-.403-.9-.9-.9h-1.138c-.144,0-.237-.094-.237-.24,0-.096.021-.146.047-.175L11.377,3.311s.03-.012.136-.012c.087,0,.149.024.152.024l9.081,7.981c.052.046.076.078.086.094-.002.026-.003.054-.003.081Z"/></svg>