<?xml version="1.0" encoding="UTF-8"?><svg id="a" xmlns="http://www.w3.org/2000/svg" viewBox="0 0 23 23"><path d="m19.44,19.93c-.09-.2-2.24-5.03-1.02-9.9,1.39-2.15.52-5.24-.97-5.41V1.15c0-.5-.4-.9-.9-.9s-.9.4-.9.9v3.41c-1.97.23-3.32,1.44-4.14,2.7-.82-1.26-2.17-2.47-4.14-2.69V1.15c0-.5-.4-.9-.9-.9s-.9.4-.9.9v3.47c-1.49.18-2.36,3.26-.97,5.41,1.22,4.87-.93,9.69-1.02,9.9-.78,1.96,1.06,2.7,2.24,2.04q.39-.26,1.01.09c1.01.75,2.91.98,3.75.15.25-.25.72-.27.88-.27.18.02.58-.07.99.27.65.65,2.22.7,3.17.17.67-.28,1.07-.89,1.64-.38,1.13.62,2.96-.14,2.18-2.07Zm-2.46-13.57c.33.54.86,1.93-.8,3.64-.57.32-3.16.6-3.71-.69.34-.92,1.53-3.36,4.51-2.95Zm-6.44,2.95c-.55,1.29-3.15,1.01-3.71.69-1.67-1.71-1.13-3.1-.8-3.64,2.98-.42,4.17,2.03,4.51,2.95Zm4.75,11.2c-.15.08-.31.18-.49.27-.53.26-1.01.16-1.16.1-.8-.74-1.87-.75-2.15-.73-.3-.01-1.34,0-2.14.73-1.28.45-2.36-1.47-3.94-.73.49-1.26,1.58-4.59,1.28-8.3,1.51.44,3.67.32,4.8-.9,1.13,1.22,3.29,1.34,4.8.9-.3,3.71.79,7.03,1.28,8.3-.99-.38-1.7.02-2.29.36Z" style="stroke-width:0px;"/></svg>