<?xml version="1.0" encoding="UTF-8"?><svg id="c" xmlns="http://www.w3.org/2000/svg" width="23" height="23" viewBox="0 0 23 23"><path d="M11.5.766C7.044.766,3.429,4.381,3.429,8.837c0,3.674,4.919,10.215,7.075,12.914.259.322.627.482.996.482s.738-.161.996-.482c2.157-2.699,7.075-9.24,7.075-12.914C19.571,4.381,15.956.766,11.5.766ZM11.5,20.051c-3.858-4.919-6.235-9.182-6.235-11.214,0-3.438,2.797-6.235,6.235-6.235s6.235,2.797,6.235,6.235c0,2.032-2.377,6.297-6.235,11.214Z"/><path d="M11.5,6.147c-1.486,0-2.69,1.205-2.69,2.69s1.205,2.69,2.69,2.69,2.69-1.205,2.69-2.69-1.205-2.69-2.69-2.69Z"/></svg>