<?xml version="1.0" encoding="UTF-8"?><svg id="c" xmlns="http://www.w3.org/2000/svg" viewBox="0 0 23 23"><path d="M11.5.8C5.6.8.8,5.6.8,11.5s4.8,10.7,10.7,10.7,10.7-4.8,10.7-10.7S17.4.8,11.5.8ZM11.3,15.5v1.7h-6.7v-1.6c1.2-.8,4.9-3.6,4.9-5.1s-.4-1.3-1.6-1.3h-3.4v-1.4c1.2-.2,2.3-.3,4-.3s2.8,1.4,2.8,3-2.7,4.4-3.6,5.1h3.6ZM8.6,6.9h-.9c0-2.1,1.7-3.8,3.8-3.8s3.8,1.7,3.8,3.8h-.9c0-1.6-1.3-2.9-2.9-2.9s-2.9,1.3-2.9,2.9ZM18.5,14.9c0,1.8-1.4,2.4-2.4,2.4-1.6,0-2.3,0-4-.3v-1.4h3.7c.8,0,1-.5,1-.9v-.9c0-.4,0-.9-.9-.9h-1.2c-.5,0-.8.2-.8.8h-1.7l.3-5.9h5.8v1.7h-4v2.2c.2-.2.5-.3.8-.3.5,0,1.2,0,1.4,0,1.5,0,2.2,1,2.2,2.4v1.3Z" style="stroke-width:0px;"/></svg>