<?xml version="1.0" encoding="UTF-8"?><svg id="a" xmlns="http://www.w3.org/2000/svg" viewBox="0 0 23 23"><path d="m18.31,8.61h-1.24v-2.79c0-3.06-2.51-5.57-5.57-5.57s-5.57,2.51-5.57,5.57v2.79h-1.24c-1.63,0-2.97,1.34-2.97,2.97v8.2c0,1.63,1.34,2.97,2.97,2.97h13.62c1.63,0,2.97-1.34,2.97-2.97v-8.2c0-1.63-1.34-2.97-2.97-2.97Zm-10.58-2.79c0-2.08,1.69-3.77,3.77-3.77s3.77,1.69,3.77,3.77v2.79h-7.54v-2.79Zm11.75,13.96c0,.64-.54,1.17-1.17,1.17H4.69c-.64,0-1.17-.54-1.17-1.17v-8.2c0-.64.54-1.17,1.17-1.17h13.62c.64,0,1.17.54,1.17,1.17v8.2Z" style="stroke-width:0px;"/><path d="m11.5,12.94c-.5,0-.9.4-.9.9v3.69c0,.5.4.9.9.9s.9-.4.9-.9v-3.69c0-.5-.4-.9-.9-.9Z" style="stroke-width:0px;"/></svg>