<?xml version="1.0" encoding="UTF-8"?><svg id="a" xmlns="http://www.w3.org/2000/svg" viewBox="0 0 23 23"><path d="m20.06,9.23c-.38-.38-.78-.7-1.21-.99l2.49-5.75c.2-.46-.01-.99-.47-1.18-.45-.19-.99.01-1.18.47l-2.45,5.67c-7.63-2.71-13.73,6.79-8,12.61,7.44,6.91,17.74-3.39,10.83-10.83Zm-1.27,9.56c-3.57,3.69-10.08.99-10-4.14-.12-3.88,4.09-6.9,7.73-5.55l-.6,1.39-2.06,2.48c-.34.41-.19,1.04.3,1.25l1.83.79c.49.21,1.04-.1,1.12-.62l.46-3.18.55-1.27c2.87,2.07,3.19,6.37.67,8.85Z" style="stroke-width:0px;"/><path d="m12.88,1.11C9.16-1.53-1.58,10.1,1.11,12.88,4.83,15.52,15.57,3.89,12.88,1.11Zm-4.92,6.84c-2.37,2.37-4.48,3.37-5.44,3.52.31-2.77,6.12-8.65,8.96-8.95-.14.89-1.1,3.02-3.52,5.44Z" style="stroke-width:0px;"/></svg>