<?xml version="1.0" encoding="UTF-8"?><svg id="a" xmlns="http://www.w3.org/2000/svg" viewBox="0 0 23 23"><path d="m21.66,6.11v-2c0-1.87-1.53-3.4-3.4-3.4H3.65C1.78.71.25,2.23.25,4.11v14.78c0,1.87,1.53,3.4,3.4,3.4h14.61c1.87,0,3.4-1.53,3.4-3.4v-2c.67-.62,1.09-1.5,1.09-2.48v-5.82c0-.98-.42-1.86-1.09-2.48Zm-1.8,12.78c0,.88-.72,1.6-1.6,1.6H3.65c-.88,0-1.6-.72-1.6-1.6V4.11c0-.88.72-1.6,1.6-1.6h14.61c.88,0,1.6.72,1.6,1.6v1.13c.16-.1-7.38-.03-7.52-.05-1.87,0-3.4,1.52-3.4,3.4v5.82c0,1.87,1.53,3.4,3.4,3.4.14-.03,7.67.06,7.52-.05v1.13Zm1.09-4.48c0,.88-.72,1.6-1.6,1.6h-7.01c-.88,0-1.6-.72-1.6-1.6v-5.82c0-.88.72-1.6,1.6-1.6h7.01c.88,0,1.6.72,1.6,1.6v5.82Z" style="stroke-width:0px;"/><path d="m14.76,9.7c-2.37.06-2.37,3.54,0,3.6,2.37-.06,2.37-3.54,0-3.6Z" style="stroke-width:0px;"/></svg>