<?xml version="1.0" encoding="UTF-8"?><svg id="a" xmlns="http://www.w3.org/2000/svg" viewBox="0 0 23 23"><path d="m6.56,6.56c.15-.19-.11-.46-.31-.31C3.12,7.68.99,4.09,3.18,1.45c.22-.11.09-.46-.15-.41C.65,1.46-.6,4.37.75,6.39c1.27,2.08,4.43,2.15,5.81.17Z" style="stroke-width:0px;"/><path d="m5.07,4.04c-.1.32-.44.82-.15.78.07.01.61-.23.77-.17.26.18.65.67.7.39.02-.05,0-.78.08-.78.24-.18.84-.41.58-.54-.05-.03-.74-.23-.72-.32-.1-.3-.13-.93-.34-.72-.05.03-.42.61-.52.59l-.7-.05c-.08,0-.13.08-.09.15.02.05.46.62.4.68Z" style="stroke-width:0px;"/><path d="m19.28,14.91l-.76-1.79c.32-.14.54-.46.54-.83v-2.87c-.09-1.38-1.95-.92-2.56-.21-.45-.44-1.78-.28-2.14-.37-.34-.02-.73-.78-1.04-1.15,3.15-1.75,1.87-6.71-1.78-6.69-2.88-.09-4.65,3.5-2.87,5.72-.92.67-1.43,1.38-1.87,2.34-.1-.18-4.55-.07-4.82-.1-.84,0-1.53.69-1.53,1.53v3.26c0,.84.68,1.53,1.53,1.53h1.1c-.65.92-.81,3.23-.72,3.26.04.46.43.82.9.82.12,0,.53,0,.65,0,.91,3.51,5.95,3.51,6.86,0h5.04c1.08,3.98,6.94,3.26,6.99-.9,0-1.95-1.58-3.54-3.52-3.56ZM11.55,2.81c2.36.06,2.35,3.51,0,3.57-2.36-.06-2.36-3.51,0-3.57ZM2.26,13.48v-2.71h3.76v2.71h-3.76Zm5.08,6.75c-.64,0-1.2-.35-1.5-.86h3.01c-.31.51-.86.86-1.5.86Zm-3.14-2.66c.04-.29.11-.63.25-.97.39-.98.86-1.26.97-1.31.57,0,3.21,0,3.84,0,.91.03.63,1.13.67,1.72,0,.07-.01.28.06.56h-5.8Zm12.36,0h-1.54c-.14-.52-.49-.96-.96-1.2v-1.58c0-1.77-1.44-3.21-3.21-3.21h-2.92c.23-1.37,1.18-4.31,3.25-3.35.48.19.72.53,1.01.96.59,1.09,1.75,1.65,3.23,1.49.07,0,.14.04.17.11l2.12,5.03-1.15,1.75Zm2.68,2.66c-.73,0-1.36-.45-1.62-1.08.08.04,1.58-2.35,1.66-2.44,2.29.08,2.26,3.48-.03,3.52Z" style="stroke-width:0px;"/></svg>