<?xml version="1.0" encoding="UTF-8"?><svg id="a" xmlns="http://www.w3.org/2000/svg" viewBox="0 0 23 23"><path d="M19.3,14.9l-.8-1.8c.3-.1.5-.5.5-.8v-2.9c0-1.4-1.9-.9-2.6-.2-.5-.4-1.8-.3-2.1-.4-.3,0-.7-.8-1-1.1,3.2-1.7,1.9-6.7-1.8-6.7-2.9,0-4.7,3.5-2.9,5.7-.9.7-1.4,1.4-1.9,2.3-.1-.2-4.6,0-4.8,0-.8,0-1.5.7-1.5,1.5v3.3c0,.8.7,1.5,1.5,1.5h1.1c-.7.9-.8,3.2-.7,3.3,0,.5.4.8.9.8.1,0,.5,0,.6,0,.9,3.5,6,3.5,6.9,0h5c1.1,4,6.9,3.3,7-.9,0-2-1.6-3.5-3.5-3.6ZM11.6,2.8c2.4,0,2.4,3.5,0,3.6-2.4,0-2.4-3.5,0-3.6ZM2.3,13.5v-2.7h3.8v2.7h-3.8ZM7.3,20.2c-.6,0-1.2-.3-1.5-.9h3c-.3.5-.9.9-1.5.9ZM4.2,17.6c0-.3.1-.6.2-1,.4-1,.9-1.3,1-1.3.6,0,3.2,0,3.8,0,.9,0,.6,1.1.7,1.7,0,0,0,.3,0,.6h-5.8ZM16.6,17.6h-1.5c-.1-.5-.5-1-1-1.2v-1.6c0-1.8-1.4-3.2-3.2-3.2h-2.9c.2-1.4,1.2-4.3,3.2-3.3.5.2.7.5,1,1,.6,1.1,1.8,1.7,3.2,1.5,0,0,.1,0,.2.1l2.1,5-1.1,1.7ZM19.2,20.2c-.7,0-1.4-.4-1.6-1.1,0,0,1.6-2.3,1.7-2.4,2.3,0,2.3,3.5,0,3.5Z" style="stroke-width:0px;"/></svg>