<?xml version="1.0" encoding="UTF-8"?><svg id="a" xmlns="http://www.w3.org/2000/svg" viewBox="0 0 23 23"><path d="m16.83,3.75H6.17C2.9,3.75.25,6.09.25,8.98v8.55c0,.95.88,1.72,1.97,1.72h18.57c1.08,0,1.97-.77,1.97-1.72v-8.55c0-2.89-2.65-5.23-5.92-5.23Zm-10.67,1.58h10.67c2.04,0,3.75,1.34,4.04,3.16H2.13c.29-1.83,2-3.16,4.04-3.16Zm14.75,12.12v.23H2.09v-7.25h18.83v7.02Z" style="stroke-width:0px;"/><path d="m6.77,12.28c0,.76.61,1.37,1.37,1.37h6.73c.99-.01,1.48-.89,1.37-1.8H6.77v.43Z" style="stroke-width:0px;"/></svg>