<?xml version="1.0" encoding="UTF-8"?><svg id="a" xmlns="http://www.w3.org/2000/svg" viewBox="0 0 23 23"><path d="m16.01,3.98H6.99c-3.26,0-5.9,2.64-5.9,5.9v3.24c0,3.26,2.64,5.9,5.9,5.9h5.79c1.03,0,2.02-.41,2.75-1.14l5.25-5.25c3.09-3.37-.55-8.85-4.76-8.65Zm3.49,7.38l-5.22,5.22c-.41.41-.97.64-1.55.64h-5.74c-2.26,0-4.1-1.84-4.1-4.1v-3.24c0-2.26,1.84-4.1,4.1-4.1h9.02c2.65-.14,5.37,3.29,3.49,5.58Z" style="stroke-width:0px;"/><path d="m7.78,7.55h-.55c-.16.75-.36,1.84-.44,2.46h-.03c-.16-.59.27-2.42-.89-2.46-.53-.03-1.18-.03-1.32.62,0,0-.59,2.77-.59,2.77-.1.49.27.95.77.95h.55c.17-.81.42-1.95.48-2.57h.03c.17.66-.25,2.53.92,2.57.52.03,1.12,0,1.25-.62,0,0,.59-2.77.59-2.77.1-.49-.27-.95-.77-.95Z" style="stroke-width:0px;"/><path d="m8.9,8.17l-.59,2.77c-.1.49.27.95.77.95h1.93c.61.03.79-.64.95-1.1h-2.05l.11-.52h1.77l.24-1.1h-1.77l.11-.51h1.84l.23-1.1h-2.78c-.37,0-.69.26-.77.62Z" style="stroke-width:0px;"/><path d="m16.78,8.11c-.2.7-.44,1.53-.59,2.08h-.04c-.04-1.01.63-2.59-.75-2.64-.33,0-.63.22-.74.53-.25.72-.43,1.23-.77,2.16h-.04c.08-.54.16-1.19.24-1.81.11-1.09-1.54-1.19-1.56-.09,0,0,0,2.77,0,2.77,0,.43.35.78.78.78.43.04.94-.04,1.09-.5.24-.62.49-1.31.71-1.97h.02c.04.89-.6,2.34.66,2.48.41.04.88-.04,1.05-.47,0,0,1.67-3.86,1.67-3.86-.56.03-1.56-.19-1.75.56Z" style="stroke-width:0px;"/></svg>