<?xml version="1.0" encoding="UTF-8"?><svg id="a" xmlns="http://www.w3.org/2000/svg" viewBox="0 0 23 23"><path d="m18.17,11.49c-.12-.2-.32-.34-.54-.38l-1.94-.37,2.45-5.59s-.17-1.99-.17-2.01c-.01.01-1.54,1.32-1.55,1.33l-2.59,5.92-1.4-.26,1.46-6.4h-.03s-.72-.14-.72-.14c.17-.33,1.02-1.27,1.01-1.58,0,0-.52-1.76-.52-1.76l-1.15,1.44c-.13.28.31,1.47.34,1.84l-.72-.14h-.04s-1.46,6.39-1.46,6.39l-1.35-.25c-.02-.05.06-7.65,0-7.67-.22,0-1.09,0-1.83-.01v.83c.37.04,1.07-.15,1.07.28,0,.43-.7.24-1.07.28v.72c.38.04,1.07-.15,1.07.28,0,.43-.7.24-1.08.28v.72c.38.04,1.08-.15,1.08.28,0,.43-.7.24-1.08.28v.72c.38.04,1.08-.15,1.08.28,0,.43-.7.24-1.08.28v.72c.38.04,1.08-.15,1.08.28,0,.43-.7.24-1.09.28v.86s-1.58-.3-1.58-.3c-.46-.1-.95.26-.97.74,0,0-.65,10.57-.65,10.57-.02.4.26.76.66.83l9.05,1.71c.4.08.8-.15.93-.53l3.4-10.05c.07-.22.05-.46-.07-.66Zm-2.23,1.69l-2.44,7.2-.13.39c-2-.38-5.26-.99-7.26-1.37.04-.58.49-7.98.52-8.52,2.61.49,6.87,1.3,9.48,1.79l-.17.51Z" style="stroke-width:0px;"/></svg>