<?xml version="1.0" encoding="UTF-8"?><svg id="c" xmlns="http://www.w3.org/2000/svg" width="44.597" height="20.757" viewBox="0 0 44.597 20.757"><polygon points="6.643 0 7.58 1.432 8.95 .407 9.341 2.073 10.979 1.578 10.776 3.277 12.484 3.373 11.713 4.9 13.286 5.575 12.039 6.746 13.286 7.918 11.713 8.592 12.484 10.118 10.776 10.214 10.979 11.913 9.341 11.42 8.95 13.084 7.58 12.059 6.643 13.491 5.706 12.059 4.336 13.084 3.945 11.42 2.307 11.913 2.509 10.214 .801 10.118 1.572 8.592 0 7.918 1.247 6.746 0 5.575 1.572 4.9 .801 3.373 2.509 3.277 2.307 1.578 3.945 2.073 4.336 .407 5.706 1.432 6.643 0" fill="#02793e"/><circle cx="6.643" cy="6.746" r="4.79" fill="#81ba45"/><path d="M4.336,13.084l-.331-1.422c-.596.856-2.347,3.498-2.562,5.267-.26,2.135,0,3.437,0,3.437l1.323-1.588c.197.301.425.58.682.832.365.339,1.659.993,1.711,1.146,0,0-1.243-2.148-.391-5.625.308-1.253.874-2.164,1.241-2.611l-.301-.463-1.372,1.027Z" fill="#e2b700"/><path d="M7.58,12.059l-.493.753c.017.888.101,2.228.421,3.204.521,1.588,1.433,2.084,1.433,2.084,0,0,.182-2.266.365-2.527,0,0,.208.573,2.656.443,0,0-1.78-.86-2.627-4.571l-.384,1.638-1.37-1.025Z" fill="#e2b700"/><path d="M1.276,3.673s3.255,2.917,4.87,6.328c0,0,3.334-5.492,9.089-8.906,0,0-4.14.286-8.933,5.651,0,0-1.822-2.11-5.025-3.073h0Z" fill="#fff"/><path d="M15.235,1.095h0c-5.757,3.411-9.088,8.906-9.089,8.906h0l.352.05S9.476,4.716,15.233,1.304l.002-.21Z" fill="#019440"/><path d="M15.774,5.903c.561-.094,1.129-.141,1.697-.14.8,0,1.568.097,2.076.551.476.422.605.908.605,1.557,0,.713-.357,1.449-1.103,1.795v.021c.476.216.713.649.844,1.363.132.725.345,1.752.486,2.033h-1.752c-.087-.199-.259-.952-.357-1.721-.109-.865-.303-1.071-.67-1.071h-.162v2.794h-1.665v-7.182h0ZM17.439,9.006h.216c.54,0,.811-.463.811-.993s-.205-.932-.725-.95c-.103-.005-.205.01-.302.044v1.899h0Z" fill="#02793e"/><path d="M22.562,11.644l-.249,1.441h-1.621l1.549-7.29h2.033l1.326,7.29h-1.621l-.238-1.438-1.179-.003h0ZM23.611,10.357l-.184-1.384c-.054-.411-.152-1.2-.216-1.654h-.022c-.076.454-.184,1.265-.249,1.654l-.216,1.384h.887Z" fill="#02793e"/><path d="M27.701,7.6h-.022l-1.2.588-.268-1.312,1.665-.822h1.478v7.03h-1.654v-5.484h0Z" fill="#a4c929"/><path d="M34.615,9.524c0,2.509-.962,3.644-2.151,3.644-1.721,0-2.173-1.957-2.173-3.557,0-1.87.616-3.644,2.206-3.644,1.848,0,2.119,2.13,2.119,3.557ZM31.968,9.568c-.021,1.621.141,2.173.529,2.173.335,0,.443-.596.443-2.173,0-1.449-.087-2.173-.443-2.173-.349-.001-.543.573-.529,2.173Z" fill="#a4c929"/><path d="M39.56,9.524c0,2.509-.962,3.644-2.152,3.644-1.721,0-2.173-1.957-2.173-3.557,0-1.87.617-3.644,2.206-3.644,1.849,0,2.12,2.13,2.12,3.557ZM36.914,9.568c-.022,1.621.14,2.173.529,2.173.335,0,.443-.596.443-2.173,0-1.449-.087-2.173-.443-2.173-.347-.001-.543.573-.531,2.173h.002Z" fill="#a4c929"/><path d="M44.551,9.524c0,2.509-.962,3.644-2.151,3.644-1.721,0-2.173-1.957-2.173-3.557,0-1.87.616-3.644,2.206-3.644,1.848,0,2.119,2.13,2.119,3.557ZM41.904,9.568c-.021,1.621.141,2.173.529,2.173.335,0,.443-.596.443-2.173,0-1.449-.087-2.173-.443-2.173-.347-.001-.539.573-.531,2.173h.002Z" fill="#a4c929"/><path d="M44.489,14.794c-.087-.098-.211-.154-.341-.154h-.854c-.093.031-.193.031-.285,0h-.85c-.124.058-.269.058-.393,0h-.857c-.167,0-.321.091-.401.238-.105-.088-.224-.158-.353-.207-.171-.064-.353-.096-.535-.093h-.009c-.037,0-.075,0-.114.004-.394.02-.765.189-1.038.473-.057.058-.111.118-.159.183l-.016-.183c-.019-.237-.217-.419-.455-.418h-.913c-.226-.003-.428.141-.498.356-.118.339-.237.678-.357,1.018-.112-.175-.273-.313-.463-.397-.199-.087-.414-.13-.631-.125h-.038c-.316-.001-.624.102-.875.294-.103-.115-.237-.198-.386-.238-.281-.079-.582-.046-.839.092-.146-.088-.314-.134-.485-.132h-.018c-.146,0-.292.025-.429.077-.056-.022-.114-.034-.174-.034h-.719c-.045,0-.089.007-.132.019-.039-.011-.08-.017-.121-.017h-.774c-.04,0-.079.005-.117.015-.122-.052-.252-.078-.384-.077h-.021c-.128.003-.255.028-.373.076l.066-.488c.005-.041.01-.082.015-.122l.007-.066c.004-.024.006-.048.006-.072,0-.252-.205-.457-.457-.457h-.776c-.229,0-.422.17-.453.397l-.098.739c-.138-.017-.279-.013-.416.01-.269.045-.519.171-.716.36-.147-.159-.338-.269-.549-.318-.152-.036-.307-.054-.463-.054h-.015c-.176,0-.35.031-.515.093-.061-.275-.222-.517-.452-.68-.241-.173-.529-.259-.885-.265h-1.026c-.229,0-.422.17-.453.397l-.402,3.049c-.032.251.144.48.395.513.019.003.038.004.058.004h.853c.067,0,.132-.015.193-.043.06.027.124.041.189.041h.906c.089,0,.177-.027.252-.076.071.036.146.064.224.085.22.06.451.069.676.029.281-.044.543-.169.754-.36.054.06.114.113.179.159.345.242.746.297,1.194.142.024.008.048.013.073.017.03.004.06.007.09.007h.712c.127.002.25-.046.343-.132.132.101.289.165.454.185.179.023.362,0,.529-.069.038.01.077.015.117.015h.776c.04,0,.079-.005.117-.015.036.01.074.015.112.015h.769c.05,0,.099-.008.146-.024.047.016.096.024.145.024h.771c.051,0,.101-.009.149-.025.048.017.099.025.151.025h.735c.13-.002.255-.056.345-.15.21.139.457.213.709.212h.046c.279.003.553-.069.794-.209.087.097.21.152.34.152h.772c.135.002.267-.048.367-.138.086.085.202.132.322.132h.834c.127,0,.247-.053.334-.146.183.115.391.183.607.199.028.046.058.093.089.141l.055.087c.121.194.367.268.574.174l.728-.327c.112-.051.199-.145.242-.261.096.058.2.103.308.132.246.064.502.081.755.052.259-.02.51-.104.728-.246.011.015.022.03.034.044.087.099.212.156.343.156h.83c.237-.007.436-.179.478-.412v-.013c.021-.154.041-.309.062-.463l.034-.257.052-.392.132-1.02c.031-.228.061-.456.091-.685.005-.042.011-.083.015-.124l.01-.081c.019-.13-.018-.262-.103-.363h0Z" fill="#fff"/><path d="M32.872,17.687c-.021.15-.04.3-.06.452.005.002.009.004.015.005h.733c.016-.004.028-.016.033-.032.031-.216.058-.434.087-.65.033-.251.066-.501.099-.752.017-.114.028-.228.031-.343,0-.194-.095-.335-.258-.379-.065-.018-.132-.028-.199-.028-.148,0-.291.052-.404.147-.067.062-.13.128-.189.199,0,0,0-.01-.004-.017-.056-.218-.191-.322-.416-.324h-.013c-.238,0-.462.112-.603.304-.008.011-.017.021-.026.032l-.009-.005.034-.288h-.717c-.011,0-.03.021-.032.034-.011.058-.016.116-.023.175-.04.293-.079.587-.118.881l-.109.83c-.009.072-.018.144-.027.218h.766c.003-.018.008-.034.01-.05.011-.083.021-.167.032-.249.04-.302.079-.603.119-.905.001-.077.033-.15.089-.204.024-.02.055-.031.086-.031.022,0,.046.005.066.014.042.021.065.066.06.112,0,.023-.001.047-.005.07l-.042.318c-.026.199-.054.403-.079.605-.015.105-.028.211-.042.32h.771c.005-.029.009-.054.013-.079.052-.386.101-.772.152-1.159.005-.063.031-.121.075-.166.024-.023.057-.036.091-.036.019,0,.039.004.057.011.046.018.073.065.066.114-.001.037-.004.074-.009.111-.037.246-.071.496-.103.746h0Z" fill="#a4c929"/><path d="M30.468,18.144c.095-.713.189-1.425.282-2.137h-.774c-.011.073-.021.144-.034.223-.02-.028-.033-.047-.047-.066-.052-.074-.122-.134-.203-.173-.068-.031-.142-.046-.216-.046h-.011c-.158.004-.308.067-.422.177-.136.136-.236.303-.291.487-.08.246-.122.502-.126.76-.009.163.015.327.07.481.073.191.199.324.408.351.026.003.052.005.079.005.144-.001.284-.054.392-.15.049-.042.095-.086.146-.132-.01.075-.019.146-.028.22h.776ZM29.673,17.482c-.026.032-.065.051-.107.053-.034,0-.067-.017-.089-.043-.015-.019-.026-.04-.032-.062-.015-.056-.022-.112-.02-.17-.001-.154.024-.306.075-.452.017-.05.043-.096.075-.137.025-.034.064-.055.107-.058h0c.016,0,.032.003.046.01.038.019.065.053.075.094.012.044.02.09.024.136,0,.008.002.017.003.024-.003.126-.019.252-.047.375-.009.034-.02.069-.033.102-.02.046-.047.089-.08.127h.002,0Z" fill="#a4c929"/><path d="M27.503,18.143c.011.002.022.003.034.003h.712c.018,0,.034,0,.038-.03.023-.189.049-.378.073-.567.038-.294.075-.588.115-.882l.109-.817.109-.83.024-.199h-.776c-.146,1.11-.292,2.214-.439,3.323h0Z" fill="#a4c929"/><path d="M27.046,15.96c-.262.042-.492.196-.633.421-.248.371-.312.785-.244,1.22.022.185.12.353.271.463.132.095.29.147.453.147.138-.003.275-.032.402-.088.015-.009.024-.024.027-.042.016-.111.03-.222.045-.331.013-.099.025-.199.038-.302-.046.013-.087.026-.132.034-.019.004-.037.006-.056.006-.098.004-.183-.068-.195-.165-.04-.193-.003-.393.105-.558.044-.075.124-.122.211-.122.018,0,.036.002.053.005.039.009.077.02.114.034.028-.217.057-.432.086-.65-.115-.058-.242-.087-.371-.085-.058,0-.116.004-.173.013h0Z" fill="#a4c929"/><path d="M26.079,16.483c-.042-.247-.23-.443-.475-.495-.117-.028-.237-.041-.357-.041h-.012c-.304-.009-.592.134-.768.382-.282.386-.352.827-.275,1.289.035.27.234.49.499.552.091.024.185.037.279.037.067,0,.133-.006.199-.018.434-.076.702-.339.827-.756,0-.011,0-.023.005-.038h-.626c-.012,0-.03.019-.035.034-.022.065-.063.122-.116.165-.036.026-.081.041-.126.042-.079.002-.149-.052-.167-.128-.022-.112-.022-.228,0-.339h1.133c.051-.225.056-.457.017-.684h0ZM25.436,16.773s0,.007,0,.01h0c-.005.01-.017.021-.025.021h-.427l.01-.037c.004-.013.007-.024.011-.036.021-.071.054-.138.097-.199.018-.025.04-.046.066-.063.025-.015.054-.023.083-.024h.006c.019,0,.038.003.056.008.076.022.127.093.125.173.004.049.003.098-.003.147h.001Z" fill="#a4c929"/><path d="M24.094,18.144c-.142-.451-.283-.898-.424-1.348.015-.008.03-.015.046-.02.382-.154.617-.543.575-.953-.005-.22-.114-.425-.294-.551-.184-.122-.402-.184-.622-.175h-1.019c-.132,1.018-.268,2.032-.402,3.05h.853c.05-.38.101-.759.151-1.138h.011c.073.378.148.756.221,1.136h.904,0ZM23.03,16.448c.031-.238.062-.475.094-.711l.019-.003h.038c.124-.003.226.096.229.22v.019c.009.113-.015.226-.066.328-.006.01-.013.019-.019.028l-.011.014c-.062.069-.15.11-.242.111-.014,0-.028-.002-.041-.005h0Z" fill="#a4c929"/><path d="M35.749,17.168c0-.011.007-.018.009-.024.043-.201.049-.408.019-.611-.04-.224-.148-.403-.365-.501-.14-.06-.291-.088-.443-.084h-.03c-.34.005-.619.137-.809.42-.256.38-.32.805-.249,1.252.027.175.122.332.265.437.142.1.312.152.486.148h.034c.458,0,.823-.241.981-.651.019-.05.033-.101.052-.157h-.636c-.011,0-.023.016-.03.027-.024.047-.05.092-.08.136-.038.048-.096.076-.157.075-.021,0-.041-.003-.062-.007-.071-.016-.122-.081-.119-.154-.003-.095-.002-.189.005-.283,0-.008.026-.022.04-.022h1.091-.003,0ZM34.656,16.805l.03-.066c.026-.064.056-.126.089-.185.029-.044.07-.077.118-.098.02-.008.04-.012.062-.012h0c.075,0,.14.054.156.128.011.07.015.141.012.212h0c0,.007-.017.022-.026.022h-.442,0Z" fill="#a4c929"/><path d="M38.093,18.144c-.088-1.018-.175-2.031-.265-3.049h-.913c-.032-.003-.061.018-.066.05-.327.934-.654,1.869-.983,2.803-.022.066-.044.132-.066.199h.772c.036.007.071-.016.078-.052,0-.005.001-.01.001-.015.031-.129.066-.257.105-.383h.506v.442l.83.005h0ZM36.921,17.077c.102-.366.204-.728.304-1.089.003,0,.006,0,.009,0,.007.361.015.723.022,1.087h-.335Z" fill="#02793e"/><path d="M39.968,17.924c.124-.119.229-.257.31-.41.199-.38.274-.789.291-1.212.015-.216-.011-.433-.075-.639-.087-.259-.238-.463-.502-.564-.118-.044-.245-.065-.371-.063h-.097c-.281.015-.545.135-.74.337-.166.173-.293.38-.372.607-.084.237-.139.484-.162.734-.03.238-.023.478.021.714.033.185.115.357.238.499.169.185.412.285.662.272h.036c.063-.005.122.03.147.089.066.118.141.231.215.348l.728-.326c-.112-.13-.218-.255-.328-.386h0ZM39.578,17.146c-.019.077-.056.148-.108.206l-.012.011c-.042.041-.097.065-.156.066-.047,0-.093-.017-.128-.048h0l-.007-.007h0c-.006-.007-.012-.013-.017-.021h0c-.008-.012-.015-.024-.021-.037h0l-.003-.008v-.009c-.003-.009-.005-.017-.007-.026-.019-.087-.026-.176-.021-.265v-.058c.012-.29.056-.577.132-.857.024-.079.06-.156.107-.225.038-.058.105-.092.175-.09h.016c.07-.002.133.042.157.107l.005.015c.017.071.029.144.037.217-.011.347-.061.692-.148,1.028h0Z" fill="#02793e"/><path d="M40.642,17.56c.042.29.183.508.508.596.124.033.253.05.382.048.069,0,.14-.004.209-.011.437-.04.743-.256.898-.673.064-.185.107-.377.125-.572.035-.271.073-.541.109-.812s.073-.557.11-.835c.01-.066.017-.138.026-.206h-.85c-.004.009-.007.018-.009.027-.02.149-.038.298-.058.448-.032.246-.066.49-.096.735-.03.228-.06.456-.091.684-.011.087-.027.174-.048.26-.015.069-.069.124-.138.138-.022.005-.044.007-.066.007-.095,0-.159-.051-.158-.179,0-.037.004-.074.009-.111.026-.199.053-.403.08-.605.032-.246.066-.492.098-.738.029-.22.059-.439.088-.662h-.86c-.016.116-.03.228-.048.339-.032.247-.066.492-.098.738s-.066.502-.099.752c-.036.208-.044.422-.023.632h0Z" fill="#02793e"/><path d="M42.893,18.155h.828c.01,0,.028-.019.03-.03.032-.24.066-.48.095-.719s.066-.492.097-.738l.089-.674c.031-.228.061-.455.091-.683.009-.066.016-.132.024-.203h-.854c-.133,1.014-.267,2.028-.401,3.048h0Z" fill="#02793e"/><path d="M15.861,4.207c.142.085.304.131.469.132.265,0,.424-.142.424-.346,0-.189-.109-.297-.382-.402-.331-.117-.535-.289-.535-.574,0-.315.265-.55.655-.55.155-.005.309.029.447.099l-.072.214c-.118-.064-.249-.097-.384-.097-.277,0-.382.165-.382.304,0,.189.124.283.403.39.343.132.517.298.517.596,0,.312-.232.583-.709.583-.181.001-.359-.044-.517-.132l.066-.216h0Z" fill="#030202"/><path d="M20.313,3.489c0,.697-.424,1.067-.941,1.067s-.911-.415-.911-1.028c0-.643.397-1.064.941-1.064.553.003.911.429.911,1.025ZM18.74,3.522c0,.433.235.821.647.821s.649-.382.649-.842c0-.402-.21-.823-.647-.823s-.649.402-.649.847v-.003Z" fill="#030202"/><path d="M23.564,3.636c-.015-.283-.033-.622-.03-.875h-.009c-.069.238-.154.49-.255.77l-.361.983h-.199l-.327-.965c-.097-.285-.177-.547-.235-.787h-.006c-.006.253-.021.596-.039.896l-.054.868h-.249l.142-2.026h.331l.345.98c.084.249.154.472.204.682h.014c.051-.204.123-.427.213-.682l.361-.98h.331l.126,2.026h-.255l-.048-.889h0Z" fill="#030202"/><path d="M27.204,3.489c0,.697-.424,1.067-.941,1.067s-.911-.415-.911-1.028c0-.643.397-1.064.941-1.064.553.003.911.429.911,1.025ZM25.632,3.522c0,.433.234.821.646.821s.649-.382.649-.842c0-.402-.21-.823-.646-.823s-.648.402-.648.847v-.003h0Z" fill="#030202"/><path d="M28.711,4.207c.142.085.303.131.469.132.265,0,.424-.142.424-.346,0-.189-.109-.297-.382-.402-.331-.117-.535-.289-.535-.574,0-.315.261-.55.655-.55.155-.005.309.029.447.099l-.071.214c-.118-.064-.25-.097-.384-.097-.277,0-.382.165-.382.304,0,.189.123.283.403.39.343.132.517.298.517.596,0,.312-.232.583-.709.583-.181.001-.359-.044-.517-.132l.065-.216h0Z" fill="#030202"/></svg>