<?xml version="1.0" encoding="UTF-8"?><svg id="a" xmlns="http://www.w3.org/2000/svg" viewBox="0 0 23 23"><path d="m20.29,3.88L12.25.52c-.24-.1-.49-.15-.75-.15s-.51.05-.75.15L2.71,3.88c-1.12.47-1.82,1.59-1.76,2.8.11,2.19.61,5.79,2.52,9.15,2.69,4.73,5.78,6.22,7.21,6.67.27.08.54.13.81.13s.55-.04.81-.13c1.44-.45,4.53-1.94,7.21-6.67,1.91-3.37,2.41-6.97,2.52-9.16.06-1.21-.64-2.33-1.76-2.8Zm-2.33,11.06c-2.43,4.28-5.14,5.51-6.19,5.85-.09.03-.18.04-.27.04s-.18-.01-.27-.04c-1.05-.33-3.76-1.57-6.19-5.85-1.7-2.99-2.18-6.19-2.29-8.36-.02-.46.24-.87.66-1.05l8.04-3.37s.03-.01.05-.01.04,0,.05.01l8.04,3.37c.42.18.68.59.66,1.05-.11,2.16-.59,5.37-2.29,8.36Z" style="stroke-width:0px;"/><path d="m15.37,7.95l-5.18,5.18-2.26-2.26c-.35-.35-.92-.35-1.27,0s-.35.92,0,1.27l2.9,2.9c.18.18.41.26.64.26s.46-.09.64-.26l5.82-5.82c.35-.35.35-.92,0-1.27-.35-.35-.92-.35-1.27,0Z" style="stroke-width:0px;"/></svg>