<?xml version="1.0" encoding="UTF-8"?><svg id="a" xmlns="http://www.w3.org/2000/svg" viewBox="0 0 23 23"><path d="m21.69,9.08c-.12-.36-.42-.62-.79-.67l-5.88-.87-2.63-5.42c-.16-.34-.51-.56-.89-.56s-.72.21-.89.56l-2.63,5.42-5.88.87c-.37.06-.68.32-.79.67-.12.36-.02.75.24,1.01l4.26,4.23-1.01,5.97c-.06.37.1.75.4.97.31.22.7.25,1.04.07l5.25-2.81c-.12-.09,6.06,3.33,5.72,2.93.59.01,1.09-.57.97-1.15,0,0-1.01-5.97-1.01-5.97l4.26-4.23c.26-.26.36-.65.24-1.01Zm-6.54,5.06l.76,4.49c-.22-.07-4.3-2.42-4.41-2.23-.12-.2-4.21,2.16-4.42,2.23l.76-4.49c.05-.31-.05-.64-.28-.86l-3.23-3.2,4.44-.65c.32-.05.6-.25.74-.55l1.97-4.06,1.97,4.06c.14.29.42.5.75.55l4.44.66-3.23,3.2c-.23.23-.33.55-.28.86Z" style="stroke-width:0px;"/></svg>