<?xml version="1.0" encoding="UTF-8"?><svg id="a" xmlns="http://www.w3.org/2000/svg" viewBox="0 0 23 23"><path d="m22.75,6.79h0s0-.07,0-.07c-.03-.85-.37-1.66-.95-2.27l-1.82-2.81c-.27-.42-.72-.66-1.21-.66H4.24c-.5,0-.95.25-1.21.66l-1.82,2.81c-.58.62-.92,1.42-.95,2.28v.12c0,1.92,1.56,3.49,3.48,3.49.99,0,1.93-.42,2.59-1.15.66.73,1.59,1.15,2.59,1.15s1.93-.42,2.59-1.15c.66.73,1.6,1.15,2.59,1.15s1.93-.42,2.59-1.15c.66.73,1.6,1.15,2.59,1.15,1.91,0,3.47-1.54,3.48-3.51h0v-.03Zm-1.8.06c0,.93-.76,1.69-1.69,1.69-.55,0-1.07-.27-1.39-.73-.27-.4-.72-.63-1.2-.63h0c-.48,0-.92.24-1.2.63-.64.92-2.15.91-2.78,0-.55-.79-1.85-.79-2.4,0-.63.91-2.15.91-2.78,0-.55-.79-1.85-.79-2.4,0-.32.46-.83.73-1.39.73-.93,0-1.69-.76-1.69-1.65v-.1c.02-.43.2-.83.5-1.14l1.88-2.88h14.13l1.76,2.73.12.15c.3.3.48.71.5,1.19h0Z" style="stroke-width:0px;"/><path d="m18.88,14.83H4.12v-3.33h-1.8v8.07c0,1.36,1.11,2.47,2.47,2.47h13.43c1.36,0,2.47-1.11,2.47-2.47v-8.07h-1.8v3.33Zm-.67,5.4H4.79c-.37,0-.67-.3-.67-.67v-2.81h14.76v2.81c0,.37-.3.67-.67.67Z" style="stroke-width:0px;"/></svg>