<?xml version="1.0" encoding="UTF-8"?><svg id="a" xmlns="http://www.w3.org/2000/svg" viewBox="0 0 23 23"><path d="m6,4.45c-2.03.04-2.03,3.06,0,3.1,2.03-.04,2.03-3.06,0-3.1Z" style="stroke-width:0px;"/><path d="m20.94,11.05L11.94,2.05c-.41-.4-.96-.62-1.53-.59H3.55c-1.15-.03-2.1.9-2.1,2.05v7c0,.54.22,1.07.6,1.45l9,9c.76.79,2.13.78,2.89-.01,0,0,7-7,7-7,.8-.76.8-2.14,0-2.9Zm-9,7.83L3.86,10.8c-.2-.2-.31-.47-.31-.75v-5.85c0-.35.29-.64.64-.64h5.85c.28,0,.56.11.76.31l8.08,8.08c.33.33.33.86,0,1.19l-5.75,5.75c-.33.33-.86.33-1.19,0Z" style="stroke-width:0px;"/></svg>