<?xml version="1.0" encoding="UTF-8"?><svg id="a" xmlns="http://www.w3.org/2000/svg" viewBox="0 0 23 23"><path d="m17.57,8.56h-.7c-1.07-5.99-9.56-5.99-10.63,0-.77-.01-1.62-.01-2.36.24l-.29-.54c1.05-.56.2-2.16-.85-1.59,0,0-1.61.87-1.61.87-1.04.57-.17,2.16.87,1.58l.28.51c-2.82,2.03-3.11,7.26,1.37,6.84.88,3.3,5.66,3.29,6.54,0h2.65c.88,3.3,5.65,3.29,6.54,0h.8c1.47,0,2.66-1.19,2.66-2.66,0-2.9-2.36-5.25-5.25-5.25Zm-9.49,0c.9-3.6,6.05-3.6,6.95,0h-6.95Zm-1.17,5.41c2.1.04,2.1,3.15,0,3.19-2.09-.04-2.1-3.15,0-3.19Zm14.11-.16c0,.47-.38.85-.85.85h-.8c-.88-3.29-5.65-3.29-6.54,0h-2.65c-.88-3.29-5.66-3.29-6.54,0h-.8c-.47,0-.85-.38-.85-.85,0-1.9,1.55-3.45,3.45-3.45h12.13c1.9,0,3.45,1.55,3.45,3.45Zm-3.32,1.75c-.04,2.1-3.15,2.1-3.19,0,.04-2.1,3.15-2.1,3.19,0Z" style="stroke-width:0px;"/></svg>