<?xml version="1.0" encoding="UTF-8"?><svg id="a" xmlns="http://www.w3.org/2000/svg" viewBox="0 0 23 23"><path d="m21.96,15.47h-.16v-4.61c0-.23-.09-.46-.26-.63l-3.86-3.86c-.17-.17-.39-.26-.63-.26h-1.96v-1.3c0-1.31-1.06-2.36-2.36-2.36H1.88c-.95,0-1.72.77-1.72,1.72v11.34c0,.95.77,1.72,1.71,1.72.12,0,.26,0,.39,0,.02,1.83,1.51,3.31,3.34,3.31s3.32-1.48,3.34-3.3c2.59,0,4.79,0,4.97,0,.16,4.39,6.53,4.4,6.69,0,.03,0,.32,0,.34,0h1.01c1.17-.02,1.17-1.75,0-1.77Zm-16.36,3.29c-.86,0-1.57-.7-1.57-1.57s.7-1.57,1.57-1.57,1.57.7,1.57,1.57-.7,1.57-1.57,1.57Zm1.84-5.5c-2.24,0-4.05-1.81-4.05-4.05s1.81-4.05,4.05-4.05,4.05,1.81,4.05,4.05-1.81,4.05-4.05,4.05Zm9.82,5.54c-2.06-.04-2.07-3.1,0-3.14,2.06.04,2.06,3.1,0,3.14Zm-2.18-7.69v-3.21h1.59l3.22,3.21h-4.81Z" style="stroke-width:0px;"/><path d="m8.64,9.81h-1.3c-.3,0-.54-.24-.54-.54v-1.83c0-.3.24-.54.54-.54s.54.24.54.54v1.28h.76c.3,0,.54.24.54.54s-.24.54-.54.54Z" style="stroke-width:0px;"/></svg>