<?xml version="1.0" encoding="UTF-8"?><svg id="a" xmlns="http://www.w3.org/2000/svg" viewBox="0 0 23 23"><path d="m9.28,10.95c0-.33-.27-.6-.6-.6H.86c-.33,0-.6.27-.6.6s.27.6.6.6h7.82c.33,0,.6-.27.6-.6Z" style="stroke-width:0px;"/><path d="m9.78,9.33c.78,0,.79-1.2,0-1.2,0,0-7.82,0-7.82,0-.78,0-.79,1.2,0,1.2,0,0,7.82,0,7.82,0Z" style="stroke-width:0px;"/><path d="m21.86,15.35h-.17v-4.67c0-.24-.09-.47-.26-.64l-3.92-3.91c-.17-.17-.4-.26-.64-.26h-1.99v-.96c0-1.32-1.08-2.4-2.4-2.4h-7.6c-1.32,0-2.4,1.07-2.4,2.4v1.01H.86c-.78,0-.79,1.19,0,1.2,0,0,7.82,0,7.82,0,.78,0,.79-1.19,0-1.2,0,0-4.4,0-4.4,0,.04-.52-.23-1.59.6-1.61,0,0,7.6,0,7.6,0,.33,0,.6.27.6.6v9.84c0,.33-.27.6-.6.6-.93,0-2.81,0-3.74,0-.84-1.46-2.97-2.07-4.47-1.19v-1.45h-1.8v4.42c.14,4.47,6.63,4.48,6.79.01h4.44c.16,4.45,6.62,4.46,6.78,0,.03,0,.33,0,.35,0h1.02c1.18-.02,1.18-1.78,0-1.8Zm-15.98,3.37c-2.09-.04-2.09-3.14,0-3.18,2.09.04,2.09,3.14,0,3.18Zm11.22,0c-2.09-.04-2.09-3.14,0-3.18,2.09.04,2.09,3.14,0,3.18Zm-2.21-7.79v-3.26h1.61l3.26,3.26h-4.88Z" style="stroke-width:0px;"/></svg>