<?xml version="1.0" encoding="UTF-8"?><svg id="a" xmlns="http://www.w3.org/2000/svg" viewBox="0 0 23 23"><path d="m4.2,2.51c-.93,0-1.68.75-1.68,1.68v1.68H.83c-.31,0-.56.25-.56.56s.25.56.56.56h8.99c.73,0,.74,1.12,0,1.12,0,0-7.3,0-7.3,0h-.56c-.73,0-.74,1.12,0,1.12,0,0,.56,0,.56,0h6.18c.73,0,.74,1.12,0,1.12,0,0-6.18,0-6.18,0H.83c-.31,0-.56.25-.56.56s.25.56.56.56h6.74c.73,0,.74,1.12,0,1.12,0,0-5.05,0-5.05,0v4.49c.14,4.45,6.6,4.45,6.74,0h4.49c.14,4.45,6.6,4.45,6.74,0h1.12c1.48-.02,1.48-2.22,0-2.25,0-.76,0-2.64,0-3.37.04-.79-.04-1.68-.66-2.25,0,0-2.71-2.71-2.71-2.71-.42-.42-.99-.66-1.59-.66h-1.78v-1.68c0-.93-.75-1.68-1.68-1.68H4.2Zm15.16,8.33v.66h-4.49v-3.37h1.78l2.71,2.71Zm-13.48,4.59c2.21.04,2.21,3.33,0,3.37-2.21-.04-2.21-3.33,0-3.37Zm9.55,1.68c.04-2.21,3.33-2.21,3.37,0-.04,2.21-3.33,2.21-3.37,0Z" style="stroke-width:0px;"/></svg>