<?xml version="1.0" encoding="UTF-8"?><svg id="a" xmlns="http://www.w3.org/2000/svg" width="23" height="23" viewBox="0 0 23 23"><path d="M19.944.845H6.464c-1.062,0-1.926.864-1.926,1.926v5.02h1.444v-1.169h14.442v5.777c0,.265-.217.481-.481.481h-.648v1.444h.648c1.062,0,1.926-.864,1.926-1.926V2.77c0-1.062-.864-1.926-1.926-1.926ZM20.425,3.733H5.983v-.963c0-.265.217-.481.481-.481h13.479c.265,0,.481.217.481.481v.963Z"/><path d="M8.607,19.301s3.352,0,3.352,0c.949-.014.95-1.43,0-1.444,0,0-3.352,0-3.352,0-.949.014-.95,1.43,0,1.444Z"/><path d="M16.55,8.676H3.071c-1.062,0-1.926.864-1.926,1.926v9.628c0,1.062.864,1.926,1.926,1.926h13.479c1.062,0,1.926-.864,1.926-1.926v-9.628c0-1.062-.864-1.926-1.926-1.926ZM17.031,20.23c0,.265-.217.481-.481.481H3.071c-.265,0-.481-.217-.481-.481v-5.777h14.442v5.777ZM17.031,11.565H2.589v-.963c0-.265.217-.481.481-.481h13.479c.265,0,.481.217.481.481v.963Z"/><path d="M4.746,19.301s1.43,0,1.43,0c.949-.014.95-1.43,0-1.444,0,0-1.43,0-1.43,0-.949.014-.95,1.43,0,1.444Z"/></svg>