<?xml version="1.0" encoding="UTF-8"?><svg id="a" xmlns="http://www.w3.org/2000/svg" viewBox="0 0 23 23"><path d="m5.31,2.5c1.55,0,2.81,1.26,2.81,2.81s-1.26,2.81-2.81,2.81-2.81-1.26-2.81-2.81,1.26-2.81,2.81-2.81Zm12.94,0c1.55,0,2.81,1.26,2.81,2.81s-1.26,2.81-2.81,2.81-2.81-1.26-2.81-2.81,1.26-2.81,2.81-2.81ZM.25,13c0-2.07,1.68-3.75,3.75-3.75h1.5c.56,0,1.09.12,1.57.34-.05.25-.07.52-.07.78,0,1.34.59,2.55,1.52,3.38H1c-.41,0-.75-.34-.75-.75Zm14.25.75h-.02c.94-.83,1.52-2.03,1.52-3.38,0-.27-.02-.53-.07-.78.48-.22,1.01-.34,1.57-.34h1.5c2.07,0,3.75,1.68,3.75,3.75,0,.41-.34.75-.75.75h-7.5Zm-6.37-3.38c0-1.86,1.51-3.38,3.38-3.38s3.38,1.51,3.38,3.38-1.51,3.38-3.38,3.38-3.38-1.51-3.38-3.38Zm-3.38,9.19c0-2.59,2.1-4.69,4.69-4.69h4.13c2.59,0,4.69,2.1,4.69,4.69,0,.52-.42.94-.94.94H5.69c-.52,0-.94-.42-.94-.94Z" style="stroke-width:0px;"/></svg>