<?xml version="1.0" encoding="UTF-8"?><svg id="a" xmlns="http://www.w3.org/2000/svg" viewBox="0 0 23 23"><circle cx="5.31" cy="5.31" r="2.81" style="stroke-width:0px;"/><circle cx="18.25" cy="5.31" r="2.81" style="stroke-width:0px;"/><path d="m8.53,13.75c-.93-.83-1.52-2.03-1.52-3.38,0-.27.02-.53.07-.78-.48-.22-1.01-.34-1.57-.34h-1.5c-2.07,0-3.75,1.68-3.75,3.75,0,.41.34.75.75.75h7.53Z" style="stroke-width:0px;"/><path d="m19,9.25h-1.5c-.56,0-1.09.12-1.57.34.04.26.07.52.07.78,0,1.34-.59,2.55-1.52,3.38h7.53c.41,0,.75-.33.75-.75,0-2.07-1.68-3.75-3.75-3.75Z" style="stroke-width:0px;"/><path d="m11.5,13.75c1.86,0,3.38-1.51,3.38-3.38s-1.51-3.38-3.38-3.38-3.38,1.51-3.38,3.38,1.51,3.38,3.38,3.38Zm0-4.95c.87,0,1.58.71,1.58,1.58s-.71,1.58-1.58,1.58-1.58-.71-1.58-1.58.71-1.58,1.58-1.58Z" style="stroke-width:0px;"/><path d="m13.56,14.88h-4.13c-2.59,0-4.69,2.1-4.69,4.69,0,.52.42.94.94.94h11.62c.52,0,.94-.42.94-.94,0-2.59-2.1-4.69-4.69-4.69Zm-6.88,3.83c.37-1.17,1.46-2.03,2.76-2.03h4.13c1.29,0,2.39.85,2.76,2.03H6.68Z" style="stroke-width:0px;"/></svg>