<?xml version="1.0" encoding="UTF-8"?><svg id="a" xmlns="http://www.w3.org/2000/svg" viewBox="0 0 23 23"><path d="m15,7.75c.36.4.89.66,1.48.66h4.29c1.09,0,1.98-.89,1.98-1.98s-.89-1.98-1.98-1.98h-4.29c-.59,0-1.11.26-1.48.66h-2.96C10.37-1.7.42-.65.29,6.43c.14,7.08,10.08,8.13,11.74,1.32h2.96Zm-8.76,2.89c-5.57-.17-5.57-8.26,0-8.43,5.57.17,5.57,8.26,0,8.43Z" style="stroke-width:0px;"/><path d="m7.55,13.69c-1.27,0-3.99,0-5.29,0-.36,0-.66.3-.66.66v3.3c0,.73.59,1.32,1.32,1.32h2.64c.73,0,1.32-.59,1.32-1.32h.66c2.61-.07,2.61-3.9,0-3.96Zm0,2.64h-.66v-1.32h.66c.86,0,.86,1.32,0,1.32Z" style="stroke-width:0px;"/><path d="m21.85,11.78h-4.19v-.51c0-.5-.4-.9-.9-.9s-.9.4-.9.9v.51h-4.19c-.93-.01-1.24,1.3-.4,1.69v5.47c0,2.01,1.27,3.58,2.88,3.58h5.29c1.62,0,2.88-1.57,2.88-3.58v-5.52c.75-.43.39-1.67-.48-1.64Zm-1.32,7.16c0,1.05-.57,1.79-1.08,1.79h-5.29c-.51,0-1.08-.73-1.08-1.79v-5.36h7.45v5.36Z" style="stroke-width:0px;"/><path d="m8.63,19.73H1.15c-1.18.02-1.18,1.78,0,1.8,0,0,7.48,0,7.48,0,1.18-.02,1.18-1.78,0-1.8Z" style="stroke-width:0px;"/></svg>